<?xml version="1.0" standalone="no"?>
<!DOCTYPE svg PUBLIC "-//W3C//DTD SVG 1.1//EN" "http://www.w3.org/Graphics/SVG/1.1/DTD/svg11.dtd" >
<svg xmlns="http://www.w3.org/2000/svg" xmlns:xlink="http://www.w3.org/1999/xlink" version="1.1">
<metadata></metadata>
<defs>
<font id="norseregular" horiz-adv-x="931" >
<font-face units-per-em="2048" ascent="1792" descent="-256" />
<missing-glyph horiz-adv-x="419" />
<glyph unicode="&#xfb01;" horiz-adv-x="1136" d="M156 2l8 150l14 147l-12 55l6 215l6 242v61l2 11l-8 374l10 54l-22 6l4 110l-6 76l53 2l82 -6h55l115 8l170 4v-49l-10 -57l-35 -2l-137 14l-76 4h-76l-29 -6l-14 -131l-14 -127l12 -39l8 -323h14l35 -2l148 6l121 14l6 -37l-6 -59l-9 -27l-22 2l-39 19l-23 -6l-233 12 v-53l2 -56l6 -90l-2 -180l16 -188l-4 -72l11 -29v-55l-25 -4zM854 0l18 131v574l7 69l8 125l-17 66l-8 489l-6 57l37 11l82 -17l-6 -104l-11 -60l-6 -286l-6 -111l8 -100l4 -60l3 -39l2 -10v-608l4 -43l8 -41l-4 -35l-45 -12l-39 2z" />
<glyph unicode="&#xfb02;" horiz-adv-x="1357" d="M156 2l8 150l14 147l-12 55l6 215l6 242v61l2 11l-8 374l10 54l-22 6l4 110l-6 76l53 2l82 -6h55l115 8l170 4v-49l-10 -57l-35 -2l-137 14l-76 4h-76l-29 -6l-14 -131l-14 -127l12 -39l8 -323h14l35 -2l148 6l121 14l6 -37l-6 -59l-9 -27l-22 2l-39 19l-23 -6l-233 12 v-53l2 -56l6 -90l-2 -180l16 -188l-4 -72l11 -29v-55l-25 -4zM844 1499h55l64 10l10 -8l-2 -117l-8 -75l-11 -246l-14 -244v-102l2 -27l4 -176v-10l6 -113l-18 -8h2l16 -29l11 -155l2 -84l-11 -11l23 -20l219 4l51 16l62 9l8 -19l-10 -86l-17 -16l-147 10l-19 -2h-112l-25 4 l-98 -8l-37 4v80l16 45l-12 63l16 363l-6 737l13 47l-21 17z" />
<glyph horiz-adv-x="0" />
<glyph horiz-adv-x="682" />
<glyph horiz-adv-x="0" />
<glyph horiz-adv-x="0" />
<glyph unicode="&#xd;" horiz-adv-x="419" />
<glyph unicode=" "  horiz-adv-x="419" />
<glyph unicode="&#x09;" horiz-adv-x="419" />
<glyph unicode="&#xa0;" horiz-adv-x="419" />
<glyph unicode="!" horiz-adv-x="434" d="M121 66l2 26l47 41q5 7 18.5 21.5t18.5 21.5l22 -2l21 -33l10 -30q2 0 8 2t8 2l27 -25v-22l-45 -37l-37 -54l-18 3l-15 20l2 12l3 -2l-5 6q-1 0 -7 2t-7 2zM152 1487l32 12l101 -8l-9 -102l-12 -17l8 -41l-14 -254l-18 -73l12 -39l-6 -217l12 -261l-41 -26h-49l-6 37 l14 96q0 20 -1 61t-1 62l8 18l-6 53l4 125l-8 101l-12 301l28 26l-30 33l-2 62z" />
<glyph unicode="&#x22;" horiz-adv-x="450" d="M61 1507l9 19l90 6l20 -19l-14 -120l-8 -152l8 -121l-19 -4l-36 4l-23 17l6 90l-8 92v80zM272 1509l11 21l90 -4l16 -13l-20 -116l-9 -154v-117l-22 -8l-47 4l2 107l-6 176z" />
<glyph unicode="#" horiz-adv-x="821" d="M14 475l6 31l5 31l51 -2l26 -5l91 -6l12 113l20 188l8 41l3 -2l14 152l-88 4l-45 -19l-37 -4l-21 4l4 80l11 23l28 -2l48 -8l108 -4l8 73q1 14 3 30t5.5 35.5t4.5 28.5q-1 18 0 54.5t0 52.5l2 82l10 53l94 2l6 -20l-8 -45l-31 -129v2l-18 -213l-2 -11l78 -2q25 0 73.5 1 t73.5 1l8 78l15 94l2 107l2 88l10 55l96 -8l6 -20l-18 -45v2l-25 -127l-20 -213l-2 -9h31l145 13l-2 -90l-29 -17l-155 23l-23 -168l-20 -285l-9 -51h19l30 10l97 -2l53 12l-4 -98l-29 -12l-104 14q-11 0 -34 1t-34 1h-4l-12 -100l-12 -158l4 -127l-7 -53l-104 -4v47l10 27 q3 22 11.5 62.5t11.5 62.5l14 53l-8 33l16 157l-67 -2l-158 4q-8 -71 -10 -102l-10 -100l-21 -41q14 -14 16 -15l-8 -141l6 -27l-14 -12l-16 -12l-84 8v43l14 27v-2q4 22 14.5 63.5t14.5 60.5l4 56l2 35l16 161l-53 2l-84 -14h-27zM268 518l99 -6h125l14 125l20 186l27 41 l-14 47l10 103l-88 -8l-139 6l-21 -164l-29 -285z" />
<glyph unicode="$" horiz-adv-x="743" d="M59 262l13 31l49 59l61 -59l-6 -31l37 -14l86 -94l47 -50q1 29 5 99t5 104q0 73 -2 218t-2 218q-9 12 -27.5 39.5t-21.5 32.5l-90 127l-31 29l-106 143l10 66l78 100l24 4v33l58 53h-2l98 154l-6 80l-8 43l6 16l88 2l-6 -78q0 -12 1 -34t1 -33q1 0 5 -1t5 -1l16 -21 l54 -65l63 -52l90 -84l-63 -63l-27 16l-92 105h2l-55 49q0 -31 -1 -91t-1 -91l4 -91l-2 -344l246 -329l34 -31l11 -74l-93 -98l-57 -61h2l-84 -130l-57 -77v-90l2 -62l-64 -6l-20 10l8 53q0 13 1 46t1 45l-153 151h2q-16 14 -136 129zM178 1149l174 -270q0 31 -1 98t-1 100 l4 205l-6 119l-47 -58l-33 -45l-24 -8zM410 594l8 -348l4 -70l-2 -53l119 125h-2l63 129q-16 28 -84 145q-12 16 -32.5 44.5t-38 52t-33.5 43.5q0 -10 -1 -33t-1 -35z" />
<glyph unicode="%" horiz-adv-x="1175" d="M41 1219l137 161l23 41l24 35l33 55l64 2l81 -110l3 -25l34 -37l97 -122l4 -68l-107 -123h-24l4 -35l-88 -131l-66 -4l-29 37l-53 86l-129 168l-2 37zM133 1198l66 -98l-9 -25l37 -14l78 -105h6l66 88l74 111v25l-66 102l-94 137h-8l-80 -112l-15 -25l-55 -72v-12z M209 27l24 51l29 33l53 79l47 46l-12 36l135 316l72 168l21 37l135 272l49 84l65 215l33 96l31 49l84 -45v-16l-25 -43l-127 -229l-78 -191l-108 -223l-207 -459l-70 -170l-24 -63l-12 -47l-17 -33l-20 -10zM633 338l133 170l22 43l25 35l33 55l63 2l82 -111l2 -28l49 -47 l86 -101l5 -67l-107 -133h-25l5 -33l-88 -133l-66 -4l-29 39l-53 86l-129 157l-2 37zM723 322l68 -95l-9 -24l37 -15l78 -100h6l64 84l75 121v24l-67 93l-94 135h-11l-75 -111l-15 -24l-57 -76v-12z" />
<glyph unicode="&#x26;" horiz-adv-x="1067" d="M53 467l191 205l6 20l69 82l21 27l-14 22l-97 111l-16 55l-27 8l-104 117v57l127 123l74 95l79 120l44 4l38 5l62 -78l51 -54l129 -112l2 -31l-59 -63l-58 59l-71 76l-4 35l-27 -4l-70 75q-21 -27 -63 -76.5t-55 -64.5l-37 -20q0 -2 1 -9t1 -18l-64 -86l72 -103l25 -22 l299 -365l-9 -26l33 -6l127 -158l6 -6l23 33l35 47l135 213l22 4l76 -64l-25 -45l-53 -43l-71 -82l-91 -110q-2 -4 -2 -8l123 -158l158 -166l-12 -39l-74 -63l-76 86l-22 47l-9 49l-32 4l-115 162l-49 -56l-82 -104l-62 -84l-45 -86l-71 4l-35 -2l-16 35l-91 106l-14 52 l-18 -7l-183 195zM143 436l41 -57l113 -111l80 -98l65 -61l125 135l23 53l16 12l64 78l-4 27l-25 18l-240 301h-4q-2 0 -3.5 1t-2.5 1l-18 -20l-176 -195l-29 -41z" />
<glyph unicode="'" horiz-adv-x="253" d="M72 1513l8 19l88 -2l18 -17l-16 -120q-1 -25 -4 -76t-4 -74l6 -108l-18 -13l-41 2l-23 17l6 90l-2 172z" />
<glyph unicode="(" horiz-adv-x="436" d="M90 659l2 113l4 156l15 110l94 308l117 282l36 14l70 -43l-45 -96l-66 -57l-4 -39l-4 -45l-65 -111l-49 -172l-27 -190l-12 -111l26 -266l97 -383v2l116 -213l17 -43l-64 -47l-26 2l-31 43l-21 76l6 55l-40 33l-76 223l-6 66v-2l-27 108l-18 137z" />
<glyph unicode=")" horiz-adv-x="440" d="M4 -129l45 88l68 59l2 37l8 47l63 115v-2l41 172l43 188l15 113l-15 117l-2 82l-8 65l-51 156l-57 215v-2l-111 231l-16 41l61 45l27 -2l33 -43l24 -86l-16 -51l43 -26l80 -228l6 -59v2l37 -111l14 -135l22 -92l-4 -113l-6 -159l-31 -105l-86 -311l-118 -277l-37 -12z " />
<glyph unicode="*" horiz-adv-x="452" d="M41 1382l10 29h35l121 -33l-8 107l-9 51l54 4l37 -4l-2 -45l-21 -109l66 19l86 29l12 -37v-41l-55 -6l-91 -11q1 -1 14 -13t17 -17l51 -68h-2l35 -37l-61 -47l-37 29l-12 41l-43 75l-41 -69v2l-7 -47l-26 -37l-74 33l23 41l41 51q6 10 19.5 28.5t19.5 28.5l-64 6h-84z " />
<glyph unicode="+" horiz-adv-x="757" d="M39 696l10 78l8 23l45 -4l45 -9l76 -10h53l70 -2l2 66v92l-8 12l-8 164l16 33l88 -2l-4 -90l-18 -168l6 -107v-2h8l127 6l78 12l84 7v-43l-6 -52l-33 -14l-109 12l-86 9h-63l6 -240l10 -53l2 -52l-45 -12h-61l-6 21l8 59l6 45l4 168v64l-74 2l-114 -4l-97 -13z" />
<glyph unicode="," horiz-adv-x="290" d="M0 -168l12 25l43 32l56 74l6 51l-6 2l-54 45l2 27l47 41q5 7 18.5 21.5t18.5 21.5l23 -2l20 -33l11 -31q2 0 8 2.5t8 2.5l27 -25v-23l-9 -8l-32 -65l-72 -109l-49 -71l-25 -17z" />
<glyph unicode="-" horiz-adv-x="540" d="M66 721l4 35l-2 57l12 4l47 -4l47 -6l94 -2l127 6l72 10l10 -14l2 -74l-28 -14l-113 10l-158 2l-43 -6l-45 -8z" />
<glyph unicode="." horiz-adv-x="264" d="M41 61l2 27l47 41q5 7 18.5 21.5t18.5 21.5l23 -2l20 -33l10 -31q2 0 8.5 2.5t8.5 2.5l26 -25v-23l-45 -36l-37 -54l-18 2l-14 21l2 12l2 -2l-4 6q-1 0 -7.5 2t-7.5 2z" />
<glyph unicode="/" horiz-adv-x="667" d="M12 -59l21 57q3 7 9 24t9 23l76 184l25 19l-13 37l111 336l53 180l19 39l90 290l32 84l66 230l25 82l26 57l84 -27l2 -22q-3 -6 -13 -21.5t-13 -21.5l-82 -223l-27 -11l12 -34l-53 -176l-84 -238l-82 -270l-76 -217l-53 -183l-45 -139l-2 -47l-12 -35l-25 -10z" />
<glyph unicode="0" horiz-adv-x="907" d="M57 754l6 34l66 127l64 127l14 -2v-2l37 103l102 217l27 72l28 75l78 8l21 -4l151 -338l-2 -55l43 -35l80 -174l70 -125l-6 -65l-68 -119l-82 -186l-80 -136l-12 -59l-90 -227l-101 -13l-10 19l-22 59l-109 262l-86 175zM150 780l126 -297l-2 -30l43 -56l103 -231l35 -72 l65 137l76 125l59 125l88 211v-2l13 47l-19 37l-88 209l-155 328l-21 30l-27 56v-2l-24 -21v2l-39 -90l-45 -55l-4 -31l-144 -303zM387 764l31 39l18 41l15 6l34 -43l27 -41l2 -31l-29 -30l-28 -46l-11 -4l-34 43l-23 37z" />
<glyph unicode="1" horiz-adv-x="634" d="M51 1180l21 28l71 58l52 45l53 45v-2l55 59l90 105l21 8l51 -33l-12 -168l-15 -620l27 -594q0 -15 8 -31l8 -37l-6 -35l-31 -8h-86v61l29 447l-10 190l-6 72l16 127l-12 82v348q-6 4 -15.5 14.5t-15.5 14.5v2l-133 -129l-94 -133l-25 28z" />
<glyph unicode="2" horiz-adv-x="774" d="M66 1245l116 109l135 135l41 51l80 -18l80 -107l74 -96l106 -96l-8 -68l-166 -375l-37 -61l-34 -12l-19 -70l-39 -100l-92 -209l-39 -97l-45 -133l8 -10l209 -8l244 39l29 -17l-27 -92l-23 -14l-368 12l-146 -12l-26 -2l-27 59l55 144l261 516l53 129l88 168l22 55 l31 104l-92 121l-12 51h-37l-101 91l-67 -62l-76 -80l-29 -49l-36 -63l-66 30z" />
<glyph unicode="3" horiz-adv-x="733" d="M80 1479l16 49l64 -10l471 -17l10 -82l-266 -329l-21 -58l-53 -74l53 -69l60 -60l-4 -22h2l39 -6l55 -56l86 -88l65 -59l-8 -94l-110 -109l-181 -241l-106 -177l-37 -16l-74 80l56 63l45 33l65 68l148 196l104 150l-61 67l2 37h-2l-35 2l-154 177l-94 75v78l109 127 l55 90l149 203l-18 23l-182 8l-197 -25l-43 2z" />
<glyph unicode="4" horiz-adv-x="790" d="M74 369l61 170l232 698l82 266l8 19l20 2l78 -31l-31 -109l-121 -272l-32 -49l-37 -119v2l-78 -268l-18 -19l2 -32v-33l-45 -166l4 -18l8 -21v2l102 -8l133 4h113l27 21v36l14 50l-12 24l-11 144l-14 45l4 116l99 15l4 -60l-19 -252l4 -198l11 -217l2 -111l-54 -10l-49 8 l4 108l21 156l-2 37l-4 18v-2h-179l-153 2l-121 -12h-21z" />
<glyph unicode="5" horiz-adv-x="727" d="M117 63l53 56l51 45l78 61l131 158l117 166l-82 76l-8 34l-35 3l-184 161l-86 47l-25 15l-4 39l37 174l26 39l-22 14l22 186l2 90l-2 54l37 22l195 -2l180 8l16 -12l-4 -80l-14 -20l-49 6l-55 18h-132l-79 -4l-29 -106l-2 -41l-23 -266l-10 -56l131 -114l4 -17l43 -22 l66 -60l106 -82l76 -57l-2 -102l-111 -121l-168 -195l-120 -176l-47 -14z" />
<glyph unicode="6" horiz-adv-x="856" d="M57 418l9 82l88 143l59 137l51 78l21 72l149 338l29 39l55 149l37 70l104 -49l-18 -56l-72 -82l-204 -419l-80 -146l-39 -94l-31 -64l-59 -137l71 -92l39 -70l142 -131l73 -69l64 76l59 88l14 32l25 19l80 151l-107 97l-112 88v-2l-70 47l-2 53l10 12l60 33l92 -88 l92 -78l19 -29l43 -26l61 -43l10 -98l-96 -117l-57 -84l-43 -66l-50 -76l-73 -110l-45 4l-31 -4l-25 29l-108 135l-29 73v-2h-37z" />
<glyph unicode="7" horiz-adv-x="737" d="M74 1401l8 92l20 14l111 -10h281l122 4l29 2l27 -59l-66 -156l-184 -606v2l-141 -582l-19 -49q0 -4 -1 -13t-1 -13v-27l-6 -25l-107 19l-10 20l10 35l56 107l-17 16l54 184l110 306l19 43q-4 4 -4 10v16l10 39q2 20 10 59l12 60l29 102l121 416l-23 8v-2l-155 8l-39 15 l-58 -19l-161 -28z" />
<glyph unicode="8" horiz-adv-x="866" d="M80 344l4 111l92 82l115 114l98 117l-94 111l-47 49l-23 51l-35 4l-108 127l2 74l197 196l114 156l78 -12l8 -13l54 -73l34 -37l162 -170v2l41 -37l12 -80l-73 -86l-97 -96l-16 -29l-102 -117l102 -100l104 -125l80 -71l37 -31l8 -82l-112 -123l-76 -59v2l-90 -136 l-64 -88l-75 11l-115 145zM160 408l119 -113l2 -41l61 -29l55 -69l72 -60l111 92l90 109l45 72l20 34l-90 103l-160 166l-43 47l-106 -123l-82 -98l-27 -11v2zM164 1149l110 -143v2l27 -19l145 -162l162 193l19 10v-2l24 57l39 52l-78 88l-196 207l-74 -86l-45 -56l-29 -6z " />
<glyph unicode="9" horiz-adv-x="882" d="M70 1081l90 103l108 157l123 175h47l39 2l105 -144l172 -178l71 -70l4 -77l-104 -181l-59 -114l-76 -168l-88 -203l-160 -391l-113 47l21 47l123 193l28 86l39 22l-6 43l76 133v55l98 166q10 29 33.5 85t28.5 67l61 129l-92 96l4 35l-47 18l-117 127l-67 70l-154 -188 l-39 -35l-18 -60l-47 -75l120 -127l129 -103v2l84 -43l-47 -47l-37 -47l-122 123l-154 127l-53 53z" />
<glyph unicode=":" horiz-adv-x="264" d="M41 61l2 27l47 41q5 7 18.5 21.5t18.5 21.5l23 -2l20 -33l10 -31q2 0 8.5 2.5t8.5 2.5l26 -25v-23l-45 -36l-37 -54l-18 2l-14 21l2 12l2 -2l-4 6q-1 0 -7.5 2t-7.5 2zM41 813l2 27l47 41q5 7 18.5 21.5t18.5 21.5l23 -2l20 -33l10 -31q2 0 8.5 2t8.5 2l26 -24v-23 l-45 -37l-37 -53l-18 2l-14 21l2 12l2 -2l-4 6q-1 0 -7.5 2t-7.5 2z" />
<glyph unicode=";" horiz-adv-x="290" d="M0 -143l12 24l43 33l56 74l6 51l-6 2l-54 45l2 27l47 41q5 7 18.5 21.5t18.5 21.5l23 -2l20 -33l11 -31q2 0 8 2t8 2l27 -24v-23l-9 -8l-32 -66l-72 -108l-49 -72l-25 -16zM57 813l2 27l47 41q5 7 18.5 21.5t18.5 21.5l23 -2l20 -33l11 -31q2 0 8 2t8 2l27 -24v-23 l-45 -37l-37 -53l-19 2l-14 21l2 12l2 -2l-4 6q-1 0 -7 2t-7 2z" />
<glyph unicode="&#x3c;" horiz-adv-x="757" d="M45 774l27 4l37 29l94 61l96 52l51 18l80 63l94 60l66 51l55 29l45 -37l10 -66l-100 -39l-80 -30l-104 -64l-60 -18l-174 -125l-12 -21l201 -143l57 -23l174 -96l45 -12l64 -21l-23 -53l-31 -49l-28 4l-45 35l-29 29v-2l-229 131l-101 65h-32l-35 33v-2l-105 55l-4 13z " />
<glyph unicode="=" horiz-adv-x="757" d="M37 532l6 46q0 5 -2 18.5t-2 17.5l10 17l41 4l53 -14h181l38 -7l343 23l6 -96l-33 -17l-211 23q-5 0 -17.5 -2t-17.5 -2l-268 2l-60 -15l-47 -2zM37 856l2 35l-2 20l12 45l55 -8l250 -18l54 -10l129 12l77 4l60 16h47l-10 -88l-33 -16l-125 14l-33 6l-98 -12l-248 12 l-57 -12l-60 -4z" />
<glyph unicode="&#x3e;" horiz-adv-x="757" d="M57 1040l19 47l33 50l28 -4l53 -43l21 -19v2l209 -141l100 -60h35l33 -30v2l106 -56l4 -12l-2 -67l-22 -11l-74 -49l-55 -37l-99 -51l-51 -18l-80 -64l-71 -59l-68 -49l-55 -29l-45 37l-8 70l98 36l82 27l82 68l59 24l176 123l10 23l-200 135l-58 20l-153 96l-45 13z" />
<glyph unicode="?" horiz-adv-x="698" d="M41 1255l111 111l141 147h-2l31 43l81 -16l66 -104l-8 -31l67 -53l111 -117l-6 -74l-174 -225l-60 -90q-1 -6 -5 -17t-5 -14l12 -180l-22 -23q25 -51 27 -55l18 -57l-25 -54l-108 27l8 82q1 30 5 88.5t5 87.5l-6 107l35 36q3 4 27 40.5t38 54.5l70 63h-2l33 55l41 78 l-146 201h2l-61 57v-2l-39 11q-2 -1 -4.5 -2.5t-4.5 -3t-3 -1.5l-39 -30v2l-41 -39h2l-51 -78l-29 -90l-31 -4l-45 37zM272 63l7 23l47 49h-2l41 51l18 -4l25 -32l16 -31h4l35 -35l-4 -18l-43 -41h2l-43 -60l-21 8l-16 21l2 14l2 -2l-4 6q-1 0 -7 2t-7 2z" />
<glyph unicode="@" horiz-adv-x="1159" d="M-8 750l8 61l90 61l14 27l242 231l103 107l86 102l53 52l71 -7l166 -182l97 -98l2 2l172 -148l32 -32l-10 -62l-229 -192l-47 8l-6 -47l-82 -64l-97 -108l-59 8l-117 137l-22 37l-84 64l-27 30l4 47l56 41l26 29l72 64l84 94l57 6l37 -45h-2l115 -133l80 -76l104 92 l47 45l-59 57l2 33l-49 8l-91 91l-32 38l-127 117l-51 45l-138 -141l-256 -250l-20 14l-6 -28l-84 -105l-17 -16l31 -41l-2 -8l201 -207l8 -37l37 -8l215 -227l37 -21l67 49l137 129l181 185l37 -29l30 -45l-22 -29l-142 -115l-30 7l-2 -33l-111 -107l-121 -108l-82 -4 l-18 37l-252 262l-33 57l-26 29l-195 186zM446 752l13 -9l65 -77l4 -23l17 -4l88 -90l110 102l72 62l-119 131l-82 76l-12 -11z" />
<glyph unicode="A" horiz-adv-x="849" d="M78 25l53 223l21 125l26 33l-2 6v41l49 270l8 43l11 43v25l2 24l59 299l27 60l-13 12l13 86l14 90l21 113l110 -7l-6 -47l10 -28l8 -29l68 -315l-8 -35l4 -17l6 -18l119 -522v-37l55 -205l19 -139l34 -103l-69 -32h-12l-29 10l-27 211l21 18l-25 29l-10 74l-6 18l-6 55 l-25 74l-29 -4l-37 -6l-20 -2l-55 -35l-131 -39l-52 -16l-10 -4l-28 -11l2 -8l-31 -184l-2 -12v-78l-12 -88l-80 6zM254 453h27l10 2l45 2l2 6l2 8l139 45l60 19l26 12l25 12h-2l-10 16l-54 261l-16 112l-76 348l-10 41l-2 -37l-70 -325l-20 -33l6 -24l-43 -222l-25 -141 l-4 -20l-4 -21z" />
<glyph unicode="B" horiz-adv-x="802" d="M160 1487l119 47l274 -250l135 -110l21 -17l-7 -90l-120 -133l-179 -162l7 -8l67 -62l47 -38l207 -183l19 -20l-15 -94l-76 -82l-86 -72l-75 -57l-35 -31l-33 -29l-135 -127l-68 19l-65 14l18 260l-8 107v321l12 109l-8 237l-8 244l6 82l-6 24l-4 25zM248 338l20 -59 l-2 -144l13 -65h2l176 133l59 63l33 19l78 86l8 18l20 25l-43 45l-47 49l-55 55l-139 123l-58 43l4 70l168 157l25 2l29 54l82 88v8l-80 70l-49 49l-226 198h-4l-2 -14l-2 -135v-133l-8 -117l2 -63l2 -62l12 -24l-10 -148l8 -106l2 -273z" />
<glyph unicode="C" horiz-adv-x="675" d="M57 803l158 221l137 209l29 14l-6 29l104 180l21 4l12 37l25 31l81 -53l-40 -66l-64 -72l-22 -53l-183 -242l-71 -124l-39 -78l-52 -84l23 -43l20 -37l46 -62l26 -79l23 -5l65 -98l121 -188l43 -58l68 -82l32 -51l-61 -53l-33 -18l-37 49l-14 59l-20 12l-160 236l-8 43 l-86 104l-84 140l-48 63z" />
<glyph unicode="D" horiz-adv-x="794" d="M152 1499l61 19l31 14l43 -57l65 -82l19 -37l6 -6l26 -31l58 -82l6 -41l76 -80l188 -256l27 -24v-107l-29 -49l-94 -131l-33 -17h2l4 -12l6 -10l-120 -184l-74 -142l-141 -202l-27 10l-43 2l-43 2l8 106l8 498l-8 84l-8 573l6 56l-14 28l-4 113zM242 940l10 -86l12 -82 l-16 -420l2 -43l2 -65l8 -103l4 -24l4 2l68 100l33 41l49 80l31 37l112 190l82 119l37 78l-16 35l-23 32l-16 27l-56 90l-69 80l-119 166l-135 186l2 -28l2 -39l8 -146l2 -178z" />
<glyph unicode="E" horiz-adv-x="704" d="M152 39l8 78l4 88l4 92l8 47l-2 100l-2 107l14 31l-8 6l-14 209l6 80v167l2 170l-2 132l10 40l-10 7l-6 106l51 6h113l34 -6l115 6l137 2l2 -37l-6 -67h-39l-61 16l-33 -4l-127 10h-24l-25 2l-45 -8l4 -18l6 -19l2 -36l-4 -58l-4 -203l-14 -24l2 -119l8 -141l143 -2 l103 12l57 2l16 -16l-10 -45l-6 -41l-55 4l-195 10l-45 2l-14 -281l14 -61l-12 -41l10 -10l4 -219l2 -23l66 -14h33l180 14l55 10l45 -6l-8 -88l-14 -14l-119 2l-129 12h-101l-16 -10l-100 2z" />
<glyph unicode="F" horiz-adv-x="692" d="M156 2l8 150l14 147l-12 55l6 215l6 242v61l2 11l-8 374l10 54l-22 6l4 110l-6 76l53 2l82 -6h55l115 8l170 4v-49l-10 -57l-35 -2l-137 14l-76 4h-76l-29 -6l-14 -131l-14 -127l12 -39l8 -323h14l35 -2l148 6l121 14l6 -37l-6 -59l-9 -27l-22 2l-39 19l-23 -6l-233 12 v-53l2 -56l6 -90l-2 -180l16 -188l-4 -72l11 -29v-55l-25 -4z" />
<glyph unicode="G" horiz-adv-x="790" d="M63 698l5 111l8 2l12 18l66 101l75 108l56 78l65 78l21 63l114 152l2 14v13l64 94l61 -49l31 -19l-29 -43l-61 -67l-197 -265l-120 -155l-46 -101l-45 -65l111 -178l-6 -19l39 -30l96 -129l82 -138l92 -129l2 7l2 12l-6 123l8 51v299l-6 59l-6 29l-6 121l98 6l10 -19 l-22 -163l10 -13v-559l-12 -24l6 -11l6 -6l2 -61l-106 -8l-15 37l-10 18l-25 43l-86 117l-92 151l11 27h2l-39 12l-45 78l-70 80z" />
<glyph unicode="H" horiz-adv-x="956" d="M150 1489l22 24l98 -12l-8 -110l-14 -101l2 -153l-2 -88l14 -234l2 -57l172 57l31 -2l39 14l35 25h14l76 35l53 28l12 95l-6 207l-4 202l-8 70l8 18l47 -2l60 -4l2 -47l-13 -125l-10 -186l-8 -199l8 -104l4 -43l6 -396l4 -280l13 -60l2 -59l-21 -4h-86l-10 25l14 129 l11 47l-17 26v439l-10 28l-2 115l-182 -49h-11l-208 -86l-15 -6l2 -15l-12 -405l-2 -8l12 -119l10 -99l-4 -22l-30 -4l-86 8l2 53l8 252l20 307l-12 246l10 219l-14 135v9l-8 133l6 51l-8 41z" />
<glyph unicode="I" horiz-adv-x="444" d="M162 0l18 131v574l6 69l9 125l-17 66l-8 489l-6 57l37 11l82 -17l-7 -104l-10 -60l-6 -286l-6 -111l8 -100l4 -60l2 -39l2 -10v-608l4 -43l9 -41l-4 -35l-46 -12l-38 2z" />
<glyph unicode="J" horiz-adv-x="538" d="M41 25v55l65 24h-2l29 19l21 12l63 39l59 78l-6 41l9 225v107l-3 18l-2 127l13 123l-15 123l-10 383l-10 53v51l117 4l8 -22l-27 -182l8 -603l-14 -16l-4 -35l39 -409l-27 -47l-69 -46l-11 -20l-8 -25l-155 -141z" />
<glyph unicode="K" horiz-adv-x="851" d="M150 1501l96 12l28 -8l-24 -506l-8 -120l20 -148l-8 -397l8 -109l2 -108l4 -35l6 -31l-2 -53l-57 -4l-63 2l4 127l28 8h-2l-20 51l8 115l2 31l2 8l8 483l-6 64l-4 63l-10 275l4 176l-8 51zM272 756l25 59l43 78l22 20l25 54l125 213l109 209l51 131l90 -37l24 -27 l-65 -70l-57 -86l-97 -151l-18 -21l8 -10l-170 -293l-18 -51l28 -43l138 -266l90 -160l77 -133l3 -27h-3l31 -20l62 -86l-86 -62l-39 7l-56 131l-131 247l-4 31l-16 31l-53 96l2 31h-11l-8 -2l-71 123z" />
<glyph unicode="L" horiz-adv-x="665" d="M152 1499h55l63 10l11 -8l-2 -117l-9 -75l-10 -246l-14 -244v-102l2 -27l4 -176v-10l6 -113l-18 -8h2l16 -29l10 -155l2 -84l-10 -11l23 -20l219 4l51 16l61 9l9 -19l-11 -86l-16 -16l-147 10l-19 -2h-113l-24 4l-98 -8l-37 4v80l16 45l-12 63l16 363l-6 737l12 47 l-20 17z" />
<glyph unicode="M" horiz-adv-x="985" d="M145 27l13 77l2 62l2 10l16 17l-14 4l-2 61l12 872l-8 105l-8 96l10 41l-8 31l-8 33l-2 63l65 12l18 5l89 -156l116 -201l6 -6l21 -45l8 -23l10 -18l9 18l12 21l59 90l68 117l14 39l8 4h-2l45 80l47 82l58 -2l22 -19l-14 -280l-10 -60l8 -31l22 -970l5 -76l6 -82l-109 -4 l-12 12l4 53l14 148v260l11 31l-7 14l-14 104l14 478l-6 127l-2 118l-4 -4l-18 -32l-68 -99l-51 -84l-17 -37l-8 -14l-22 -37h2l-35 -74l-14 5l-49 10l-17 59l-24 37l-89 152l-28 53l-23 29l-24 32l-2 -2l8 -76v-53l2 -16l-6 -160l-8 -22l10 -11v-276l-15 -101l19 -262 l18 -321l-4 -35l-114 -4z" />
<glyph unicode="N" horiz-adv-x="960" d="M166 -2l10 119l-2 24v45l8 166l6 142l19 77l-8 15l-13 32l7 447l-7 135l-4 133l-10 97v69l96 27l181 -242l55 -96l18 -12l156 -213h6l8 12l-6 155l-2 152l-4 68l20 6h-2l-16 26l-2 121l72 2l41 -8l-5 -98l-24 -545l6 -166l18 -481l-4 -78l15 -117l-11 -20l-79 -2l-21 4 l6 119v90l-6 119l6 163l19 4l-11 48l-10 49l-2 178l-49 100l-27 58l-30 55l-66 86l-86 121l-49 61l-18 23l-52 65l-32 31l-7 -4l-2 -12v-187l-18 -129l2 -6l14 -33l-4 -493l8 -80l9 -78v-233l4 -33l-4 -82l-66 -4z" />
<glyph unicode="O" horiz-adv-x="866" d="M66 784l18 21l125 287l29 28l2 19v10l2 6l129 295l10 20l12 37l23 4l73 7l33 -95l121 -274l21 -76l14 -18h14l39 -101l82 -147l-6 -90l-100 -211l-80 -162l-117 -287l-23 -59l-16 -18l-86 12l-4 41l-86 192l-8 82h-31l-45 105l-41 90l-39 92l-53 119zM160 772l4 -8l8 -19 l25 -61l2 -6l51 -133l61 -129l74 -160l53 -137l4 2l17 10h-2l116 268l33 27l15 53l96 277l-8 24l-13 60l-16 14l-8 20l-21 37l-133 308l12 26h-8l-12 2l-64 135l-12 11l-2 -4l-2 -15l-31 -67l-129 -244l-26 -19h2l-6 -57l-76 -180l-2 -8v-11z" />
<glyph unicode="P" horiz-adv-x="747" d="M162 0l22 332l-10 51l2 549l17 35l-13 -2v325l-4 53l-4 43l-4 105l63 33l23 4l192 -182l21 -37l94 -76l150 -137l-6 -99l-72 -63l-39 -45l-41 -45l-45 -43l-64 -70l-57 -78l-104 -114l-25 -62l4 -153v-39l-16 -23h-2l18 -4l14 -260l-43 -4zM254 1143l2 -99l2 -49v-47 l4 -164l2 -26l-4 -82l6 -29l4 2l97 96l63 66l68 76l43 55l14 19l66 71l2 12v11l-56 55l-75 74l-29 26l-6 21l-27 6l-160 156l-4 -31z" />
<glyph unicode="Q" horiz-adv-x="882" d="M72 737l4 74l106 207l41 41l13 80l163 383l25 -4l74 10l155 -371l74 -149l-8 -15l22 -6l86 -194l-12 -86l-88 -162l-16 -39l-56 -129l-14 -10h2l-106 -267l-25 -39l-6 -34l-4 -37l30 -64l5 -32h12l84 -154l12 -25l-86 -55l-31 10l-84 219l-47 119l-53 111l-84 184l-18 72 h2l-21 10l-102 225l-29 84l-4 11zM166 784l8 -22l8 -23l2 -8l37 -98l39 -98l-6 -35h-2l35 -15l110 -258l43 -90l9 -20l4 2l170 338l112 297l-12 28l-27 70l-34 88l-31 88l-25 27l-160 344l-14 -10l-4 -9l-10 -12l-137 -276l-39 -97l-13 -30z" />
<glyph unicode="R" horiz-adv-x="811" d="M156 2l10 289l14 92v29l-2 30l-2 60l6 403l-18 438l-8 158l96 35l330 -301l43 -49l18 -4l70 -62l4 -96l-90 -113l-74 -73l-43 -68l-84 -96l53 -101l8 -36l58 -82l73 -125l7 -45l18 -17l29 -49l45 -88l63 -74l-8 -32l-94 -45l-21 38l-75 187l-29 53l-82 152l-20 49 l-78 123l-35 59l-8 37l164 194l92 111l35 72l6 10l-72 82l-18 14l-179 168l-18 35l-29 4l-53 41v-33l2 -33l-14 -235v-53l10 -35l4 -174l-10 -101l14 -180l-8 -180l8 -199l-14 -8h2l18 -37l2 -133l-39 -12z" />
<glyph unicode="S" horiz-adv-x="694" d="M104 934v113l121 141l58 78l59 84l49 71l25 33l43 74l24 4l76 -51l-24 -56l-82 -51l-11 -47l-139 -170l-55 -84l-51 -84l82 -92l40 -33l39 -24l207 -211l49 -39l-4 -105l-82 -110l-75 -92l-52 -74l-84 -115l-26 -51l-27 -49l-41 -31l-82 55l9 33l53 47l61 74l60 78l30 20 h-2l35 47l109 172l22 58l-88 100l-8 4l-94 107l-125 100l-49 37z" />
<glyph unicode="T" horiz-adv-x="716" d="M33 1405l14 108l168 -8l45 -2l25 -4h24l97 2l104 4l166 2l8 -49l-4 -61l-37 2l-18 8l-88 18h-129l-7 -77l-4 -74l-6 -201l2 -90l2 -25v-61l2 -168l-6 -96l-14 -12h2l10 -39l12 -37l5 -408l26 -119l-29 -18l-49 -6l-59 8v111l24 153l-6 15l-6 16l10 293l13 452l-15 107 l11 127l-9 51l-8 53v43h-110l-27 -8l-16 -2l-97 -18z" />
<glyph unicode="U" horiz-adv-x="948" d="M174 1475l10 30l103 -4l-2 -135l-9 -70v-106l3 -23v-34l-17 -89l2 -137l2 -22l6 -164l-18 -264l16 -264l9 -56l55 -45l35 -6l28 10l56 23l92 33h-2l10 6l72 41h-2l53 30l12 158l6 287l-8 135l-8 135l4 174l16 29l-6 2h2l-14 8l-8 246l4 98l59 2l45 -2l8 -53l-6 -94 l-22 -21l8 -20l10 -21l-14 -137l-6 -141v-45l-2 -58l14 -45l-6 -483l12 -258l21 -121l-97 -16l-10 55l-10 59l-25 25l-231 -107l-53 -30l-97 2l-92 80l-2 84l13 168l-3 294l-12 238l2 150l17 55l-13 78z" />
<glyph unicode="V" horiz-adv-x="843" d="M61 1485l45 24h72l21 -190l30 -133l-14 -6h2l29 -56l39 -323l61 -236l41 -235l27 -105l8 -49l4 -2l6 -2l39 188l39 193l25 145l22 68l33 213l28 223l29 33l-6 8v53l31 207l14 17l98 -17l-18 -61l-35 -146l-18 -73l-17 -70l-24 -182l-27 -180l-29 -58l2 -22l3 -11v-8 l-76 -325l-33 -234l-31 -139l-45 -4l-49 -2l-22 51l-52 309l-88 430l-26 78l-6 72l-46 170l-16 155z" />
<glyph unicode="W" horiz-adv-x="1042" d="M111 1507l51 6l37 7l34 -23l-6 -197l19 -129l6 -182l47 -715l8 -81h2l56 200l116 537l33 10l53 -14l13 -56l16 -125l78 -292l4 -43l20 -72l21 -64l20 -59l4 66l7 73l12 191l22 254l9 164l8 165l18 23v74l2 26l-4 197l6 70l88 -9l21 -8l-45 -344l-51 -653v-33l-2 -33 l-3 -65l-22 -277l-2 -12v-84l-45 -4l-43 -2l-6 45l-56 190l-10 39l-80 312l-6 12l-12 53l-29 121l-10 -47l-10 -53l-2 -19v-16l-4 -33l-21 -55l-67 -273v-26l-70 -221l-2 -11v-18l-31 -4h-8l-64 10v55l-6 70l-16 358l-14 199l14 61l-31 27l-35 502z" />
<glyph unicode="X" horiz-adv-x="823" d="M63 18l25 64l66 129l45 119l57 129h4l37 106l76 219l-39 97l-29 69l-24 68l-97 223l11 21l-27 22l-88 205l39 24l76 11l45 -174l49 -115l22 -90l6 -12l7 -17l26 -65l76 -177l51 121l55 127l25 86l70 176l14 68l14 70l19 4h8l82 -35l-68 -143l-14 -13h2v-30l-88 -199 l-98 -229l-33 -91l39 -133l67 -157l60 -181l22 -36l74 -175l27 -41l4 -49l-101 -32l-20 43v26l-49 137l2 50h2l-17 10l-159 424l-117 -305l-53 -131l-60 -220l-16 -34l-41 10z" />
<glyph unicode="Y" horiz-adv-x="800" d="M45 1460l6 33l62 16l43 9l22 -72l-4 -27l19 -22l20 -47l39 -97l24 -82l58 -159l26 -60l41 -108l7 -10l10 -7l4 13l12 24l2 8l13 31l22 45l37 105l31 100l41 84l45 166l18 76l8 43l56 -6l30 -15l23 -16l-45 -117l-25 -35l-24 -53l-25 -51l-41 -123l-84 -225l-72 -174v-127 l2 -80l3 -25v-55l-9 -166l9 -43l-3 -88l7 -57l6 -58l-19 -14l-100 4l4 61l21 150l6 27l-4 20l-9 291l4 104l-8 60l-6 43l-2 16l-51 131l-23 51l-63 160l-72 164l-6 37z" />
<glyph unicode="Z" horiz-adv-x="729" d="M88 76l96 256v45l90 221l64 231l100 304l17 20h2l-15 6l41 135l15 60l14 55h2l-12 8q-4 0 -17 -1t-20 -1h-105l-133 -8l-84 -18l-32 -7l-17 15l12 106l125 -4l17 -4h151l127 6l62 4h26l9 -45l4 -12q2 -3 6 -14.5t6 -14.5l-29 -16h2l-80 -184l-47 -170l-36 -142l-103 -278 l-63 -215l-1 -6q-1 -6 -1 -11v-12l-70 -307q6 1 19.5 5t19.5 5l254 2l129 29l12 -15v-41l-10 -65l-55 6h-156l-123 2l-104 -6h-82z" />
<glyph unicode="[" horiz-adv-x="509" d="M178 1622l8 18l66 2l125 -2l57 2h43l8 -16l-4 -63l-59 -2l-154 14q0 -13 -1 -40t-1 -40l-2 -295l8 -70l-8 -301l8 -41l-6 -186q0 -38 -1 -146.5t-1 -142.5l-20 -41l20 -24l8 -72l-8 -219q0 -7 1 -21.5t1 -21.5h86l82 8l45 4l10 -14l-2 -70l-225 6q-8 0 -29.5 -2t-29.5 -2 l-21 6l4 56l7 45l-9 174l13 182q0 85 -2 257.5t-2 258.5l-9 254l13 185l-13 311z" />
<glyph unicode="\" horiz-adv-x="667" d="M12 1534l2 22l84 27l27 -57l25 -82l65 -230l33 -84l90 -290l18 -39l54 -180l110 -336l-12 -37l24 -19l76 -184l9 -22.5t10 -24.5l20 -57l-80 -33l-24 10l-13 35l-2 47l-45 139l-53 183l-76 217l-82 270l-84 238l-53 176l12 34l-26 11l-82 223q-3 6 -13.5 21.5t-13.5 21.5 z" />
<glyph unicode="]" horiz-adv-x="505" d="M18 -88l9 14l47 -4l82 -8h86q0 7 1 21.5t1 21.5l-8 219l8 70q0 60 -1 178t-1 178l-6 186l8 41l-8 281l8 90v121l18 25q-2 3 -5.5 9.5t-6.5 11.5t-6 9l-2 119l-2 80l-154 -14l-59 2l-4 63l6 16h45l57 -2l125 2l66 -2l8 -18l-4 -49l-15 -311l15 -185l-11 -254 q0 -86 -2 -258.5t-2 -257.5l15 -182l-11 -174l9 -45l4 -56l-23 -6l-59 4l-226 -6z" />
<glyph unicode="^" d="M82 0v70l16 49l-12 65l10 365l-6 719l14 51l-14 18l-4 142l14 4l-10 28l402 -6l18 2h197l20 -4l98 8l29 -4l4 -69l-12 -47l6 -66l-12 -342l6 -743l-15 -52l23 -18l-2 -137l-2 -35l-90 -4l-398 8l-18 -2h-115l-24 4l-58 -8l-10 4l-33 -4zM137 360l25 -12v-162l2 7l-6 -125 l569 4h35l8 149l2 244l12 248v102l-2 27l-2 178v10l-6 109l25 10l-25 35l2 119l2 135l-602 -2l-2 -113l-2 -14l-8 -242l-12 -248v-102l2 -27l2 -178v-10l6 -109z" />
<glyph unicode="_" horiz-adv-x="1024" d="M29 -51l4 22l51 -4l51 -2l223 -2l17 -16l20 16l119 2l315 -6l45 4l44 6l86 8l-3 -75l-30 -15l-127 4l-72 3l-92 -7l-539 7l-43 -9l-47 -8l-20 6l2 37z" />
<glyph unicode="`" horiz-adv-x="319" d="M41 1765l8 17l78 26l14 -12l86 -123l52 -57l-3 -14l-55 -15l-12 12l-35 39l-90 80z" />
<glyph unicode="a" horiz-adv-x="849" d="M78 25l53 223l21 125l26 33l-2 6v41l49 270l8 43l11 43v25l2 24l59 299l27 60l-13 12l13 86l14 90l21 113l110 -7l-6 -47l10 -28l8 -29l68 -315l-8 -35l4 -17l6 -18l119 -522v-37l55 -205l19 -139l34 -103l-69 -32h-12l-29 10l-27 211l21 18l-25 29l-10 74l-6 18l-6 55 l-25 74l-29 -4l-37 -6l-20 -2l-55 -35l-131 -39l-52 -16l-10 -4l-28 -11l2 -8l-31 -184l-2 -12v-78l-12 -88l-80 6zM254 453h27l10 2l45 2l2 6l2 8l139 45l60 19l26 12l25 12h-2l-10 16l-54 261l-16 112l-76 348l-10 41l-2 -37l-70 -325l-20 -33l6 -24l-43 -222l-25 -141 l-4 -20l-4 -21z" />
<glyph unicode="b" horiz-adv-x="802" d="M160 1487l119 47l274 -250l135 -110l21 -17l-7 -90l-120 -133l-179 -162l7 -8l67 -62l47 -38l207 -183l19 -20l-15 -94l-76 -82l-86 -72l-75 -57l-35 -31l-33 -29l-135 -127l-68 19l-65 14l18 260l-8 107v321l12 109l-8 237l-8 244l6 82l-6 24l-4 25zM248 338l20 -59 l-2 -144l13 -65h2l176 133l59 63l33 19l78 86l8 18l20 25l-43 45l-47 49l-55 55l-139 123l-58 43l4 70l168 157l25 2l29 54l82 88v8l-80 70l-49 49l-226 198h-4l-2 -14l-2 -135v-133l-8 -117l2 -63l2 -62l12 -24l-10 -148l8 -106l2 -273z" />
<glyph unicode="c" horiz-adv-x="675" d="M57 803l158 221l137 209l29 14l-6 29l104 180l21 4l12 37l25 31l81 -53l-40 -66l-64 -72l-22 -53l-183 -242l-71 -124l-39 -78l-52 -84l23 -43l20 -37l46 -62l26 -79l23 -5l65 -98l121 -188l43 -58l68 -82l32 -51l-61 -53l-33 -18l-37 49l-14 59l-20 12l-160 236l-8 43 l-86 104l-84 140l-48 63z" />
<glyph unicode="d" horiz-adv-x="794" d="M152 1499l61 19l31 14l43 -57l65 -82l19 -37l6 -6l26 -31l58 -82l6 -41l76 -80l188 -256l27 -24v-107l-29 -49l-94 -131l-33 -17h2l4 -12l6 -10l-120 -184l-74 -142l-141 -202l-27 10l-43 2l-43 2l8 106l8 498l-8 84l-8 573l6 56l-14 28l-4 113zM242 940l10 -86l12 -82 l-16 -420l2 -43l2 -65l8 -103l4 -24l4 2l68 100l33 41l49 80l31 37l112 190l82 119l37 78l-16 35l-23 32l-16 27l-56 90l-69 80l-119 166l-135 186l2 -28l2 -39l8 -146l2 -178z" />
<glyph unicode="e" horiz-adv-x="704" d="M152 39l8 78l4 88l4 92l8 47l-2 100l-2 107l14 31l-8 6l-14 209l6 80v167l2 170l-2 132l10 40l-10 7l-6 106l51 6h113l34 -6l115 6l137 2l2 -37l-6 -67h-39l-61 16l-33 -4l-127 10h-24l-25 2l-45 -8l4 -18l6 -19l2 -36l-4 -58l-4 -203l-14 -24l2 -119l8 -141l143 -2 l103 12l57 2l16 -16l-10 -45l-6 -41l-55 4l-195 10l-45 2l-14 -281l14 -61l-12 -41l10 -10l4 -219l2 -23l66 -14h33l180 14l55 10l45 -6l-8 -88l-14 -14l-119 2l-129 12h-101l-16 -10l-100 2z" />
<glyph unicode="f" horiz-adv-x="692" d="M156 2l8 150l14 147l-12 55l6 215l6 242v61l2 11l-8 374l10 54l-22 6l4 110l-6 76l53 2l82 -6h55l115 8l170 4v-49l-10 -57l-35 -2l-137 14l-76 4h-76l-29 -6l-14 -131l-14 -127l12 -39l8 -323h14l35 -2l148 6l121 14l6 -37l-6 -59l-9 -27l-22 2l-39 19l-23 -6l-233 12 v-53l2 -56l6 -90l-2 -180l16 -188l-4 -72l11 -29v-55l-25 -4z" />
<glyph unicode="g" horiz-adv-x="790" d="M63 698l5 111l8 2l12 18l66 101l75 108l56 78l65 78l21 63l114 152l2 14v13l64 94l61 -49l31 -19l-29 -43l-61 -67l-197 -265l-120 -155l-46 -101l-45 -65l111 -178l-6 -19l39 -30l96 -129l82 -138l92 -129l2 7l2 12l-6 123l8 51v299l-6 59l-6 29l-6 121l98 6l10 -19 l-22 -163l10 -13v-559l-12 -24l6 -11l6 -6l2 -61l-106 -8l-15 37l-10 18l-25 43l-86 117l-92 151l11 27h2l-39 12l-45 78l-70 80z" />
<glyph unicode="h" horiz-adv-x="956" d="M150 1489l22 24l98 -12l-8 -110l-14 -101l2 -153l-2 -88l14 -234l2 -57l172 57l31 -2l39 14l35 25h14l76 35l53 28l12 95l-6 207l-4 202l-8 70l8 18l47 -2l60 -4l2 -47l-13 -125l-10 -186l-8 -199l8 -104l4 -43l6 -396l4 -280l13 -60l2 -59l-21 -4h-86l-10 25l14 129 l11 47l-17 26v439l-10 28l-2 115l-182 -49h-11l-208 -86l-15 -6l2 -15l-12 -405l-2 -8l12 -119l10 -99l-4 -22l-30 -4l-86 8l2 53l8 252l20 307l-12 246l10 219l-14 135v9l-8 133l6 51l-8 41z" />
<glyph unicode="i" horiz-adv-x="444" d="M162 0l18 131v574l6 69l9 125l-17 66l-8 489l-6 57l37 11l82 -17l-7 -104l-10 -60l-6 -286l-6 -111l8 -100l4 -60l2 -39l2 -10v-608l4 -43l9 -41l-4 -35l-46 -12l-38 2z" />
<glyph unicode="j" horiz-adv-x="538" d="M41 25v55l65 24h-2l29 19l21 12l63 39l59 78l-6 41l9 225v107l-3 18l-2 127l13 123l-15 123l-10 383l-10 53v51l117 4l8 -22l-27 -182l8 -603l-14 -16l-4 -35l39 -409l-27 -47l-69 -46l-11 -20l-8 -25l-155 -141z" />
<glyph unicode="k" horiz-adv-x="851" d="M150 1501l96 12l28 -8l-24 -506l-8 -120l20 -148l-8 -397l8 -109l2 -108l4 -35l6 -31l-2 -53l-57 -4l-63 2l4 127l28 8h-2l-20 51l8 115l2 31l2 8l8 483l-6 64l-4 63l-10 275l4 176l-8 51zM272 756l25 59l43 78l22 20l25 54l125 213l109 209l51 131l90 -37l24 -27 l-65 -70l-57 -86l-97 -151l-18 -21l8 -10l-170 -293l-18 -51l28 -43l138 -266l90 -160l77 -133l3 -27h-3l31 -20l62 -86l-86 -62l-39 7l-56 131l-131 247l-4 31l-16 31l-53 96l2 31h-11l-8 -2l-71 123z" />
<glyph unicode="l" horiz-adv-x="665" d="M152 1499h55l63 10l11 -8l-2 -117l-9 -75l-10 -246l-14 -244v-102l2 -27l4 -176v-10l6 -113l-18 -8h2l16 -29l10 -155l2 -84l-10 -11l23 -20l219 4l51 16l61 9l9 -19l-11 -86l-16 -16l-147 10l-19 -2h-113l-24 4l-98 -8l-37 4v80l16 45l-12 63l16 363l-6 737l12 47 l-20 17z" />
<glyph unicode="m" horiz-adv-x="985" d="M145 27l13 77l2 62l2 10l16 17l-14 4l-2 61l12 872l-8 105l-8 96l10 41l-8 31l-8 33l-2 63l65 12l18 5l89 -156l116 -201l6 -6l21 -45l8 -23l10 -18l9 18l12 21l59 90l68 117l14 39l8 4h-2l45 80l47 82l58 -2l22 -19l-14 -280l-10 -60l8 -31l22 -970l5 -76l6 -82l-109 -4 l-12 12l4 53l14 148v260l11 31l-7 14l-14 104l14 478l-6 127l-2 118l-4 -4l-18 -32l-68 -99l-51 -84l-17 -37l-8 -14l-22 -37h2l-35 -74l-14 5l-49 10l-17 59l-24 37l-89 152l-28 53l-23 29l-24 32l-2 -2l8 -76v-53l2 -16l-6 -160l-8 -22l10 -11v-276l-15 -101l19 -262 l18 -321l-4 -35l-114 -4z" />
<glyph unicode="n" horiz-adv-x="960" d="M166 -2l10 119l-2 24v45l8 166l6 142l19 77l-8 15l-13 32l7 447l-7 135l-4 133l-10 97v69l96 27l181 -242l55 -96l18 -12l156 -213h6l8 12l-6 155l-2 152l-4 68l20 6h-2l-16 26l-2 121l72 2l41 -8l-5 -98l-24 -545l6 -166l18 -481l-4 -78l15 -117l-11 -20l-79 -2l-21 4 l6 119v90l-6 119l6 163l19 4l-11 48l-10 49l-2 178l-49 100l-27 58l-30 55l-66 86l-86 121l-49 61l-18 23l-52 65l-32 31l-7 -4l-2 -12v-187l-18 -129l2 -6l14 -33l-4 -493l8 -80l9 -78v-233l4 -33l-4 -82l-66 -4z" />
<glyph unicode="o" horiz-adv-x="866" d="M66 784l18 21l125 287l29 28l2 19v10l2 6l129 295l10 20l12 37l23 4l73 7l33 -95l121 -274l21 -76l14 -18h14l39 -101l82 -147l-6 -90l-100 -211l-80 -162l-117 -287l-23 -59l-16 -18l-86 12l-4 41l-86 192l-8 82h-31l-45 105l-41 90l-39 92l-53 119zM160 772l4 -8l8 -19 l25 -61l2 -6l51 -133l61 -129l74 -160l53 -137l4 2l17 10h-2l116 268l33 27l15 53l96 277l-8 24l-13 60l-16 14l-8 20l-21 37l-133 308l12 26h-8l-12 2l-64 135l-12 11l-2 -4l-2 -15l-31 -67l-129 -244l-26 -19h2l-6 -57l-76 -180l-2 -8v-11z" />
<glyph unicode="p" horiz-adv-x="747" d="M162 0l22 332l-10 51l2 549l17 35l-13 -2v325l-4 53l-4 43l-4 105l63 33l23 4l192 -182l21 -37l94 -76l150 -137l-6 -99l-72 -63l-39 -45l-41 -45l-45 -43l-64 -70l-57 -78l-104 -114l-25 -62l4 -153v-39l-16 -23h-2l18 -4l14 -260l-43 -4zM254 1143l2 -99l2 -49v-47 l4 -164l2 -26l-4 -82l6 -29l4 2l97 96l63 66l68 76l43 55l14 19l66 71l2 12v11l-56 55l-75 74l-29 26l-6 21l-27 6l-160 156l-4 -31z" />
<glyph unicode="q" horiz-adv-x="882" d="M72 737l4 74l106 207l41 41l13 80l163 383l25 -4l74 10l155 -371l74 -149l-8 -15l22 -6l86 -194l-12 -86l-88 -162l-16 -39l-56 -129l-14 -10h2l-106 -267l-25 -39l-6 -34l-4 -37l30 -64l5 -32h12l84 -154l12 -25l-86 -55l-31 10l-84 219l-47 119l-53 111l-84 184l-18 72 h2l-21 10l-102 225l-29 84l-4 11zM166 784l8 -22l8 -23l2 -8l37 -98l39 -98l-6 -35h-2l35 -15l110 -258l43 -90l9 -20l4 2l170 338l112 297l-12 28l-27 70l-34 88l-31 88l-25 27l-160 344l-14 -10l-4 -9l-10 -12l-137 -276l-39 -97l-13 -30z" />
<glyph unicode="r" horiz-adv-x="811" d="M156 2l10 289l14 92v29l-2 30l-2 60l6 403l-18 438l-8 158l96 35l330 -301l43 -49l18 -4l70 -62l4 -96l-90 -113l-74 -73l-43 -68l-84 -96l53 -101l8 -36l58 -82l73 -125l7 -45l18 -17l29 -49l45 -88l63 -74l-8 -32l-94 -45l-21 38l-75 187l-29 53l-82 152l-20 49 l-78 123l-35 59l-8 37l164 194l92 111l35 72l6 10l-72 82l-18 14l-179 168l-18 35l-29 4l-53 41v-33l2 -33l-14 -235v-53l10 -35l4 -174l-10 -101l14 -180l-8 -180l8 -199l-14 -8h2l18 -37l2 -133l-39 -12z" />
<glyph unicode="s" horiz-adv-x="694" d="M104 934v113l121 141l58 78l59 84l49 71l25 33l43 74l24 4l76 -51l-24 -56l-82 -51l-11 -47l-139 -170l-55 -84l-51 -84l82 -92l40 -33l39 -24l207 -211l49 -39l-4 -105l-82 -110l-75 -92l-52 -74l-84 -115l-26 -51l-27 -49l-41 -31l-82 55l9 33l53 47l61 74l60 78l30 20 h-2l35 47l109 172l22 58l-88 100l-8 4l-94 107l-125 100l-49 37z" />
<glyph unicode="t" horiz-adv-x="716" d="M33 1405l14 108l168 -8l45 -2l25 -4h24l97 2l104 4l166 2l8 -49l-4 -61l-37 2l-18 8l-88 18h-129l-7 -77l-4 -74l-6 -201l2 -90l2 -25v-61l2 -168l-6 -96l-14 -12h2l10 -39l12 -37l5 -408l26 -119l-29 -18l-49 -6l-59 8v111l24 153l-6 15l-6 16l10 293l13 452l-15 107 l11 127l-9 51l-8 53v43h-110l-27 -8l-16 -2l-97 -18z" />
<glyph unicode="u" horiz-adv-x="948" d="M174 1475l10 30l103 -4l-2 -135l-9 -70v-106l3 -23v-34l-17 -89l2 -137l2 -22l6 -164l-18 -264l16 -264l9 -56l55 -45l35 -6l28 10l56 23l92 33h-2l10 6l72 41h-2l53 30l12 158l6 287l-8 135l-8 135l4 174l16 29l-6 2h2l-14 8l-8 246l4 98l59 2l45 -2l8 -53l-6 -94 l-22 -21l8 -20l10 -21l-14 -137l-6 -141v-45l-2 -58l14 -45l-6 -483l12 -258l21 -121l-97 -16l-10 55l-10 59l-25 25l-231 -107l-53 -30l-97 2l-92 80l-2 84l13 168l-3 294l-12 238l2 150l17 55l-13 78z" />
<glyph unicode="v" horiz-adv-x="843" d="M61 1485l45 24h72l21 -190l30 -133l-14 -6h2l29 -56l39 -323l61 -236l41 -235l27 -105l8 -49l4 -2l6 -2l39 188l39 193l25 145l22 68l33 213l28 223l29 33l-6 8v53l31 207l14 17l98 -17l-18 -61l-35 -146l-18 -73l-17 -70l-24 -182l-27 -180l-29 -58l2 -22l3 -11v-8 l-76 -325l-33 -234l-31 -139l-45 -4l-49 -2l-22 51l-52 309l-88 430l-26 78l-6 72l-46 170l-16 155z" />
<glyph unicode="w" horiz-adv-x="1042" d="M111 1507l51 6l37 7l34 -23l-6 -197l19 -129l6 -182l47 -715l8 -81h2l56 200l116 537l33 10l53 -14l13 -56l16 -125l78 -292l4 -43l20 -72l21 -64l20 -59l4 66l7 73l12 191l22 254l9 164l8 165l18 23v74l2 26l-4 197l6 70l88 -9l21 -8l-45 -344l-51 -653v-33l-2 -33 l-3 -65l-22 -277l-2 -12v-84l-45 -4l-43 -2l-6 45l-56 190l-10 39l-80 312l-6 12l-12 53l-29 121l-10 -47l-10 -53l-2 -19v-16l-4 -33l-21 -55l-67 -273v-26l-70 -221l-2 -11v-18l-31 -4h-8l-64 10v55l-6 70l-16 358l-14 199l14 61l-31 27l-35 502z" />
<glyph unicode="x" horiz-adv-x="823" d="M63 18l25 64l66 129l45 119l57 129h4l37 106l76 219l-39 97l-29 69l-24 68l-97 223l11 21l-27 22l-88 205l39 24l76 11l45 -174l49 -115l22 -90l6 -12l7 -17l26 -65l76 -177l51 121l55 127l25 86l70 176l14 68l14 70l19 4h8l82 -35l-68 -143l-14 -13h2v-30l-88 -199 l-98 -229l-33 -91l39 -133l67 -157l60 -181l22 -36l74 -175l27 -41l4 -49l-101 -32l-20 43v26l-49 137l2 50h2l-17 10l-159 424l-117 -305l-53 -131l-60 -220l-16 -34l-41 10z" />
<glyph unicode="y" horiz-adv-x="800" d="M45 1460l6 33l62 16l43 9l22 -72l-4 -27l19 -22l20 -47l39 -97l24 -82l58 -159l26 -60l41 -108l7 -10l10 -7l4 13l12 24l2 8l13 31l22 45l37 105l31 100l41 84l45 166l18 76l8 43l56 -6l30 -15l23 -16l-45 -117l-25 -35l-24 -53l-25 -51l-41 -123l-84 -225l-72 -174v-127 l2 -80l3 -25v-55l-9 -166l9 -43l-3 -88l7 -57l6 -58l-19 -14l-100 4l4 61l21 150l6 27l-4 20l-9 291l4 104l-8 60l-6 43l-2 16l-51 131l-23 51l-63 160l-72 164l-6 37z" />
<glyph unicode="z" horiz-adv-x="729" d="M88 76l96 256v45l90 221l64 231l100 304l17 20h2l-15 6l41 135l15 60l14 55h2l-12 8q-4 0 -17 -1t-20 -1h-105l-133 -8l-84 -18l-32 -7l-17 15l12 106l125 -4l17 -4h151l127 6l62 4h26l9 -45l4 -12q2 -3 6 -14.5t6 -14.5l-29 -16h2l-80 -184l-47 -170l-36 -142l-103 -278 l-63 -215l-1 -6q-1 -6 -1 -11v-12l-70 -307q6 1 19.5 5t19.5 5l254 2l129 29l12 -15v-41l-10 -65l-55 6h-156l-123 2l-104 -6h-82z" />
<glyph unicode="{" horiz-adv-x="514" d="M57 719l2 88l91 49l20 -14l-4 22l92 62l-45 368l18 27l-24 16l-25 156l19 39l166 78l94 49l24 -17l17 -73l-123 -35l-103 -49l-2 -72l48 -401l18 -72l6 -47l-205 -129l27 -21l131 -77l55 -43l-57 -285l-25 -47l13 -41l-13 -176l2 -43l224 -107l10 -14l-43 -82l-201 131 l-80 25l-14 41l6 45l14 55l70 467l-88 65z" />
<glyph unicode="|" horiz-adv-x="419" d="M150 -162l8 41l4 43v123l18 37l-18 12l4 641l20 13l-16 36v60l8 100l-6 213l-6 287l-10 59l-6 115l81 6l37 -10l-6 -101l-18 -20l18 -23l-8 -505l-12 -66l4 -125l6 -69v-779l18 -131l-32 -2l-56 -6l-28 12z" />
<glyph unicode="}" horiz-adv-x="516" d="M20 -82l125 37l103 63q0 15 1 37t1 35l-43 397l-19 93l-6 47l201 129l-27 20l-131 80l-55 41l57 285l25 47l-12 43l16 153q0 7 -1 21.5t-1 21.5l-223 93l-11 14l41 78l203 -113l78 -35l12 -41l-10 -41l-10 -53l-70 -442l88 -64l115 -63l-2 -88l-88 -43l-23 8l4 -21 l-92 -63l45 -385l-18 -27l24 -16l27 -156l-18 -39l-172 -92l-82 -51l-25 16z" />
<glyph unicode="~" d="M82 0v70l16 49l-12 65l10 365l-6 719l14 51l-14 18l-4 142l14 4l-10 28l402 -6l18 2h197l20 -4l98 8l29 -4l4 -69l-12 -47l6 -66l-12 -342l6 -743l-15 -52l23 -18l-2 -137l-2 -35l-90 -4l-398 8l-18 -2h-115l-24 4l-58 -8l-10 4l-33 -4zM137 360l25 -12v-162l2 7l-6 -125 l569 4h35l8 149l2 244l12 248v102l-2 27l-2 178v10l-6 109l25 10l-25 35l2 119l2 135l-602 -2l-2 -113l-2 -14l-8 -242l-12 -248v-102l2 -27l2 -178v-10l6 -109z" />
<glyph unicode="&#xa1;" horiz-adv-x="434" d="M121 1427l53 46q1 0 7 2t7 2l5 6l-3 -2l-2 12l15 20l18 3l37 -54l45 -37v-22l-27 -25q-2 0 -8 2t-8 2l-10 -30l-21 -33l-22 -2q-5 7 -18.5 21.5t-18.5 21.5l-47 41zM152 6l4 51l2 62l30 33l-28 26l12 301l8 101l-4 125l6 53l-8 18q0 20 1 61t1 62l-14 96l6 37h49l41 -26 l-12 -261l6 -217l-12 -39l18 -73l14 -254l-8 -41l12 -17l9 -102l-101 -8z" />
<glyph unicode="&#xa2;" horiz-adv-x="718" d="M25 696l4 111l88 82l114 131l105 119l8 2v37l4 192l-10 47l-6 92l76 4l38 -8l-6 -78l-14 -18l14 -8l-12 -242l16 4l-2 -2l80 -82l76 -49l-6 -43l-37 -41h-20l-82 86l-39 31h-54l-84 -96l-81 -109l-27 -14v2l-43 -98l96 -115v-41l62 -39l55 -70l72 -55l79 45l46 51l34 -2 l35 -51l-14 -27l-98 -53l-48 -59v-240l19 -108h-35l-55 -7l-31 11l-4 32l8 33l4 35v90l21 31l-21 10v98l-114 150z" />
<glyph unicode="&#xa3;" horiz-adv-x="649" d="M-2 74l121 71l71 -16l-2 59l7 363l-2 180h-70l-23 -4q-28 -8 -45 -8l-26 4l4 31v16q0 3 -1 9t-1 9v19l12 4q7 0 17 1t17 1t13 -2q5 -2 8.5 -4t7 -3t11.5 -1l76 -2l-5 434l45 80l166 186l90 6l117 -18l-8 -76l-16 -27l-64 27l-69 12l-87 -84l-79 -120l-7 -158l-8 -244v-16 l150 4l76 8l10 -14l-10 -70l-31 -16l-176 14h-19v-12l2 -27l-2 -176v-10l6 -113l-18 -8h2l16 -29l11 -155l2 -66l-11 -10l23 -21l201 -24l49 33l45 26l12 -18l25 -51l-17 -17l-104 -53l-64 2l9 -2l-222 53l-96 19l-80 -76l-43 16z" />
<glyph unicode="&#xa4;" d="M82 0v70l16 49l-12 65l10 365l-6 719l14 51l-14 18l-4 142l14 4l-10 28l402 -6l18 2h197l20 -4l98 8l29 -4l4 -69l-12 -47l6 -66l-12 -342l6 -743l-15 -52l23 -18l-2 -137l-2 -35l-90 -4l-398 8l-18 -2h-115l-24 4l-58 -8l-10 4l-33 -4zM137 360l25 -12v-162l2 7l-6 -125 l569 4h35l8 149l2 244l12 248v102l-2 27l-2 178v10l-6 109l25 10l-25 35l2 119l2 135l-602 -2l-2 -113l-2 -14l-8 -242l-12 -248v-102l2 -27l2 -178v-10l6 -109z" />
<glyph unicode="&#xa5;" horiz-adv-x="800" d="M45 1460l6 33l62 16l43 9l22 -72l-4 -27l19 -22l20 -47l39 -97l24 -82l58 -159l26 -60l41 -108l7 -10l10 -7l4 13l12 24l2 8l13 31l22 45l37 105l31 100l41 84l45 166l18 76l8 43l56 -6l30 -15l23 -16l-45 -117l-25 -35l-24 -53l-25 -51l-41 -123l-84 -225l-72 -174v-25 l250 18l6 -96l-32 -16l-191 22q-5 0 -16.5 -2t-16.5 -2v-26l2 -80l3 -25v-55l-3 -10l101 10l57 4l60 16h47l-11 -88l-32 -16l-105 14l-33 6l-86 -10l-4 -92l9 -43l-3 -88l13 -115l-19 -14l-100 4l4 61l21 150l6 27l-4 20l-2 92l-140 8l-57 -12l-59 -4l-21 4l2 35l-2 20 l12 45l56 -8l206 -18l-4 129l2 59l-145 2l-59 -14l-47 -2l-21 4l6 45q0 5 -2 19t-2 18l10 16l41 4l54 -14h139l24 -4l-4 31l-6 43l-2 16l-51 131l-23 51l-63 160l-72 164l-6 37z" />
<glyph unicode="&#xa6;" horiz-adv-x="417" d="M150 -162l8 41l4 43v123l18 37l-18 12l12 408l-8 104l-4 72l65 12l29 -12l-8 -68l-10 -16l8 -14l-6 -140l12 -514l16 -129l-30 -4l-56 -6l-28 12zM150 1618l81 6l37 -10l-6 -117l-14 -20l14 -11l-14 -313l-6 -188l6 -66l-4 -29l-45 -8l-31 12l8 70l4 213l-14 270l-10 60z " />
<glyph unicode="&#xa7;" d="M82 0v70l16 49l-12 65l10 365l-6 719l14 51l-14 18l-4 142l14 4l-10 28l402 -6l18 2h197l20 -4l98 8l29 -4l4 -69l-12 -47l6 -66l-12 -342l6 -743l-15 -52l23 -18l-2 -137l-2 -35l-90 -4l-398 8l-18 -2h-115l-24 4l-58 -8l-10 4l-33 -4zM137 360l25 -12v-162l2 7l-6 -125 l569 4h35l8 149l2 244l12 248v102l-2 27l-2 178v10l-6 109l25 10l-25 35l2 119l2 135l-602 -2l-2 -113l-2 -14l-8 -242l-12 -248v-102l2 -27l2 -178v-10l6 -109z" />
<glyph unicode="&#xa8;" horiz-adv-x="450" d="M41 1669l4 25l70 61l18 -2l51 -57l11 -19l-39 -39l-29 -36l-23 8l-28 28zM258 1679l39 39l25 37l26 -6l31 -31l31 -26l-4 -27l-70 -63l-19 4l-51 57z" />
<glyph unicode="&#xa9;" d="M82 0v70l16 49l-12 65l10 365l-6 719l14 51l-14 18l-4 142l14 4l-10 28l402 -6l18 2h197l20 -4l98 8l29 -4l4 -69l-12 -47l6 -66l-12 -342l6 -743l-15 -52l23 -18l-2 -137l-2 -35l-90 -4l-398 8l-18 -2h-115l-24 4l-58 -8l-10 4l-33 -4zM137 360l25 -12v-162l2 7l-6 -125 l569 4h35l8 149l2 244l12 248v102l-2 27l-2 178v10l-6 109l25 10l-25 35l2 119l2 135l-602 -2l-2 -113l-2 -14l-8 -242l-12 -248v-102l2 -27l2 -178v-10l6 -109z" />
<glyph unicode="&#xaa;" d="M82 0v70l16 49l-12 65l10 365l-6 719l14 51l-14 18l-4 142l14 4l-10 28l402 -6l18 2h197l20 -4l98 8l29 -4l4 -69l-12 -47l6 -66l-12 -342l6 -743l-15 -52l23 -18l-2 -137l-2 -35l-90 -4l-398 8l-18 -2h-115l-24 4l-58 -8l-10 4l-33 -4zM137 360l25 -12v-162l2 7l-6 -125 l569 4h35l8 149l2 244l12 248v102l-2 27l-2 178v10l-6 109l25 10l-25 35l2 119l2 135l-602 -2l-2 -113l-2 -14l-8 -242l-12 -248v-102l2 -27l2 -178v-10l6 -109z" />
<glyph unicode="&#xab;" horiz-adv-x="768" d="M39 676v63l65 70l54 33l-4 18l39 39l90 98l-4 2l63 74l57 -39l15 -24l-78 -76l-39 -29l-59 -67l-115 -125l121 -144l18 -16l103 -96l45 -37l-25 -49l-45 -31l-41 47l-8 23v28l-70 47l-51 70l-18 4l-103 107zM336 676v63l65 70l54 33l-4 18l38 39l91 98l-5 2l64 74l57 -39 l15 -24l-78 -76l-39 -29l-59 -67l-115 -125l121 -144l18 -16l103 -96l45 -37l-25 -49l-45 -31l-41 47l-8 23v28l-70 47l-51 70l-18 4l-103 107z" />
<glyph unicode="&#xac;" horiz-adv-x="757" d="M35 809l20 22l51 -12q7 0 27.5 -1t26.5 -1h233l148 -8q14 1 46 5t48 5l74 8l14 -28l-6 -172q0 -27 2 -84.5t2 -85.5l2 -74l-96 6v74l20 63q0 22 -2 79t-2 79l-16 45l-70 14l-78 7l-53 -15l-256 10l-49 -14l-60 -14l-20 4z" />
<glyph unicode="&#xad;" horiz-adv-x="540" d="M66 721l4 35l-2 57l12 4l47 -4l47 -6l94 -2l127 6l72 10l10 -14l2 -74l-28 -14l-113 10l-158 2l-43 -6l-45 -8z" />
<glyph unicode="&#xae;" d="M82 0v70l16 49l-12 65l10 365l-6 719l14 51l-14 18l-4 142l14 4l-10 28l402 -6l18 2h197l20 -4l98 8l29 -4l4 -69l-12 -47l6 -66l-12 -342l6 -743l-15 -52l23 -18l-2 -137l-2 -35l-90 -4l-398 8l-18 -2h-115l-24 4l-58 -8l-10 4l-33 -4zM137 360l25 -12v-162l2 7l-6 -125 l569 4h35l8 149l2 244l12 248v102l-2 27l-2 178v10l-6 109l25 10l-25 35l2 119l2 135l-602 -2l-2 -113l-2 -14l-8 -242l-12 -248v-102l2 -27l2 -178v-10l6 -109z" />
<glyph unicode="&#xaf;" horiz-adv-x="540" d="M82 1636l6 23l8 57l13 4l36 -4l37 -6l86 -10l117 12l76 8l10 -14l-16 -70l-29 -14l-88 10l-150 2l-43 -6l-45 -8z" />
<glyph unicode="&#xb0;" horiz-adv-x="524" d="M47 1362l115 113l20 28l29 21l33 51h39l77 -86l2 -19l31 -24l84 -80l2 -37l-90 -96h-22l2 -25l-86 -88l-37 -6l-31 35l-45 59l-115 111l-2 22zM127 1343l53 -59l-8 -16l35 -11l57 -57l10 2l52 58l71 75v19l-47 55l-78 84h-12l-72 -80l-12 -16l-49 -43v-11z" />
<glyph unicode="&#xb1;" horiz-adv-x="757" d="M39 696l10 78l8 23l45 -4l45 -9l76 -10h53l70 -2l2 66v92l-8 12l-8 164l16 33l88 -2l-4 -90l-18 -168l6 -107v-2h8l127 6l78 12l84 7v-43l-6 -52l-33 -14l-109 12l-86 9h-63l6 -240l10 -53l2 -52l-45 -12h-61l-6 21l8 59l6 45l4 168v64l-74 2l-114 -4l-97 -13zM47 20 l4 66l8 37l54 -8l53 -13l190 -8q28 0 87 1t87 1l113 13l68 4l-13 -88l-32 -19l-82 17q-11 0 -37 2t-39 2l-96 2h-219l-64 -9l-61 -6z" />
<glyph unicode="&#xb2;" d="M82 0v70l16 49l-12 65l10 365l-6 719l14 51l-14 18l-4 142l14 4l-10 28l402 -6l18 2h197l20 -4l98 8l29 -4l4 -69l-12 -47l6 -66l-12 -342l6 -743l-15 -52l23 -18l-2 -137l-2 -35l-90 -4l-398 8l-18 -2h-115l-24 4l-58 -8l-10 4l-33 -4zM137 360l25 -12v-162l2 7l-6 -125 l569 4h35l8 149l2 244l12 248v102l-2 27l-2 178v10l-6 109l25 10l-25 35l2 119l2 135l-602 -2l-2 -113l-2 -14l-8 -242l-12 -248v-102l2 -27l2 -178v-10l6 -109z" />
<glyph unicode="&#xb3;" d="M82 0v70l16 49l-12 65l10 365l-6 719l14 51l-14 18l-4 142l14 4l-10 28l402 -6l18 2h197l20 -4l98 8l29 -4l4 -69l-12 -47l6 -66l-12 -342l6 -743l-15 -52l23 -18l-2 -137l-2 -35l-90 -4l-398 8l-18 -2h-115l-24 4l-58 -8l-10 4l-33 -4zM137 360l25 -12v-162l2 7l-6 -125 l569 4h35l8 149l2 244l12 248v102l-2 27l-2 178v10l-6 109l25 10l-25 35l2 119l2 135l-602 -2l-2 -113l-2 -14l-8 -242l-12 -248v-102l2 -27l2 -178v-10l6 -109z" />
<glyph unicode="&#xb4;" horiz-adv-x="319" d="M41 1599v15l51 59l86 123l15 12l77 -26l9 -17l-43 -47l-89 -80l-32 -41l-15 -12z" />
<glyph unicode="&#xb5;" d="M82 0v70l16 49l-12 65l10 365l-6 719l14 51l-14 18l-4 142l14 4l-10 28l402 -6l18 2h197l20 -4l98 8l29 -4l4 -69l-12 -47l6 -66l-12 -342l6 -743l-15 -52l23 -18l-2 -137l-2 -35l-90 -4l-398 8l-18 -2h-115l-24 4l-58 -8l-10 4l-33 -4zM137 360l25 -12v-162l2 7l-6 -125 l569 4h35l8 149l2 244l12 248v102l-2 27l-2 178v10l-6 109l25 10l-25 35l2 119l2 135l-602 -2l-2 -113l-2 -14l-8 -242l-12 -248v-102l2 -27l2 -178v-10l6 -109z" />
<glyph unicode="&#xb6;" d="M82 0v70l16 49l-12 65l10 365l-6 719l14 51l-14 18l-4 142l14 4l-10 28l402 -6l18 2h197l20 -4l98 8l29 -4l4 -69l-12 -47l6 -66l-12 -342l6 -743l-15 -52l23 -18l-2 -137l-2 -35l-90 -4l-398 8l-18 -2h-115l-24 4l-58 -8l-10 4l-33 -4zM137 360l25 -12v-162l2 7l-6 -125 l569 4h35l8 149l2 244l12 248v102l-2 27l-2 178v10l-6 109l25 10l-25 35l2 119l2 135l-602 -2l-2 -113l-2 -14l-8 -242l-12 -248v-102l2 -27l2 -178v-10l6 -109z" />
<glyph unicode="&#xb7;" horiz-adv-x="264" d="M41 766l2 27l47 41q5 7 18.5 21.5t18.5 21.5l23 -3l20 -32l10 -31q2 0 8.5 2t8.5 2l26 -24v-23l-45 -37l-37 -53l-18 2l-14 20l2 13l2 -2l-4 6q-1 0 -7.5 2t-7.5 2z" />
<glyph unicode="&#xb8;" horiz-adv-x="286" d="M41 -281l57 33l47 43l17 25l-23 39l-51 26l-45 19l2 61l94 84l58 -39l-13 -10l-24 -14l-58 -35l97 -78l47 -47l-10 -43l-60 -47l-24 -31l-39 -57l-21 -4l-26 18z" />
<glyph unicode="&#xb9;" d="M82 0v70l16 49l-12 65l10 365l-6 719l14 51l-14 18l-4 142l14 4l-10 28l402 -6l18 2h197l20 -4l98 8l29 -4l4 -69l-12 -47l6 -66l-12 -342l6 -743l-15 -52l23 -18l-2 -137l-2 -35l-90 -4l-398 8l-18 -2h-115l-24 4l-58 -8l-10 4l-33 -4zM137 360l25 -12v-162l2 7l-6 -125 l569 4h35l8 149l2 244l12 248v102l-2 27l-2 178v10l-6 109l25 10l-25 35l2 119l2 135l-602 -2l-2 -113l-2 -14l-8 -242l-12 -248v-102l2 -27l2 -178v-10l6 -109z" />
<glyph unicode="&#xba;" d="M82 0v70l16 49l-12 65l10 365l-6 719l14 51l-14 18l-4 142l14 4l-10 28l402 -6l18 2h197l20 -4l98 8l29 -4l4 -69l-12 -47l6 -66l-12 -342l6 -743l-15 -52l23 -18l-2 -137l-2 -35l-90 -4l-398 8l-18 -2h-115l-24 4l-58 -8l-10 4l-33 -4zM137 360l25 -12v-162l2 7l-6 -125 l569 4h35l8 149l2 244l12 248v102l-2 27l-2 178v10l-6 109l25 10l-25 35l2 119l2 135l-602 -2l-2 -113l-2 -14l-8 -242l-12 -248v-102l2 -27l2 -178v-10l6 -109z" />
<glyph unicode="&#xbb;" horiz-adv-x="768" d="M41 1010l14 24l58 39l63 -74l-4 -2l90 -98l39 -39l-4 -18l53 -33l66 -70v-63l-10 -10l-103 -107l-18 -4l-52 -70l-69 -47v-28l-8 -23l-41 -47l-45 31l-25 49l45 37l103 96l18 16l121 144l-115 125l-59 67l-39 29zM340 1010l14 24l58 39l63 -74l-4 -2l90 -98l39 -39 l-4 -18l53 -33l66 -70v-63l-10 -10l-103 -107l-18 -4l-52 -70l-69 -47v-28l-8 -23l-41 -47l-45 31l-25 49l45 37l103 96l18 16l121 144l-115 125l-59 67l-39 29z" />
<glyph unicode="&#xbc;" d="M82 0v70l16 49l-12 65l10 365l-6 719l14 51l-14 18l-4 142l14 4l-10 28l402 -6l18 2h197l20 -4l98 8l29 -4l4 -69l-12 -47l6 -66l-12 -342l6 -743l-15 -52l23 -18l-2 -137l-2 -35l-90 -4l-398 8l-18 -2h-115l-24 4l-58 -8l-10 4l-33 -4zM137 360l25 -12v-162l2 7l-6 -125 l569 4h35l8 149l2 244l12 248v102l-2 27l-2 178v10l-6 109l25 10l-25 35l2 119l2 135l-602 -2l-2 -113l-2 -14l-8 -242l-12 -248v-102l2 -27l2 -178v-10l6 -109z" />
<glyph unicode="&#xbd;" d="M82 0v70l16 49l-12 65l10 365l-6 719l14 51l-14 18l-4 142l14 4l-10 28l402 -6l18 2h197l20 -4l98 8l29 -4l4 -69l-12 -47l6 -66l-12 -342l6 -743l-15 -52l23 -18l-2 -137l-2 -35l-90 -4l-398 8l-18 -2h-115l-24 4l-58 -8l-10 4l-33 -4zM137 360l25 -12v-162l2 7l-6 -125 l569 4h35l8 149l2 244l12 248v102l-2 27l-2 178v10l-6 109l25 10l-25 35l2 119l2 135l-602 -2l-2 -113l-2 -14l-8 -242l-12 -248v-102l2 -27l2 -178v-10l6 -109z" />
<glyph unicode="&#xbe;" d="M82 0v70l16 49l-12 65l10 365l-6 719l14 51l-14 18l-4 142l14 4l-10 28l402 -6l18 2h197l20 -4l98 8l29 -4l4 -69l-12 -47l6 -66l-12 -342l6 -743l-15 -52l23 -18l-2 -137l-2 -35l-90 -4l-398 8l-18 -2h-115l-24 4l-58 -8l-10 4l-33 -4zM137 360l25 -12v-162l2 7l-6 -125 l569 4h35l8 149l2 244l12 248v102l-2 27l-2 178v10l-6 109l25 10l-25 35l2 119l2 135l-602 -2l-2 -113l-2 -14l-8 -242l-12 -248v-102l2 -27l2 -178v-10l6 -109z" />
<glyph unicode="&#xbf;" horiz-adv-x="698" d="M41 287l6 73l174 226l60 90q1 6 5 17t5 14l-12 180l22 22q-24 48 -27 56l-18 57l25 53l108 -26l-8 -82q-1 -29 -5 -87.5t-5 -88.5l6 -107l-35 -37q-49 -72 -66 -94l-69 -64h2l-33 -55l-41 -78l146 -200h-2l61 -58v2l39 -10l12 6l39 31v-2l41 39h-2l51 78l29 90l31 4 l45 -37l14 -33l-111 -110l-141 -148h2l-31 -43l-82 17l-65 104l8 31l-67 53zM217 1438l4 18l43 41h-2l43 59l21 -8l16 -20l-2 -15l-2 3l4 -7q1 0 7 -2t7 -2l52 -47l-7 -22l-47 -50h2l-41 -51l-18 4l-25 33l-16 31h-4z" />
<glyph unicode="&#xc0;" horiz-adv-x="849" d="M78 25l53 223l21 125l26 33l-2 6v41l49 270l8 43l11 43v25l2 24l59 299l27 60l-13 12l13 86l14 90l21 113l110 -7l-6 -47l10 -28l8 -29l68 -315l-8 -35l4 -17l6 -18l119 -522v-37l55 -205l19 -139l34 -103l-69 -32h-12l-29 10l-27 211l21 18l-25 29l-10 74l-6 18l-6 55 l-25 74l-29 -4l-37 -6l-20 -2l-55 -35l-131 -39l-52 -16l-10 -4l-28 -11l2 -8l-31 -184l-2 -12v-78l-12 -88l-80 6zM254 453h27l10 2l45 2l2 6l2 8l139 45l60 19l26 12l25 12h-2l-10 16l-54 261l-16 112l-76 348l-10 41l-2 -37l-70 -325l-20 -33l6 -24l-43 -222l-25 -141 l-4 -20l-4 -21zM256 1765l8 17l78 26l14 -12l86 -123l52 -57l-2 -14l-56 -15l-12 12l-35 39l-90 80z" />
<glyph unicode="&#xc1;" horiz-adv-x="849" d="M78 25l53 223l21 125l26 33l-2 6v41l49 270l8 43l11 43v25l2 24l59 299l27 60l-13 12l13 86l14 90l21 113l110 -7l-6 -47l10 -28l8 -29l68 -315l-8 -35l4 -17l6 -18l119 -522v-37l55 -205l19 -139l34 -103l-69 -32h-12l-29 10l-27 211l21 18l-25 29l-10 74l-6 18l-6 55 l-25 74l-29 -4l-37 -6l-20 -2l-55 -35l-131 -39l-52 -16l-10 -4l-28 -11l2 -8l-31 -184l-2 -12v-78l-12 -88l-80 6zM254 453h27l10 2l45 2l2 6l2 8l139 45l60 19l26 12l25 12h-2l-10 16l-54 261l-16 112l-76 348l-10 41l-2 -37l-70 -325l-20 -33l6 -24l-43 -222l-25 -141 l-4 -20l-4 -21zM344 1599v15l51 59l86 123l15 12l77 -26l9 -17l-43 -47l-88 -80l-33 -41l-15 -12z" />
<glyph unicode="&#xc2;" horiz-adv-x="849" d="M78 25l53 223l21 125l26 33l-2 6v41l49 270l8 43l11 43v25l2 24l59 299l27 60l-13 12l13 86l14 90l21 113l110 -7l-6 -47l10 -28l8 -29l68 -315l-8 -35l4 -17l6 -18l119 -522v-37l55 -205l19 -139l34 -103l-69 -32h-12l-29 10l-27 211l21 18l-25 29l-10 74l-6 18l-6 55 l-25 74l-29 -4l-37 -6l-20 -2l-55 -35l-131 -39l-52 -16l-10 -4l-28 -11l2 -8l-31 -184l-2 -12v-78l-12 -88l-80 6zM236 1624l139 131l43 41l41 -4l49 -53l53 -58l51 -39l4 -20l-20 -27l-57 -20l-35 47l-68 80l-26 14l-27 -20l-49 -64l-23 -47l-61 8zM254 453h27l10 2l45 2 l2 6l2 8l139 45l60 19l26 12l25 12h-2l-10 16l-54 261l-16 112l-76 348l-10 41l-2 -37l-70 -325l-20 -33l6 -24l-43 -222l-25 -141l-4 -20l-4 -21z" />
<glyph unicode="&#xc3;" horiz-adv-x="849" d="M78 25l53 223l21 125l26 33l-2 6v41l49 270l8 43l11 43v25l2 24l59 299l27 60l-13 12l13 86l14 90l21 113l110 -7l-6 -47l10 -28l8 -29l68 -315l-8 -35l4 -17l6 -18l119 -522v-37l55 -205l19 -139l34 -103l-69 -32h-12l-29 10l-27 211l21 18l-25 29l-10 74l-6 18l-6 55 l-25 74l-29 -4l-37 -6l-20 -2l-55 -35l-131 -39l-52 -16l-10 -4l-28 -11l2 -8l-31 -184l-2 -12v-78l-12 -88l-80 6zM199 1647l94 104l39 37l55 -2l131 -92l33 4l41 51l6 29l55 -2l17 -21l-113 -149l-51 -9l-152 103l-39 6l-34 -43l-11 -43h-57zM254 453h27l10 2l45 2l2 6 l2 8l139 45l60 19l26 12l25 12h-2l-10 16l-54 261l-16 112l-76 348l-10 41l-2 -37l-70 -325l-20 -33l6 -24l-43 -222l-25 -141l-4 -20l-4 -21z" />
<glyph unicode="&#xc4;" horiz-adv-x="849" d="M78 25l53 223l21 125l26 33l-2 6v41l49 270l8 43l11 43v25l2 24l59 299l27 60l-13 12l13 86l14 90l21 113l110 -7l-6 -47l10 -28l8 -29l68 -315l-8 -35l4 -17l6 -18l119 -522v-37l55 -205l19 -139l34 -103l-69 -32h-12l-29 10l-27 211l21 18l-25 29l-10 74l-6 18l-6 55 l-25 74l-29 -4l-37 -6l-20 -2l-55 -35l-131 -39l-52 -16l-10 -4l-28 -11l2 -8l-31 -184l-2 -12v-78l-12 -88l-80 6zM238 1669l4 25l69 61l19 -2l51 -57l10 -19l-39 -39l-28 -36l-23 8l-29 28zM254 453h27l10 2l45 2l2 6l2 8l139 45l60 19l26 12l25 12h-2l-10 16l-54 261 l-16 112l-76 348l-10 41l-2 -37l-70 -325l-20 -33l6 -24l-43 -222l-25 -141l-4 -20l-4 -21zM455 1679l39 39l24 37l27 -6l30 -31l31 -26l-4 -27l-70 -63l-18 4l-51 57z" />
<glyph unicode="&#xc5;" horiz-adv-x="849" d="M78 25l53 223l21 125l26 33l-2 6v41l49 270l8 43l11 43v25l2 24l59 299l27 60l-13 12l13 86l14 90l14 61l-22 27l-94 94l-4 41l88 80l18 25l27 28l28 41h33l66 -71l2 -15l26 -20l70 -68l2 -35l-80 -67h-18l2 -17l-33 -45l10 -28l8 -29l68 -315l-8 -35l4 -17l6 -18 l119 -522v-37l55 -205l19 -139l34 -103l-69 -32h-12l-29 10l-27 211l21 18l-25 29l-10 74l-6 18l-6 55l-25 74l-29 -4l-37 -6l-20 -2l-55 -35l-131 -39l-52 -16l-10 -4l-28 -11l2 -8l-33 -196v-78l-12 -88l-80 6zM254 453h27l10 2l45 2l2 6l2 8l139 45l60 19l26 12l25 12h-2 l-10 16l-54 261l-16 112l-76 348l-10 41l-2 -37l-70 -325l-20 -33l6 -24l-43 -222l-25 -141l-8 -41zM307 1616l4 -12l41 -37l-6 -11l27 -10l45 -51l43 41l63 70v8l-43 47l-57 61h-12l-52 -51l-6 -14z" />
<glyph unicode="&#xc6;" horiz-adv-x="1118" d="M23 23l98 239l37 123l28 29v6l4 41l84 262l15 41l16 41l2 24l6 25l105 291l37 55l-11 12l23 84l25 88l40 117l50 -2l51 6h112l35 -6l115 6l137 2l2 -37l-6 -69h-39l-61 18l-33 -4l-127 12h-25l-24 3l-45 -9l4 -18l6 -19l2 -38l-4 -58l-4 -203l-14 -24l2 -119l8 -141 l143 -2l103 12l57 2l16 -16l-10 -45l-6 -41l-55 4l-195 10l-45 2l-14 -281l14 -61l-12 -41l10 -10l4 -219l2 -23l66 -14h32l181 14l55 10l45 -6l-8 -88l-15 -14l-118 2l-129 12h-101l-16 -10l-100 2l-9 39l9 78l4 88l4 92l8 47l-2 76l-4 -2l-248 -43l-57 -8l-11 -2l-30 -9 l2 -8l-60 -178l-16 -39l-8 -76l-25 -71l-78 16zM272 451l27 -5l10 3l49 -7l2 7l5 8l225 43v51l14 31l-8 6l-14 209l6 80v167l2 170l-2 134l-150 -394l-22 -28l2 -25l-80 -215l-39 -135l-12 -41z" />
<glyph unicode="&#xc7;" horiz-adv-x="688" d="M63 803l158 221l137 209l29 14l-6 29l104 180l21 4l12 37l25 31l82 -53l-41 -66l-64 -72l-22 -53l-183 -242l-71 -124l-39 -78l-51 -84l22 -43l21 -37l45 -62l26 -79l23 -5l65 -98l121 -188l43 -58l68 -82l33 -51l-62 -53l-24 -12v-2l-58 -35l96 -78l48 -47l-11 -43 l-59 -47l-25 -31l-39 -57l-20 -4l-27 18l-24 57l57 33l47 43l17 25l-23 39l-51 26l-45 19l2 61l69 66l-14 59l-20 12l-160 236l-8 43l-86 104l-84 140l-47 63z" />
<glyph unicode="&#xc8;" horiz-adv-x="704" d="M152 39l8 78l4 88l4 92l8 47l-2 100l-2 107l14 31l-8 6l-14 209l6 80v167l2 170l-2 132l10 40l-10 7l-6 106l51 6h113l34 -6l115 6l137 2l2 -37l-6 -67h-39l-61 16l-33 -4l-127 10h-24l-25 2l-45 -8l4 -18l6 -19l2 -36l-4 -58l-4 -203l-14 -24l2 -119l8 -141l143 -2 l103 12l57 2l16 -16l-10 -45l-6 -41l-55 4l-195 10l-45 2l-14 -281l14 -61l-12 -41l10 -10l4 -219l2 -23l66 -14h33l180 14l55 10l45 -6l-8 -88l-14 -14l-119 2l-129 12h-101l-16 -10l-100 2zM244 1765l8 17l78 26l14 -12l86 -123l51 -57l-2 -14l-55 -15l-12 12l-35 39 l-90 80z" />
<glyph unicode="&#xc9;" horiz-adv-x="704" d="M152 39l8 78l4 88l4 92l8 47l-2 100l-2 107l14 31l-8 6l-14 209l6 80v167l2 170l-2 132l10 40l-10 7l-6 106l51 6h113l34 -6l115 6l137 2l2 -37l-6 -67h-39l-61 16l-33 -4l-127 10h-24l-25 2l-45 -8l4 -18l6 -19l2 -36l-4 -58l-4 -203l-14 -24l2 -119l8 -141l143 -2 l103 12l57 2l16 -16l-10 -45l-6 -41l-55 4l-195 10l-45 2l-14 -281l14 -61l-12 -41l10 -10l4 -219l2 -23l66 -14h33l180 14l55 10l45 -6l-8 -88l-14 -14l-119 2l-129 12h-101l-16 -10l-100 2zM332 1599v15l51 59l86 123l14 12l78 -26l8 -17l-43 -47l-88 -80l-32 -41l-15 -12 z" />
<glyph unicode="&#xca;" horiz-adv-x="704" d="M152 39l8 78l4 88l4 92l8 47l-2 100l-2 107l14 31l-8 6l-14 209l6 80v167l2 170l-2 132l10 40l-10 7l-6 106l51 6h113l34 -6l115 6l137 2l2 -37l-6 -67h-39l-61 16l-33 -4l-127 10h-24l-25 2l-45 -8l4 -18l6 -19l2 -36l-4 -58l-4 -203l-14 -24l2 -119l8 -141l143 -2 l103 12l57 2l16 -16l-10 -45l-6 -41l-55 4l-195 10l-45 2l-14 -281l14 -61l-12 -41l10 -10l4 -219l2 -23l66 -14h33l180 14l55 10l45 -6l-8 -88l-14 -14l-119 2l-129 12h-101l-16 -10l-100 2zM223 1624l139 131l44 41l40 -4l50 -53l53 -58l51 -39l4 -20l-20 -27l-58 -20 l-34 47l-68 80l-27 14l-26 -20l-49 -64l-23 -47l-61 8z" />
<glyph unicode="&#xcb;" horiz-adv-x="704" d="M152 39l8 78l4 88l4 92l8 47l-2 100l-2 107l14 31l-8 6l-14 209l6 80v167l2 170l-2 132l10 40l-10 7l-6 106l51 6h113l34 -6l115 6l137 2l2 -37l-6 -67h-39l-61 16l-33 -4l-127 10h-24l-25 2l-45 -8l4 -18l6 -19l2 -36l-4 -58l-4 -203l-14 -24l2 -119l8 -141l143 -2 l103 12l57 2l16 -16l-10 -45l-6 -41l-55 4l-195 10l-45 2l-14 -281l14 -61l-12 -41l10 -10l4 -219l2 -23l66 -14h33l180 14l55 10l45 -6l-8 -88l-14 -14l-119 2l-129 12h-101l-16 -10l-100 2zM225 1669l4 25l70 61l18 -2l52 -57l10 -19l-39 -39l-29 -36l-22 8l-29 28z M442 1679l39 39l25 37l26 -6l31 -31l31 -26l-4 -27l-70 -63l-18 4l-51 57z" />
<glyph unicode="&#xcc;" horiz-adv-x="444" d="M59 1776l9 16l77 27l15 -13l86 -123l51 -57l-2 -14l-55 -15l-13 13l-34 39l-91 80zM162 0l18 131v574l6 69l9 125l-17 66l-8 489l-6 57l37 11l82 -17l-7 -104l-10 -60l-6 -286l-6 -111l8 -100l4 -60l2 -39l2 -10v-608l4 -43l9 -41l-4 -35l-46 -12l-38 2z" />
<glyph unicode="&#xcd;" horiz-adv-x="444" d="M147 1610v14l52 59l86 123l14 13l78 -27l8 -16l-43 -47l-88 -80l-33 -41l-14 -13zM162 0l18 131v574l6 69l9 125l-17 66l-8 489l-6 57l37 11l82 -17l-7 -104l-10 -60l-6 -286l-6 -111l8 -100l4 -60l2 -39l2 -10v-608l4 -43l9 -41l-4 -35l-46 -12l-38 2z" />
<glyph unicode="&#xce;" horiz-adv-x="444" d="M39 1624l139 131l43 41l41 -4l49 -53l54 -58l51 -39l4 -20l-21 -27l-57 -20l-35 47l-67 80l-27 14l-27 -20l-49 -64l-22 -47l-62 8zM162 0l18 131v574l6 69l9 125l-17 66l-8 489l-6 57l37 11l82 -17l-7 -104l-10 -60l-6 -286l-6 -111l8 -100l4 -60l2 -39l2 -10v-608 l4 -43l9 -41l-4 -35l-46 -12l-38 2z" />
<glyph unicode="&#xcf;" horiz-adv-x="444" d="M41 1669l4 25l70 61l18 -2l51 -57l11 -19l-39 -39l-29 -36l-23 8l-28 28zM162 0l18 131v574l6 69l9 125l-17 66l-8 489l-6 57l37 11l82 -17l-7 -104l-10 -60l-6 -286l-6 -111l8 -100l4 -60l2 -39l2 -10v-608l4 -43l9 -41l-4 -35l-46 -12l-38 2zM258 1679l39 39l25 37 l26 -6l31 -31l31 -26l-4 -27l-70 -63l-19 4l-51 57z" />
<glyph unicode="&#xd0;" horiz-adv-x="794" d="M27 717l4 33l4 20v29l4 4l51 -4l82 -6l-6 464l6 56l-14 28l-4 113l-2 45l61 19l31 14l43 -57l65 -82l19 -37l6 -6l26 -31l58 -82l6 -41l76 -80l188 -256l27 -24v-107l-29 -49l-94 -131l-33 -17h2l4 -12l6 -10l-120 -184l-74 -142l-141 -202l-27 10l-86 4l8 106l8 498 l-8 84l-2 37l-76 -2q-15 -1 -23.5 -3t-23.5 -3zM242 940l10 -86l8 -61l94 4l60 8l2 -4l-2 -74l-27 -10l-111 6h-14l-14 -371l2 -43l2 -65l8 -103l4 -24l4 2l68 100l33 41l49 80l31 37l112 190l82 119l37 78l-16 35l-23 32l-16 27l-56 90l-69 80l-119 164l-135 184l2 -28 l2 -39l8 -142l2 -178z" />
<glyph unicode="&#xd1;" horiz-adv-x="960" d="M166 -2l10 119l-2 24v45l8 166l6 142l19 77l-8 15l-13 32l7 447l-7 135l-4 133l-10 97v69l96 27l181 -242l55 -96l18 -12l156 -213h6l8 12l-6 155l-2 152l-4 68l20 6h-2l-16 26l-2 121l72 2l41 -8l-5 -98l-24 -545l6 -166l18 -481l-4 -78l15 -117l-11 -20l-79 -2l-21 4 l6 119v90l-6 119l6 163l19 4l-11 48l-10 49l-2 178l-49 100l-27 58l-30 55l-66 86l-86 121l-49 61l-18 23l-52 65l-32 31l-7 -4l-2 -12v-187l-18 -129l2 -6l14 -33l-4 -493l8 -80l9 -78v-233l4 -33l-4 -82l-66 -4zM264 1647l94 104l39 37l56 -2l131 -92l32 4l41 51l7 29 l55 -2l16 -21l-112 -149l-52 -9l-151 103l-39 6l-35 -43l-10 -43h-57z" />
<glyph unicode="&#xd2;" horiz-adv-x="866" d="M66 784l18 21l125 287l29 28l2 19v10l2 6l129 295l10 20l12 37l23 4l73 7l33 -95l121 -274l21 -76l14 -18h14l39 -101l82 -147l-6 -90l-100 -211l-80 -162l-117 -287l-23 -59l-16 -18l-86 12l-4 41l-86 192l-8 82h-31l-45 105l-41 90l-39 92l-53 119zM160 772l4 -8l8 -19 l25 -61l2 -6l51 -133l61 -129l74 -160l53 -137l4 2l17 10h-2l116 268l33 27l15 53l96 277l-8 24l-13 60l-16 14l-8 20l-21 37l-133 308l12 26h-8l-12 2l-64 135l-12 11l-2 -4l-2 -15l-31 -67l-129 -244l-26 -19h2l-6 -57l-76 -180l-2 -8v-11zM281 1765l8 17l78 26l14 -12 l86 -123l51 -57l-2 -14l-55 -15l-12 12l-35 39l-90 80z" />
<glyph unicode="&#xd3;" horiz-adv-x="866" d="M66 784l18 21l125 287l29 28l2 19v10l2 6l129 295l10 20l12 37l23 4l73 7l33 -95l121 -274l21 -76l14 -18h14l39 -101l82 -147l-6 -90l-100 -211l-80 -162l-117 -287l-23 -59l-16 -18l-86 12l-4 41l-86 192l-8 82h-31l-45 105l-41 90l-39 92l-53 119zM160 772l4 -8l8 -19 l25 -61l2 -6l51 -133l61 -129l74 -160l53 -137l4 2l17 10h-2l116 268l33 27l15 53l96 277l-8 24l-13 60l-16 14l-8 20l-21 37l-133 308l12 26h-8l-12 2l-64 135l-12 11l-2 -4l-2 -15l-31 -67l-129 -244l-26 -19h2l-6 -57l-76 -180l-2 -8v-11zM369 1599v15l51 59l86 123 l14 12l78 -26l8 -17l-43 -47l-88 -80l-33 -41l-14 -12z" />
<glyph unicode="&#xd4;" horiz-adv-x="866" d="M66 784l18 21l125 287l29 28l2 19v10l2 6l129 295l10 20l12 37l23 4l73 7l33 -95l121 -274l21 -76l14 -18h14l39 -101l82 -147l-6 -90l-100 -211l-80 -162l-117 -287l-23 -59l-16 -18l-86 12l-4 41l-86 192l-8 82h-31l-45 105l-41 90l-39 92l-53 119zM160 772l4 -8l8 -19 l25 -61l2 -6l51 -133l61 -129l74 -160l53 -137l4 2l17 10h-2l116 268l33 27l15 53l96 277l-8 24l-13 60l-16 14l-8 20l-21 37l-133 308l12 26h-8l-12 2l-64 135l-12 11l-2 -4l-2 -15l-31 -67l-129 -244l-26 -19h2l-6 -57l-76 -180l-2 -8v-11zM260 1624l139 131l43 41l41 -4 l49 -53l54 -58l51 -39l4 -20l-20 -27l-58 -20l-35 47l-67 80l-27 14l-26 -20l-50 -64l-22 -47l-62 8z" />
<glyph unicode="&#xd5;" horiz-adv-x="866" d="M66 784l18 21l125 287l29 28l2 19v10l2 6l129 295l10 20l12 37l23 4l73 7l33 -95l121 -274l21 -76l14 -18h14l39 -101l82 -147l-6 -90l-100 -211l-80 -162l-117 -287l-23 -59l-16 -18l-86 12l-4 41l-86 192l-8 82h-31l-45 105l-41 90l-39 92l-53 119zM160 772l4 -8l8 -19 l25 -61l2 -6l51 -133l61 -129l74 -160l53 -137l4 2l17 10h-2l116 268l33 27l15 53l96 277l-8 24l-13 60l-16 14l-8 20l-21 37l-133 308l12 26h-8l-12 2l-64 135l-12 11l-2 -4l-2 -15l-31 -67l-129 -244l-26 -19h2l-6 -57l-76 -180l-2 -8v-11zM223 1647l94 104l39 37l56 -2 l131 -92l32 4l41 51l7 29l55 -2l16 -21l-112 -149l-52 -9l-151 103l-39 6l-35 -43l-10 -43h-57z" />
<glyph unicode="&#xd6;" horiz-adv-x="866" d="M66 784l18 21l125 287l29 28l2 19v10l2 6l129 295l10 20l12 37l23 4l73 7l33 -95l121 -274l21 -76l14 -18h14l39 -101l82 -147l-6 -90l-100 -211l-80 -162l-117 -287l-23 -59l-16 -18l-86 12l-4 41l-86 192l-8 82h-31l-45 105l-41 90l-39 92l-53 119zM160 772l4 -8l8 -19 l25 -61l2 -6l51 -133l61 -129l74 -160l53 -137l4 2l17 10h-2l116 268l33 27l15 53l96 277l-8 24l-13 60l-16 14l-8 20l-21 37l-133 308l12 26h-8l-12 2l-64 135l-12 11l-2 -4l-2 -15l-31 -67l-129 -244l-26 -19h2l-6 -57l-76 -180l-2 -8v-11zM262 1669l4 25l70 61l18 -2 l52 -57l10 -19l-39 -39l-29 -36l-22 8l-29 28zM479 1679l39 39l25 37l26 -6l31 -31l31 -26l-4 -27l-70 -63l-18 4l-52 57z" />
<glyph unicode="&#xd7;" horiz-adv-x="757" d="M51 481l43 35l33 29v-2l57 49l60 61l84 97l-80 100h2l-55 47l-72 68v-2l-60 38l5 43l57 50l74 -76l61 -78q32 -39 117 -137l145 162l56 63h-3l19 55l33 9l59 -58l-4 -35l-102 -81v2l-76 -86l-86 -76l-2 -2l194 -199v2l52 -37l45 -39l-11 -18l-37 -41l-26 -23l-19 13 l-28 59h2l-29 33l-188 196l-181 -208l-22 -48l-21 -30l-24 -21l-39 31l-25 18z" />
<glyph unicode="&#xd8;" horiz-adv-x="866" d="M66 784l18 21l125 287l29 28l2 19v10l2 6l129 295l10 20l12 37l23 4l73 7l33 -95l101 -229l18 20l-4 29l39 80l31 53l63 -49v-18l-27 -45l-90 -156l11 -35l14 -18h14l39 -101l82 -147l-6 -90l-100 -211l-80 -162l-117 -287l-23 -59l-16 -18l-86 12l-4 41l-86 192l-8 82 h-31l-14 33l-45 -86v-25l-33 -84l-19 -6l-65 56l29 36l43 95l41 49l4 39l6 12l-33 76l-39 92l-53 119zM160 772l4 -8l8 -19l25 -61l2 -6l51 -133l8 -17l133 250l31 35l84 180l53 90l8 21l-49 115l12 26h-8l-12 2l-64 135l-12 11l-2 -4l-2 -15l-31 -67l-129 -244l-26 -19h2 l-6 -57l-76 -180l-2 -8v-11zM295 449l16 -33l74 -160l53 -137l4 2l17 10h-2l116 268l33 27l15 53l96 277l-8 24l-21 60l-10 14l-8 20l-19 37l-47 109l-69 -121l-80 -125z" />
<glyph unicode="&#xd9;" horiz-adv-x="948" d="M174 1475l10 30l103 -4l-2 -135l-9 -70v-106l3 -23v-34l-17 -89l2 -137l2 -22l6 -164l-18 -264l16 -264l9 -56l55 -45l35 -6l28 10l56 23l92 33h-2l10 6l72 41h-2l53 30l12 158l6 287l-8 135l-8 135l4 174l16 29l-6 2h2l-14 8l-8 246l4 98l59 2l45 -2l8 -53l-6 -94 l-22 -21l8 -20l10 -21l-14 -137l-6 -141v-45l-2 -58l14 -45l-6 -483l12 -258l21 -121l-97 -16l-10 55l-10 59l-25 25l-231 -107l-53 -30l-97 2l-92 80l-2 84l13 168l-3 294l-12 238l2 150l17 55l-13 78zM319 1765l9 17l78 26l14 -12l86 -123l51 -57l-2 -14l-55 -15l-13 12 l-34 39l-91 80z" />
<glyph unicode="&#xda;" horiz-adv-x="948" d="M174 1475l10 30l103 -4l-2 -135l-9 -70v-106l3 -23v-34l-17 -89l2 -137l2 -22l6 -164l-18 -264l16 -264l9 -56l55 -45l35 -6l28 10l56 23l92 33h-2l10 6l72 41h-2l53 30l12 158l6 287l-8 135l-8 135l4 174l16 29l-6 2h2l-14 8l-8 246l4 98l59 2l45 -2l8 -53l-6 -94 l-22 -21l8 -20l10 -21l-14 -137l-6 -141v-45l-2 -58l14 -45l-6 -483l12 -258l21 -121l-97 -16l-10 55l-10 59l-25 25l-231 -107l-53 -30l-97 2l-92 80l-2 84l13 168l-3 294l-12 238l2 150l17 55l-13 78zM408 1599v15l51 59l86 123l14 12l78 -26l8 -17l-43 -47l-88 -80 l-33 -41l-14 -12z" />
<glyph unicode="&#xdb;" horiz-adv-x="948" d="M174 1475l10 30l103 -4l-2 -135l-9 -70v-106l3 -23v-34l-17 -89l2 -137l2 -22l6 -164l-18 -264l16 -264l9 -56l55 -45l35 -6l28 10l56 23l92 33h-2l10 6l72 41h-2l53 30l12 158l6 287l-8 135l-8 135l4 174l16 29l-6 2h2l-14 8l-8 246l4 98l59 2l45 -2l8 -53l-6 -94 l-22 -21l8 -20l10 -21l-14 -137l-6 -141v-45l-2 -58l14 -45l-6 -483l12 -258l21 -121l-97 -16l-10 55l-10 59l-25 25l-231 -107l-53 -30l-97 2l-92 80l-2 84l13 168l-3 294l-12 238l2 150l17 55l-13 78zM299 1624l139 131l43 41l41 -4l49 -53l54 -58l51 -39l4 -20l-21 -27 l-57 -20l-35 47l-67 80l-27 14l-27 -20l-49 -64l-22 -47l-62 8z" />
<glyph unicode="&#xdc;" horiz-adv-x="948" d="M174 1475l10 30l103 -4l-2 -135l-9 -70v-106l3 -23v-34l-17 -89l2 -137l2 -22l6 -164l-18 -264l16 -264l9 -56l55 -45l35 -6l28 10l56 23l92 33h-2l10 6l72 41h-2l53 30l12 158l6 287l-8 135l-8 135l4 174l16 29l-6 2h2l-14 8l-8 246l4 98l59 2l45 -2l8 -53l-6 -94 l-22 -21l8 -20l10 -21l-14 -137l-6 -141v-45l-2 -58l14 -45l-6 -483l12 -258l21 -121l-97 -16l-10 55l-10 59l-25 25l-231 -107l-53 -30l-97 2l-92 80l-2 84l13 168l-3 294l-12 238l2 150l17 55l-13 78zM301 1669l4 25l70 61l18 -2l51 -57l11 -19l-39 -39l-29 -36l-22 8 l-29 28zM518 1679l39 39l25 37l26 -6l31 -31l31 -26l-4 -27l-70 -63l-18 4l-52 57z" />
<glyph unicode="&#xdd;" horiz-adv-x="800" d="M45 1460l6 33l62 16l43 9l22 -72l-4 -27l19 -22l20 -47l39 -97l24 -82l58 -159l26 -60l41 -108l7 -10l10 -7l4 13l12 24l2 8l13 31l22 45l37 105l31 100l41 84l45 166l18 76l8 43l56 -6l30 -15l23 -16l-45 -117l-25 -35l-24 -53l-25 -51l-41 -123l-84 -225l-72 -174v-127 l2 -80l3 -25v-55l-9 -166l9 -43l-3 -88l7 -57l6 -58l-19 -14l-100 4l4 61l21 150l6 27l-4 20l-9 291l4 104l-8 60l-6 43l-2 16l-51 131l-23 51l-63 160l-72 164l-6 37zM324 1599v15l51 59l86 123l14 12l78 -26l8 -17l-43 -47l-88 -80l-33 -41l-14 -12z" />
<glyph unicode="&#xde;" horiz-adv-x="763" d="M160 -4l26 182v191l2 252l25 43l-20 6l-9 344l-10 434l-8 49l41 10l76 -12l-9 -100l-10 -62v-139l86 -78l107 -98l16 -25q18 -12 56 -40.5t61 -43.5l127 -106l-2 -96l-29 -21l-80 -76l-76 -57l-139 -147l-117 -121l-14 -62q2 -28 7 -66.5t7 -66.5l7 -96l-48 -4zM258 817 l8 -313l2 -15l-2 -67l19 -8q3 2 37 26t51 35l155 162l84 94l11 23l-66 57l-43 47l-238 201l-6 -27z" />
<glyph unicode="&#xdf;" horiz-adv-x="888" d="M154 4l26 260q-1 17 -5 54t-5 55l4 450l-4 68l4 110l-12 205l57 70l148 178l49 62h86l78 -99l51 -69l149 -148l6 -70l-168 -198l-116 -148l6 -20l43 -39l27 -29l38 -45l148 -112h-2l90 -78l-2 -68l-74 -96l-137 -172l-111 -168l-102 66l23 26l20 29l125 110h-2l135 181 l21 43l-46 51l-229 219v-2l-61 43l2 68l118 133l25 12q0 9 1 27.5t1 27.5l119 139v-2l6 27l-98 113l-47 53l-88 111q-13 -19 -45.5 -61.5t-45.5 -61.5l-104 -135q0 -3 -2 -9.5t-2 -9.5q1 -13 5 -37t5 -37l-10 -219q1 -40 5 -119.5t5 -117.5l6 -265l-18 -16l29 -78l-3 -139 l7 -129l-15 -12l-71 2z" />
<glyph unicode="&#xe0;" horiz-adv-x="849" d="M78 25l53 223l21 125l26 33l-2 6v41l49 270l8 43l11 43v25l2 24l59 299l27 60l-13 12l13 86l14 90l21 113l110 -7l-6 -47l10 -28l8 -29l68 -315l-8 -35l4 -17l6 -18l119 -522v-37l55 -205l19 -139l34 -103l-69 -32h-12l-29 10l-27 211l21 18l-25 29l-10 74l-6 18l-6 55 l-25 74l-29 -4l-37 -6l-20 -2l-55 -35l-131 -39l-52 -16l-10 -4l-28 -11l2 -8l-31 -184l-2 -12v-78l-12 -88l-80 6zM254 453h27l10 2l45 2l2 6l2 8l139 45l60 19l26 12l25 12h-2l-10 16l-54 261l-16 112l-76 348l-10 41l-2 -37l-70 -325l-20 -33l6 -24l-43 -222l-25 -141 l-4 -20l-4 -21zM256 1765l8 17l78 26l14 -12l86 -123l52 -57l-2 -14l-56 -15l-12 12l-35 39l-90 80z" />
<glyph unicode="&#xe1;" horiz-adv-x="849" d="M78 25l53 223l21 125l26 33l-2 6v41l49 270l8 43l11 43v25l2 24l59 299l27 60l-13 12l13 86l14 90l21 113l110 -7l-6 -47l10 -28l8 -29l68 -315l-8 -35l4 -17l6 -18l119 -522v-37l55 -205l19 -139l34 -103l-69 -32h-12l-29 10l-27 211l21 18l-25 29l-10 74l-6 18l-6 55 l-25 74l-29 -4l-37 -6l-20 -2l-55 -35l-131 -39l-52 -16l-10 -4l-28 -11l2 -8l-31 -184l-2 -12v-78l-12 -88l-80 6zM254 453h27l10 2l45 2l2 6l2 8l139 45l60 19l26 12l25 12h-2l-10 16l-54 261l-16 112l-76 348l-10 41l-2 -37l-70 -325l-20 -33l6 -24l-43 -222l-25 -141 l-4 -20l-4 -21zM344 1599v15l51 59l86 123l15 12l77 -26l9 -17l-43 -47l-88 -80l-33 -41l-15 -12z" />
<glyph unicode="&#xe2;" horiz-adv-x="849" d="M78 25l53 223l21 125l26 33l-2 6v41l49 270l8 43l11 43v25l2 24l59 299l27 60l-13 12l13 86l14 90l21 113l110 -7l-6 -47l10 -28l8 -29l68 -315l-8 -35l4 -17l6 -18l119 -522v-37l55 -205l19 -139l34 -103l-69 -32h-12l-29 10l-27 211l21 18l-25 29l-10 74l-6 18l-6 55 l-25 74l-29 -4l-37 -6l-20 -2l-55 -35l-131 -39l-52 -16l-10 -4l-28 -11l2 -8l-31 -184l-2 -12v-78l-12 -88l-80 6zM236 1624l139 131l43 41l41 -4l49 -53l53 -58l51 -39l4 -20l-20 -27l-57 -20l-35 47l-68 80l-26 14l-27 -20l-49 -64l-23 -47l-61 8zM254 453h27l10 2l45 2 l2 6l2 8l139 45l60 19l26 12l25 12h-2l-10 16l-54 261l-16 112l-76 348l-10 41l-2 -37l-70 -325l-20 -33l6 -24l-43 -222l-25 -141l-4 -20l-4 -21z" />
<glyph unicode="&#xe3;" horiz-adv-x="849" d="M78 25l53 223l21 125l26 33l-2 6v41l49 270l8 43l11 43v25l2 24l59 299l27 60l-13 12l13 86l14 90l21 113l110 -7l-6 -47l10 -28l8 -29l68 -315l-8 -35l4 -17l6 -18l119 -522v-37l55 -205l19 -139l34 -103l-69 -32h-12l-29 10l-27 211l21 18l-25 29l-10 74l-6 18l-6 55 l-25 74l-29 -4l-37 -6l-20 -2l-55 -35l-131 -39l-52 -16l-10 -4l-28 -11l2 -8l-31 -184l-2 -12v-78l-12 -88l-80 6zM199 1647l94 104l39 37l55 -2l131 -92l33 4l41 51l6 29l55 -2l17 -21l-113 -149l-51 -9l-152 103l-39 6l-34 -43l-11 -43h-57zM254 453h27l10 2l45 2l2 6 l2 8l139 45l60 19l26 12l25 12h-2l-10 16l-54 261l-16 112l-76 348l-10 41l-2 -37l-70 -325l-20 -33l6 -24l-43 -222l-25 -141l-4 -20l-4 -21z" />
<glyph unicode="&#xe4;" horiz-adv-x="849" d="M78 25l53 223l21 125l26 33l-2 6v41l49 270l8 43l11 43v25l2 24l59 299l27 60l-13 12l13 86l14 90l21 113l110 -7l-6 -47l10 -28l8 -29l68 -315l-8 -35l4 -17l6 -18l119 -522v-37l55 -205l19 -139l34 -103l-69 -32h-12l-29 10l-27 211l21 18l-25 29l-10 74l-6 18l-6 55 l-25 74l-29 -4l-37 -6l-20 -2l-55 -35l-131 -39l-52 -16l-10 -4l-28 -11l2 -8l-31 -184l-2 -12v-78l-12 -88l-80 6zM238 1669l4 25l69 61l19 -2l51 -57l10 -19l-39 -39l-28 -36l-23 8l-29 28zM254 453h27l10 2l45 2l2 6l2 8l139 45l60 19l26 12l25 12h-2l-10 16l-54 261 l-16 112l-76 348l-10 41l-2 -37l-70 -325l-20 -33l6 -24l-43 -222l-25 -141l-4 -20l-4 -21zM455 1679l39 39l24 37l27 -6l30 -31l31 -26l-4 -27l-70 -63l-18 4l-51 57z" />
<glyph unicode="&#xe5;" horiz-adv-x="849" d="M78 25l53 223l21 125l26 33l-2 6v41l49 270l8 43l11 43v25l2 24l59 299l27 60l-13 12l13 86l14 90l14 61l-22 27l-94 94l-4 41l88 80l18 25l27 28l28 41h33l66 -71l2 -15l26 -20l70 -68l2 -35l-80 -67h-18l2 -17l-33 -45l10 -28l8 -29l68 -315l-8 -35l4 -17l6 -18 l119 -522v-37l55 -205l19 -139l34 -103l-69 -32h-12l-29 10l-27 211l21 18l-25 29l-10 74l-6 18l-6 55l-25 74l-29 -4l-37 -6l-20 -2l-55 -35l-131 -39l-52 -16l-10 -4l-28 -11l2 -8l-33 -196v-78l-12 -88l-80 6zM254 453h27l10 2l45 2l2 6l2 8l139 45l60 19l26 12l25 12h-2 l-10 16l-54 261l-16 112l-76 348l-10 41l-2 -37l-70 -325l-20 -33l6 -24l-43 -222l-25 -141l-8 -41zM307 1616l4 -12l41 -37l-6 -11l27 -10l45 -51l43 41l63 70v8l-43 47l-57 61h-12l-52 -51l-6 -14z" />
<glyph unicode="&#xe6;" horiz-adv-x="1118" d="M23 23l98 239l37 123l28 29v6l4 41l84 262l15 41l16 41l2 24l6 25l105 291l37 55l-11 12l23 84l25 88l40 117l50 -2l51 6h112l35 -6l115 6l137 2l2 -37l-6 -69h-39l-61 18l-33 -4l-127 12h-25l-24 3l-45 -9l4 -18l6 -19l2 -38l-4 -58l-4 -203l-14 -24l2 -119l8 -141 l143 -2l103 12l57 2l16 -16l-10 -45l-6 -41l-55 4l-195 10l-45 2l-14 -281l14 -61l-12 -41l10 -10l4 -219l2 -23l66 -14h32l181 14l55 10l45 -6l-8 -88l-15 -14l-118 2l-129 12h-101l-16 -10l-100 2l-9 39l9 78l4 88l4 92l8 47l-2 76l-4 -2l-248 -43l-57 -8l-11 -2l-30 -9 l2 -8l-60 -178l-16 -39l-8 -76l-25 -71l-78 16zM272 451l27 -5l10 3l49 -7l2 7l5 8l225 43v51l14 31l-8 6l-14 209l6 80v167l2 170l-2 134l-150 -394l-22 -28l2 -25l-80 -215l-39 -135l-12 -41z" />
<glyph unicode="&#xe7;" horiz-adv-x="688" d="M63 803l158 221l137 209l29 14l-6 29l104 180l21 4l12 37l25 31l82 -53l-41 -66l-64 -72l-22 -53l-183 -242l-71 -124l-39 -78l-51 -84l22 -43l21 -37l45 -62l26 -79l23 -5l65 -98l121 -188l43 -58l68 -82l33 -51l-62 -53l-24 -12v-2l-58 -35l96 -78l48 -47l-11 -43 l-59 -47l-25 -31l-39 -57l-20 -4l-27 18l-24 57l57 33l47 43l17 25l-23 39l-51 26l-45 19l2 61l69 66l-14 59l-20 12l-160 236l-8 43l-86 104l-84 140l-47 63z" />
<glyph unicode="&#xe8;" horiz-adv-x="704" d="M152 39l8 78l4 88l4 92l8 47l-2 100l-2 107l14 31l-8 6l-14 209l6 80v167l2 170l-2 132l10 40l-10 7l-6 106l51 6h113l34 -6l115 6l137 2l2 -37l-6 -67h-39l-61 16l-33 -4l-127 10h-24l-25 2l-45 -8l4 -18l6 -19l2 -36l-4 -58l-4 -203l-14 -24l2 -119l8 -141l143 -2 l103 12l57 2l16 -16l-10 -45l-6 -41l-55 4l-195 10l-45 2l-14 -281l14 -61l-12 -41l10 -10l4 -219l2 -23l66 -14h33l180 14l55 10l45 -6l-8 -88l-14 -14l-119 2l-129 12h-101l-16 -10l-100 2zM244 1765l8 17l78 26l14 -12l86 -123l51 -57l-2 -14l-55 -15l-12 12l-35 39 l-90 80z" />
<glyph unicode="&#xe9;" horiz-adv-x="704" d="M152 39l8 78l4 88l4 92l8 47l-2 100l-2 107l14 31l-8 6l-14 209l6 80v167l2 170l-2 132l10 40l-10 7l-6 106l51 6h113l34 -6l115 6l137 2l2 -37l-6 -67h-39l-61 16l-33 -4l-127 10h-24l-25 2l-45 -8l4 -18l6 -19l2 -36l-4 -58l-4 -203l-14 -24l2 -119l8 -141l143 -2 l103 12l57 2l16 -16l-10 -45l-6 -41l-55 4l-195 10l-45 2l-14 -281l14 -61l-12 -41l10 -10l4 -219l2 -23l66 -14h33l180 14l55 10l45 -6l-8 -88l-14 -14l-119 2l-129 12h-101l-16 -10l-100 2zM332 1599v15l51 59l86 123l14 12l78 -26l8 -17l-43 -47l-88 -80l-32 -41l-15 -12 z" />
<glyph unicode="&#xea;" horiz-adv-x="704" d="M152 39l8 78l4 88l4 92l8 47l-2 100l-2 107l14 31l-8 6l-14 209l6 80v167l2 170l-2 132l10 40l-10 7l-6 106l51 6h113l34 -6l115 6l137 2l2 -37l-6 -67h-39l-61 16l-33 -4l-127 10h-24l-25 2l-45 -8l4 -18l6 -19l2 -36l-4 -58l-4 -203l-14 -24l2 -119l8 -141l143 -2 l103 12l57 2l16 -16l-10 -45l-6 -41l-55 4l-195 10l-45 2l-14 -281l14 -61l-12 -41l10 -10l4 -219l2 -23l66 -14h33l180 14l55 10l45 -6l-8 -88l-14 -14l-119 2l-129 12h-101l-16 -10l-100 2zM223 1624l139 131l44 41l40 -4l50 -53l53 -58l51 -39l4 -20l-20 -27l-58 -20 l-34 47l-68 80l-27 14l-26 -20l-49 -64l-23 -47l-61 8z" />
<glyph unicode="&#xeb;" horiz-adv-x="704" d="M152 39l8 78l4 88l4 92l8 47l-2 100l-2 107l14 31l-8 6l-14 209l6 80v167l2 170l-2 132l10 40l-10 7l-6 106l51 6h113l34 -6l115 6l137 2l2 -37l-6 -67h-39l-61 16l-33 -4l-127 10h-24l-25 2l-45 -8l4 -18l6 -19l2 -36l-4 -58l-4 -203l-14 -24l2 -119l8 -141l143 -2 l103 12l57 2l16 -16l-10 -45l-6 -41l-55 4l-195 10l-45 2l-14 -281l14 -61l-12 -41l10 -10l4 -219l2 -23l66 -14h33l180 14l55 10l45 -6l-8 -88l-14 -14l-119 2l-129 12h-101l-16 -10l-100 2zM225 1669l4 25l70 61l18 -2l52 -57l10 -19l-39 -39l-29 -36l-22 8l-29 28z M442 1679l39 39l25 37l26 -6l31 -31l31 -26l-4 -27l-70 -63l-18 4l-51 57z" />
<glyph unicode="&#xec;" horiz-adv-x="444" d="M59 1776l9 16l77 27l15 -13l86 -123l51 -57l-2 -14l-55 -15l-13 13l-34 39l-91 80zM162 0l18 131v574l6 69l9 125l-17 66l-8 489l-6 57l37 11l82 -17l-7 -104l-10 -60l-6 -286l-6 -111l8 -100l4 -60l2 -39l2 -10v-608l4 -43l9 -41l-4 -35l-46 -12l-38 2z" />
<glyph unicode="&#xed;" horiz-adv-x="444" d="M147 1610v14l52 59l86 123l14 13l78 -27l8 -16l-43 -47l-88 -80l-33 -41l-14 -13zM162 0l18 131v574l6 69l9 125l-17 66l-8 489l-6 57l37 11l82 -17l-7 -104l-10 -60l-6 -286l-6 -111l8 -100l4 -60l2 -39l2 -10v-608l4 -43l9 -41l-4 -35l-46 -12l-38 2z" />
<glyph unicode="&#xee;" horiz-adv-x="444" d="M33 1624l139 131l43 41l41 -4l49 -53l53 -58l52 -39l4 -20l-21 -27l-57 -20l-35 47l-68 80l-26 14l-27 -20l-49 -64l-22 -47l-62 8zM162 0l18 131v574l6 69l9 125l-17 66l-8 489l-6 57l37 11l82 -17l-7 -104l-10 -60l-6 -286l-6 -111l8 -100l4 -60l2 -39l2 -10v-608 l4 -43l9 -41l-4 -35l-46 -12l-38 2z" />
<glyph unicode="&#xef;" horiz-adv-x="444" d="M39 1669l4 25l70 61l18 -2l51 -57l11 -19l-39 -39l-29 -36l-23 8l-28 28zM162 0l18 131v574l6 69l9 125l-17 66l-8 489l-6 57l37 11l82 -17l-7 -104l-10 -60l-6 -286l-6 -111l8 -100l4 -60l2 -39l2 -10v-608l4 -43l9 -41l-4 -35l-46 -12l-38 2zM256 1679l39 39l24 37 l27 -6l31 -31l31 -26l-5 -27l-69 -63l-19 4l-51 57z" />
<glyph unicode="&#xf0;" horiz-adv-x="794" d="M27 717l4 33l4 20v29l4 4l51 -4l82 -6l-6 464l6 56l-14 28l-4 113l-2 45l61 19l31 14l43 -57l65 -82l19 -37l6 -6l26 -31l58 -82l6 -41l76 -80l188 -256l27 -24v-107l-29 -49l-94 -131l-33 -17h2l4 -12l6 -10l-120 -184l-74 -142l-141 -202l-27 10l-86 4l8 106l8 498 l-8 84l-2 37l-76 -2q-15 -1 -23.5 -3t-23.5 -3zM242 940l10 -86l8 -61l94 4l60 8l2 -4l-2 -74l-27 -10l-111 6h-14l-14 -371l2 -43l2 -65l8 -103l4 -24l4 2l68 100l33 41l49 80l31 37l112 190l82 119l37 78l-16 35l-23 32l-16 27l-56 90l-69 80l-119 164l-135 184l2 -28 l2 -39l8 -142l2 -178z" />
<glyph unicode="&#xf1;" horiz-adv-x="960" d="M166 -2l10 119l-2 24v45l8 166l6 142l19 77l-8 15l-13 32l7 447l-7 135l-4 133l-10 97v69l96 27l181 -242l55 -96l18 -12l156 -213h6l8 12l-6 155l-2 152l-4 68l20 6h-2l-16 26l-2 121l72 2l41 -8l-5 -98l-24 -545l6 -166l18 -481l-4 -78l15 -117l-11 -20l-79 -2l-21 4 l6 119v90l-6 119l6 163l19 4l-11 48l-10 49l-2 178l-49 100l-27 58l-30 55l-66 86l-86 121l-49 61l-18 23l-52 65l-32 31l-7 -4l-2 -12v-187l-18 -129l2 -6l14 -33l-4 -493l8 -80l9 -78v-233l4 -33l-4 -82l-66 -4zM264 1647l94 104l39 37l56 -2l131 -92l32 4l41 51l7 29 l55 -2l16 -21l-112 -149l-52 -9l-151 103l-39 6l-35 -43l-10 -43h-57z" />
<glyph unicode="&#xf2;" horiz-adv-x="866" d="M66 784l18 21l125 287l29 28l2 19v10l2 6l129 295l10 20l12 37l23 4l73 7l33 -95l121 -274l21 -76l14 -18h14l39 -101l82 -147l-6 -90l-100 -211l-80 -162l-117 -287l-23 -59l-16 -18l-86 12l-4 41l-86 192l-8 82h-31l-45 105l-41 90l-39 92l-53 119zM160 772l4 -8l8 -19 l25 -61l2 -6l51 -133l61 -129l74 -160l53 -137l4 2l17 10h-2l116 268l33 27l15 53l96 277l-8 24l-21 60l-10 14l-8 20l-19 37l-133 308l12 26h-8l-12 2l-64 135l-12 11l-2 -4l-2 -15l-31 -67l-129 -244l-26 -19h2l-6 -57l-76 -180l-2 -8v-11zM281 1765l8 17l78 26l14 -12 l86 -123l51 -57l-2 -14l-55 -15l-12 12l-35 39l-90 80z" />
<glyph unicode="&#xf3;" horiz-adv-x="866" d="M66 784l18 21l125 287l29 28l2 19v10l2 6l129 295l10 20l12 37l23 4l73 7l33 -95l121 -274l21 -76l14 -18h14l39 -101l82 -147l-6 -90l-100 -211l-80 -162l-117 -287l-23 -59l-16 -18l-86 12l-4 41l-86 192l-8 82h-31l-45 105l-41 90l-39 92l-53 119zM160 772l4 -8l8 -19 l25 -61l2 -6l51 -133l61 -129l74 -160l53 -137l4 2l17 10h-2l116 268l33 27l15 53l96 277l-8 24l-21 60l-10 14l-8 20l-19 37l-133 308l12 26h-8l-12 2l-64 135l-12 11l-2 -4l-2 -15l-31 -67l-129 -244l-26 -19h2l-6 -57l-76 -180l-2 -8v-11zM369 1599v15l51 59l86 123 l14 12l78 -26l8 -17l-43 -47l-88 -80l-33 -41l-14 -12z" />
<glyph unicode="&#xf4;" horiz-adv-x="866" d="M66 784l18 21l125 287l29 28l2 19v10l2 6l129 295l10 20l12 37l23 4l73 7l33 -95l121 -274l21 -76l14 -18h14l39 -101l82 -147l-6 -90l-100 -211l-80 -162l-117 -287l-23 -59l-16 -18l-86 12l-4 41l-86 192l-8 82h-31l-45 105l-41 90l-39 92l-53 119zM160 772l4 -8l8 -19 l25 -61l2 -6l51 -133l61 -129l74 -160l53 -137l4 2l17 10h-2l116 268l33 27l15 53l96 277l-8 24l-21 60l-10 14l-8 20l-19 37l-133 308l12 26h-8l-12 2l-64 135l-12 11l-2 -4l-2 -15l-31 -67l-129 -244l-26 -19h2l-6 -57l-76 -180l-2 -8v-11zM260 1624l139 131l43 41l41 -4 l49 -53l54 -58l51 -39l4 -20l-20 -27l-58 -20l-35 47l-67 80l-27 14l-26 -20l-50 -64l-22 -47l-62 8z" />
<glyph unicode="&#xf5;" horiz-adv-x="866" d="M66 784l18 21l125 287l29 28l2 19v10l2 6l129 295l10 20l12 37l23 4l73 7l33 -95l121 -274l21 -76l14 -18h14l39 -101l82 -147l-6 -90l-100 -211l-80 -162l-117 -287l-23 -59l-16 -18l-86 12l-4 41l-86 192l-8 82h-31l-45 105l-41 90l-39 92l-53 119zM160 772l4 -8l8 -19 l25 -61l2 -6l51 -133l61 -129l74 -160l53 -137l4 2l17 10h-2l116 268l33 27l15 53l96 277l-8 24l-21 60l-10 14l-8 20l-19 37l-133 308l12 26h-8l-12 2l-64 135l-12 11l-2 -4l-2 -15l-31 -67l-129 -244l-26 -19h2l-6 -57l-76 -180l-2 -8v-11zM223 1647l94 104l39 37l56 -2 l131 -92l32 4l41 51l7 29l55 -2l16 -21l-112 -149l-52 -9l-151 103l-39 6l-35 -43l-10 -43h-57z" />
<glyph unicode="&#xf6;" horiz-adv-x="866" d="M66 784l18 21l125 287l29 28l2 19v10l2 6l129 295l10 20l12 37l23 4l73 7l33 -95l121 -274l21 -76l14 -18h14l39 -101l82 -147l-6 -90l-100 -211l-80 -162l-117 -287l-23 -59l-16 -18l-86 12l-4 41l-86 192l-8 82h-31l-45 105l-41 90l-39 92l-53 119zM160 772l4 -8l8 -19 l25 -61l2 -6l51 -133l61 -129l74 -160l53 -137l4 2l17 10h-2l116 268l33 27l15 53l96 277l-8 24l-21 60l-10 14l-8 20l-19 37l-133 308l12 26h-8l-12 2l-64 135l-12 11l-2 -4l-2 -15l-31 -67l-129 -244l-26 -19h2l-6 -57l-76 -180l-2 -8v-11zM262 1669l4 25l70 61l18 -2 l52 -57l10 -19l-39 -39l-29 -36l-22 8l-29 28zM479 1679l39 39l25 37l26 -6l31 -31l31 -26l-4 -27l-70 -63l-18 4l-52 57z" />
<glyph unicode="&#xf7;" horiz-adv-x="757" d="M47 713l4 65l8 37l54 -8l53 -12l190 -9q28 0 87 1t87 1l113 13l68 4l-13 -88l-32 -19l-82 17q-11 0 -37 2t-39 2l-96 2h-219l-64 -8l-61 -6zM293 451l4 32l80 74l26 -2l58 -70l10 -22l-47 -47h2q-5 -6 -16.5 -22.5t-16.5 -22.5l-26 8l-37 35zM295 1030l4 31l80 72l24 -3 l62 -71l8 -21l-47 -47h2q-5 -6 -16.5 -22.5t-16.5 -22.5l-26 8z" />
<glyph unicode="&#xf8;" horiz-adv-x="917" d="M66 784l18 21l125 287l29 28l2 19v10l2 6l129 295l10 20l12 37l23 4l73 7l33 -95l101 -229l18 20l-4 29l39 80l31 53l63 -49v-18l-27 -45l-90 -156l11 -35l14 -18h14l39 -101l82 -147l-6 -90l-100 -211l-80 -162l-117 -287l-23 -59l-16 -18l-86 12l-4 41l-86 192l-8 82 h-31l-14 33l-45 -86v-25l-33 -84l-19 -6l-65 56l29 36l43 95l41 49l4 39l6 12l-33 76l-39 92l-53 119zM160 772l4 -8l8 -19l25 -61l2 -6l51 -133l8 -17l133 250l31 35l84 180l53 90l8 21l-49 115l12 26h-8l-12 2l-64 135l-12 11l-2 -4l-2 -15l-31 -67l-129 -244l-26 -19h2 l-6 -57l-76 -180l-2 -8v-11zM295 449l16 -33l74 -160l53 -137l4 2l17 10h-2l116 268l33 27l15 53l96 277l-8 24l-21 60l-10 14l-8 20l-19 37l-47 109l-69 -121l-80 -125z" />
<glyph unicode="&#xf9;" horiz-adv-x="948" d="M174 1475l10 30l103 -4l-2 -135l-9 -70v-106l3 -23v-34l-17 -89l2 -137l2 -22l6 -164l-18 -264l16 -264l9 -56l55 -45l35 -6l28 10l56 23l92 33h-2l10 6l72 41h-2l53 30l12 158l6 287l-8 135l-8 135l4 174l16 29l-6 2h2l-14 8l-8 246l4 98l59 2l45 -2l8 -53l-6 -94 l-22 -21l8 -20l10 -21l-14 -137l-6 -141v-45l-2 -58l14 -45l-6 -483l12 -258l21 -121l-97 -16l-10 55l-10 59l-25 25l-231 -107l-53 -30l-97 2l-92 80l-2 84l13 168l-3 294l-12 238l2 150l17 55l-13 78zM319 1765l9 17l78 26l14 -12l86 -123l51 -57l-2 -14l-55 -15l-13 12 l-34 39l-91 80z" />
<glyph unicode="&#xfa;" horiz-adv-x="948" d="M174 1475l10 30l103 -4l-2 -135l-9 -70v-106l3 -23v-34l-17 -89l2 -137l2 -22l6 -164l-18 -264l16 -264l9 -56l55 -45l35 -6l28 10l56 23l92 33h-2l10 6l72 41h-2l53 30l12 158l6 287l-8 135l-8 135l4 174l16 29l-6 2h2l-14 8l-8 246l4 98l59 2l45 -2l8 -53l-6 -94 l-22 -21l8 -20l10 -21l-14 -137l-6 -141v-45l-2 -58l14 -45l-6 -483l12 -258l21 -121l-97 -16l-10 55l-10 59l-25 25l-231 -107l-53 -30l-97 2l-92 80l-2 84l13 168l-3 294l-12 238l2 150l17 55l-13 78zM408 1599v15l51 59l86 123l14 12l78 -26l8 -17l-43 -47l-88 -80 l-33 -41l-14 -12z" />
<glyph unicode="&#xfb;" horiz-adv-x="948" d="M174 1475l10 30l103 -4l-2 -135l-9 -70v-106l3 -23v-34l-17 -89l2 -137l2 -22l6 -164l-18 -264l16 -264l9 -56l55 -45l35 -6l28 10l56 23l92 33h-2l10 6l72 41h-2l53 30l12 158l6 287l-8 135l-8 135l4 174l16 29l-6 2h2l-14 8l-8 246l4 98l59 2l45 -2l8 -53l-6 -94 l-22 -21l8 -20l10 -21l-14 -137l-6 -141v-45l-2 -58l14 -45l-6 -483l12 -258l21 -121l-97 -16l-10 55l-10 59l-25 25l-231 -107l-53 -30l-97 2l-92 80l-2 84l13 168l-3 294l-12 238l2 150l17 55l-13 78zM299 1624l139 131l43 41l41 -4l49 -53l54 -58l51 -39l4 -20l-21 -27 l-57 -20l-35 47l-67 80l-27 14l-27 -20l-49 -64l-22 -47l-62 8z" />
<glyph unicode="&#xfc;" horiz-adv-x="948" d="M174 1475l10 30l103 -4l-2 -135l-9 -70v-106l3 -23v-34l-17 -89l2 -137l2 -22l6 -164l-18 -264l16 -264l9 -56l55 -45l35 -6l28 10l56 23l92 33h-2l10 6l72 41h-2l53 30l12 158l6 287l-8 135l-8 135l4 174l16 29l-6 2h2l-14 8l-8 246l4 98l59 2l45 -2l8 -53l-6 -94 l-22 -21l8 -20l10 -21l-14 -137l-6 -141v-45l-2 -58l14 -45l-6 -483l12 -258l21 -121l-97 -16l-10 55l-10 59l-25 25l-231 -107l-53 -30l-97 2l-92 80l-2 84l13 168l-3 294l-12 238l2 150l17 55l-13 78zM301 1669l4 25l70 61l18 -2l51 -57l11 -19l-39 -39l-29 -36l-22 8 l-29 28zM518 1679l39 39l25 37l26 -6l31 -31l31 -26l-4 -27l-70 -63l-18 4l-52 57z" />
<glyph unicode="&#xfd;" horiz-adv-x="800" d="M45 1460l6 33l62 16l43 9l22 -72l-4 -27l19 -22l20 -47l39 -97l24 -82l58 -159l26 -60l41 -108l7 -10l10 -7l4 13l12 24l2 8l13 31l22 45l37 105l31 100l41 84l45 166l18 76l8 43l56 -6l30 -15l23 -16l-45 -117l-25 -35l-24 -53l-25 -51l-41 -123l-84 -225l-72 -174v-127 l2 -80l3 -25v-55l-9 -166l9 -43l-3 -88l7 -57l6 -58l-19 -14l-100 4l4 61l21 150l6 27l-4 20l-9 291l4 104l-8 60l-6 43l-2 16l-51 131l-23 51l-63 160l-72 164l-6 37zM324 1599v15l51 59l86 123l14 12l78 -26l8 -17l-43 -47l-88 -80l-33 -41l-14 -12z" />
<glyph unicode="&#xfe;" horiz-adv-x="763" d="M160 -4l26 182v191l2 252l25 43l-20 6l-9 344l-10 434l-8 49l41 10l76 -12l-9 -100l-10 -62v-139l86 -78l107 -98l16 -25q18 -12 56 -40.5t61 -43.5l127 -106l-2 -96l-29 -21l-80 -76l-76 -57l-139 -147l-117 -121l-14 -62q2 -28 7 -66.5t7 -66.5l7 -96l-48 -4zM258 817 l8 -313l2 -15l-2 -67l19 -8q3 2 37 26t51 35l155 162l84 94l11 23l-66 57l-43 47l-238 201l-6 -27z" />
<glyph unicode="&#xff;" horiz-adv-x="800" d="M45 1460l6 33l62 16l43 9l22 -72l-4 -27l19 -22l20 -47l39 -97l24 -82l58 -159l26 -60l41 -108l7 -10l10 -7l4 13l12 24l2 8l13 31l22 45l37 105l31 100l41 84l45 166l18 76l8 43l56 -6l30 -15l23 -16l-45 -117l-25 -35l-24 -53l-25 -51l-41 -123l-84 -225l-72 -174v-127 l2 -80l3 -25v-55l-9 -166l9 -43l-3 -88l7 -57l6 -58l-19 -14l-100 4l4 61l21 150l6 27l-4 20l-9 291l4 104l-8 60l-6 43l-2 16l-51 131l-23 51l-63 160l-72 164l-6 37zM217 1669l4 25l70 61l18 -2l51 -57l11 -19l-39 -39l-29 -36l-22 8l-29 28zM434 1679l39 39l25 37l26 -6 l31 -31l31 -26l-4 -27l-70 -63l-18 4l-52 57z" />
<glyph unicode="&#x152;" horiz-adv-x="995" d="M35 713l2 43l2 41l182 276l43 49l17 62l194 323l8 4l70 -4l84 -2l22 4l31 -2l119 4h82l31 5l8 -31l-4 -64l-8 -10l-64 19l-49 -5l-125 9l-76 -11l-2 -51l-20 -26l20 -52l-4 -112l8 -56l-10 -303l143 2l95 9l36 2l9 -7v-59l-9 -22l-20 -9l-158 19l-80 2l-18 -23l6 -403 l6 -219l-2 -27l68 -18l24 12l170 6l74 6l4 -41l-6 -37l-10 -22l-215 6l-103 6l-18 -12l-39 2l-6 -2l-53 -2l-17 31l-123 194l-24 62l-94 131l-115 188zM137 739l31 -39l96 -180l58 -74l90 -155l110 -156l-6 43l4 17l4 102l-2 57l-8 221l10 43l-6 27l-2 168l8 94l2 312l2 102 l-14 80l-39 -39l-14 -27l-15 -14l-102 -164l-82 -139l-119 -225z" />
<glyph unicode="&#x153;" horiz-adv-x="995" d="M35 713l2 43l2 41l182 276l43 49l17 62l194 323l8 4l70 -4l84 -2l22 4l31 -2l119 4h82l31 5l8 -31l-4 -64l-8 -10l-64 19l-49 -5l-125 9l-76 -11l-2 -51l-20 -26l20 -52l-4 -112l8 -56l-10 -303l143 2l95 9l36 2l9 -7v-59l-9 -22l-20 -9l-158 19l-80 2l-18 -23l6 -403 l6 -219l-2 -27l68 -18l24 12l170 6l74 6l4 -41l-6 -37l-10 -22l-215 6l-103 6l-18 -12l-39 2l-6 -2l-53 -2l-17 31l-123 194l-24 62l-94 131l-115 188zM137 739l31 -39l96 -180l58 -74l90 -155l110 -156l-6 43l4 17l4 102l-2 57l-8 221l10 43l-6 27l-2 168l8 94l2 312l2 102 l-14 80l-39 -39l-14 -27l-15 -14l-102 -164l-82 -139l-119 -225z" />
<glyph unicode="&#x178;" horiz-adv-x="800" d="M45 1460l6 33l62 16l43 9l22 -72l-4 -27l19 -22l20 -47l39 -97l24 -82l58 -159l26 -60l41 -108l7 -10l10 -7l4 13l12 24l2 8l13 31l22 45l37 105l31 100l41 84l45 166l18 76l8 43l56 -6l30 -15l23 -16l-45 -117l-25 -35l-24 -53l-25 -51l-41 -123l-84 -225l-72 -174v-127 l2 -80l3 -25v-55l-9 -166l9 -43l-3 -88l7 -57l6 -58l-19 -14l-100 4l4 61l21 150l6 27l-4 20l-9 291l4 104l-8 60l-6 43l-2 16l-51 131l-23 51l-63 160l-72 164l-6 37zM217 1669l4 25l70 61l18 -2l51 -57l11 -19l-39 -39l-29 -36l-22 8l-29 28zM434 1679l39 39l25 37l26 -6 l31 -31l31 -26l-4 -27l-70 -63l-18 4l-52 57z" />
<glyph unicode="&#x2c6;" horiz-adv-x="462" d="M41 1624l139 131l43 41l41 -4l49 -53l54 -58l51 -39l4 -20l-21 -27l-57 -20l-35 47l-67 80l-27 14l-27 -20l-49 -64l-22 -47l-62 8z" />
<glyph unicode="&#x2dc;" horiz-adv-x="552" d="M41 1647l94 104l39 37l55 -2l131 -92l33 4l41 51l6 29l56 -2l16 -21l-113 -149l-51 -9l-151 103l-39 6l-35 -43l-10 -43h-58z" />
<glyph unicode="&#x2000;" horiz-adv-x="909" />
<glyph unicode="&#x2001;" horiz-adv-x="1819" />
<glyph unicode="&#x2002;" horiz-adv-x="909" />
<glyph unicode="&#x2003;" horiz-adv-x="1819" />
<glyph unicode="&#x2004;" horiz-adv-x="606" />
<glyph unicode="&#x2005;" horiz-adv-x="454" />
<glyph unicode="&#x2006;" horiz-adv-x="303" />
<glyph unicode="&#x2007;" horiz-adv-x="303" />
<glyph unicode="&#x2008;" horiz-adv-x="227" />
<glyph unicode="&#x2009;" horiz-adv-x="363" />
<glyph unicode="&#x200a;" horiz-adv-x="101" />
<glyph unicode="&#x2010;" horiz-adv-x="540" d="M66 721l4 35l-2 57l12 4l47 -4l47 -6l94 -2l127 6l72 10l10 -14l2 -74l-28 -14l-113 10l-158 2l-43 -6l-45 -8z" />
<glyph unicode="&#x2011;" horiz-adv-x="540" d="M66 721l4 35l-2 57l12 4l47 -4l47 -6l94 -2l127 6l72 10l10 -14l2 -74l-28 -14l-113 10l-158 2l-43 -6l-45 -8z" />
<glyph unicode="&#x2012;" horiz-adv-x="540" d="M66 721l4 35l-2 57l12 4l47 -4l47 -6l94 -2l127 6l72 10l10 -14l2 -74l-28 -14l-113 10l-158 2l-43 -6l-45 -8z" />
<glyph unicode="&#x2013;" horiz-adv-x="1024" d="M29 780l4 23l51 -4l51 -2l223 -2l17 -17l20 17l119 2l315 -6l45 4l44 6l86 8l-3 -76l-30 -14l-127 4l-72 2l-92 -6l-539 6l-43 -8l-47 -8l-20 6l2 37z" />
<glyph unicode="&#x2014;" horiz-adv-x="2048" d="M35 780l4 23q23 0 55 -4q14 -2 47 -2h461l41 -21l23 21h219l690 -6l188 6q126 4 179 4l83 8l-6 -80l-30 -14l-121 8l-355 2l-92 -8l-176 4l-16 20l-43 -20l-1039 4l-38 -8q-28 -8 -48 -8l-24 6l4 37l-4 20q0 1 -1 3.5t-1 4.5z" />
<glyph unicode="&#x2018;" horiz-adv-x="284" d="M51 1210v23l4 8l35 66l78 108l41 60l27 28l49 -39l-13 -24l-39 -33l-55 -74l-10 -43l12 -10l49 -41l2 -27l-43 -38l-30 -41l-27 -5l-27 31l-26 27z" />
<glyph unicode="&#x2019;" horiz-adv-x="290" d="M0 1182l12 24l43 33l56 74l6 51l-6 2l-54 45l2 27l47 41q5 7 18.5 21.5t18.5 21.5l23 -2l20 -33l11 -31q2 0 8 2t8 2l27 -24v-23l-9 -8l-32 -66l-72 -108l-49 -72l-25 -16z" />
<glyph unicode="&#x201a;" horiz-adv-x="290" d="M-10 -168l12 25l43 32l55 74l6 51l-6 2l-53 45l2 27l47 41q5 7 18.5 21.5t18.5 21.5l23 -2l20 -33l10 -31q2 0 8.5 2.5t8.5 2.5l26 -25v-23l-8 -8l-33 -65l-71 -109l-49 -71l-25 -17z" />
<glyph unicode="&#x201c;" horiz-adv-x="544" d="M51 1210v23l4 8l35 66l78 108l41 60l27 28l49 -39l-13 -24l-39 -33l-55 -74l-10 -43l12 -10l49 -41l2 -27l-43 -38l-30 -41l-27 -5l-27 31l-26 27zM305 1221v22l8 8l33 66l72 108l49 72l25 16l53 -38l-13 -25l-43 -33l-55 -74l-6 -51l6 -2l53 -45l-2 -26l-47 -41 q-5 -7 -18.5 -21.5t-18.5 -21.5l-22 2l-21 32l-10 31q-2 0 -8 -2t-8 -2z" />
<glyph unicode="&#x201d;" horiz-adv-x="544" d="M0 1167l12 25l43 33l56 73l6 52l-6 2l-54 45l2 26l47 41q5 7 18.5 21.5t18.5 21.5l23 -2l20 -32l11 -31q2 0 8 2t8 2l27 -25v-22l-9 -8l-32 -66l-72 -108l-49 -72l-25 -17zM260 1178l12 24l39 33l56 74l10 43l-12 10l-50 41l-2 27l43 38l31 41l27 4l26 -30l27 -27l27 -24 v-23l-5 -8l-34 -66l-78 -108l-41 -60l-27 -28z" />
<glyph unicode="&#x201e;" horiz-adv-x="526" d="M-10 -168l12 25l43 32l55 74l6 51l-6 2l-53 45l2 27l47 41q5 7 18.5 21.5t18.5 21.5l23 -2l20 -33l10 -31q2 0 8.5 2.5t8.5 2.5l26 -25v-23l-8 -8l-33 -65l-71 -109l-49 -71l-25 -17zM250 -158l12 25l39 33l55 73l11 43l-13 11l-49 41l-2 26l43 39l31 41l26 4l27 -31 l27 -26l26 -25v-22l-4 -8l-35 -66l-77 -109l-41 -59l-27 -29z" />
<glyph unicode="&#x2022;" horiz-adv-x="634" d="M49 748l2 24l94 94l37 13l11 32l24 39l35 23l45 61h47l98 -110l2 -17l31 -24l109 -99v-55l-119 -123l-21 6l-4 -43l-96 -96l-47 -8l-43 45l-55 74l4 22l-148 115z" />
<glyph unicode="&#x2026;" horiz-adv-x="759" d="M29 61l2 27l47 41q5 7 18.5 21.5t18.5 21.5l22 -2l21 -33l10 -31q2 0 8 2.5t8 2.5l27 -25v-23l-45 -36l-37 -43l-18 2l-15 10l2 12l2 -2l-4 6q-1 0 -7 2t-7 2zM289 61l2 27l47 41q5 7 18.5 21.5t18.5 21.5l22 -2l21 -33l10 -31q2 0 8 2.5t8 2.5l27 -25v-23l-45 -36 l-37 -43l-18 2l-15 10l2 12l2 -2l-4 6q-1 0 -7 2t-7 2zM549 61l2 27l47 41q5 7 18.5 21.5t18.5 21.5l22 -2l21 -33l10 -31q2 0 8.5 2.5t8.5 2.5l26 -25v-23l-45 -36l-37 -47l-18 2l-15 20l2 6l3 -2l-5 6q-1 0 -7 2t-7 2z" />
<glyph unicode="&#x202f;" horiz-adv-x="363" />
<glyph unicode="&#x2039;" horiz-adv-x="497" d="M35 676v63l65 70l54 33l-4 18l38 39l91 98l-5 2l64 74l57 -39l15 -24l-78 -76l-39 -29l-60 -67l-114 -125l121 -144l18 -16l102 -96l46 -37l-25 -49l-45 -31l-41 47l-8 23v28l-70 47l-51 70l-19 4l-102 107z" />
<glyph unicode="&#x203a;" horiz-adv-x="497" d="M86 1010l14 24l58 39l63 -74l-4 -2l90 -98l39 -39l-4 -18l53 -33l66 -70v-63l-10 -10l-103 -107l-18 -4l-51 -70l-70 -47v-28l-8 -23l-41 -47l-45 31l-25 49l45 37l103 96l18 16l121 144l-115 125l-59 67l-39 29z" />
<glyph unicode="&#x205f;" horiz-adv-x="454" />
<glyph unicode="&#x20ac;" horiz-adv-x="755" d="M16 672l47 16l125 -4l7 72l-2 51l-5 29l-57 2l-35 -9l-45 -8l-26 4l4 33l-4 19l-2 14l4 22l53 -4l43 -2l65 -2l50 56h-2l167 282l5 14l122 222v12l23 33l94 -21l19 -35l-60 -84l-47 -18l-10 -47l-111 -178l-102 -178l-33 -58l199 6l84 9l-13 -74l-30 -15l-234 5h-37 l-4 -66l4 -88h41l158 -2l43 4l45 4l25 -6l-6 -31l6 -16l-15 -19l-14 -20l-43 8l-35 6l-96 2l-62 -2l9 -10l16 -57v2l96 -142l107 -172l143 -165l17 -39l-72 -54l-25 2l-30 50l-33 67l-158 238l-31 49l-82 110l-75 119l-101 -2l-77 -8z" />
<glyph unicode="&#x2122;" horiz-adv-x="1011" d="M31 1432l10 75l94 -6l55 -2h56l73 2l56 2h33l4 -33l-2 -47l-29 2l-12 5l-50 14h-67l-2 -45l-2 -39l-4 -121l2 -111l6 -135l14 -67l-20 -17l-31 -4l-37 4v70l8 100l-2 8v9l11 123l-9 63l4 80l-8 57v23h-20l-25 2l-12 -8l-8 -4l-66 -9zM465 1456v41l43 6l35 10l53 -96 l78 -108l20 -37l6 2h-2l64 88l24 31l15 24l51 101l37 -11l22 -22l-8 -160l-8 -31l6 -22l14 -266l7 -99l-80 2v39l6 88l2 105l2 108l-14 133l-43 -55l-52 -86l-8 -31l-39 -24l-37 10l-16 39l-61 104l-23 33l-24 23l2 -9l2 -18l-9 -10l11 -2l6 -326l6 -98l-4 -23l-76 -4l-4 23 l6 47v16l2 23l12 12l-12 4l4 96v146l-12 121l6 22z" />
<glyph unicode="&#x25fc;" horiz-adv-x="1525" d="M0 0v1526h1526v-1526h-1526z" />
</font>
</defs>
</svg>
