<?xml version="1.0" standalone="no"?>
<!DOCTYPE svg PUBLIC "-//W3C//DTD SVG 1.1//EN" "http://www.w3.org/Graphics/SVG/1.1/DTD/svg11.dtd" >
<svg xmlns="http://www.w3.org/2000/svg" xmlns:xlink="http://www.w3.org/1999/xlink" version="1.1">
<metadata></metadata>
<defs>
<font id="norsebold" horiz-adv-x="937" >
<font-face units-per-em="2048" ascent="1792" descent="-256" />
<missing-glyph horiz-adv-x="419" />
<glyph unicode="&#xfb01;" horiz-adv-x="1208" d="M129 10l10 242l29 88l-27 37l6 209l5 223v47l4 16l-9 353v12l-12 37l4 100l-6 129l105 2l137 -4l53 -20l23 24l219 2v-104l-19 -92l-80 -2l-120 20l-72 -4l-29 -6h-14l-6 -74l-4 -100l-25 -15l31 -30l4 -254l119 4h28l131 8l13 -86l-6 -51l-17 -68h-69l-33 15l-10 -6 l-160 4v-39l6 -86l-2 -172l6 -90l8 -86l-4 -64l10 -29v-100l-82 -4zM842 0l28 182l25 41l-25 35v74v383l7 63l6 113l-15 51l-6 410l17 37l-19 10l-10 102l96 6l133 -8l-10 -149l-10 -52l-6 -268l-6 -104l8 -80l4 -51l-19 -43l23 -15v-567l4 -31l4 -39l-2 -75l-90 -29l-43 2z " />
<glyph unicode="&#xfb02;" horiz-adv-x="1392" d="M129 10l10 242l29 88l-27 37l6 209l5 223v47l4 16l-9 353v12l-12 37l4 100l-6 129l105 2l137 -4l53 -20l23 24l219 2v-104l-19 -92l-80 -2l-120 20l-72 -4l-29 -6h-14l-6 -74l-4 -100l-25 -15l31 -30l4 -254l119 4h28l131 8l13 -86l-6 -51l-17 -68h-69l-33 15l-10 -6 l-160 4v-39l6 -86l-2 -172l6 -90l8 -86l-4 -64l10 -29v-100l-82 -4zM840 1501h106l68 17l51 -48l-2 -133l-8 -69l-6 -230l-13 -225v-100l-22 -35l24 -27l4 -125l7 -141l-2 -2l8 -143v-60l155 4l45 15l97 4l6 -43l-8 -129l-31 -39l-156 10l-28 -2h-88l-19 12l-90 -16l-92 4 l-4 139l26 37l-18 51l14 338l-4 668l27 35l-33 10z" />
<glyph horiz-adv-x="0" />
<glyph horiz-adv-x="682" />
<glyph horiz-adv-x="0" />
<glyph horiz-adv-x="0" />
<glyph unicode="&#xd;" horiz-adv-x="419" />
<glyph unicode=" "  horiz-adv-x="419" />
<glyph unicode="&#x09;" horiz-adv-x="419" />
<glyph unicode="&#xa0;" horiz-adv-x="419" />
<glyph unicode="!" horiz-adv-x="487" d="M86 133l4 39l80 74l63 73l35 -4l35 -51l23 -45h28l45 -45v-35l-75 -69l-72 -82l-27 4l-26 24l-4 29l-21 6zM121 1485l65 12l199 -8l-10 -98l-27 -15l19 -41l-7 -282l-38 -72l28 -37l-10 -209l-8 -215l-68 -24h-88l-12 34l2 93l2 272l-18 96l-13 330l21 25l-25 30l-2 60z " />
<glyph unicode="&#x22;" horiz-adv-x="536" d="M53 1458l8 53l172 -2l7 -34l-17 -136l-8 -133l-4 -123l-35 -20l-86 2l-24 27l8 104l-8 156zM303 1458l21 53l145 -4l12 -32l-10 -123l-10 -146l-10 -129l-43 -10l-89 2l3 123l-7 164z" />
<glyph unicode="#" horiz-adv-x="862" d="M14 465l17 123l37 2l67 -2l27 -4h6l6 61l14 182l11 39l6 86l-45 -12h-107l-2 47l15 137l43 4l32 -2l37 -8l41 -2l6 84l25 14l-25 31v164l2 53l6 37l134 6l55 -8v-51l-6 -53l-25 -127l-10 -154l43 -2l102 2h13l4 35l14 82l-2 98v88l6 51l6 39h144l53 -20l-6 -51l-21 -50 l-18 -118l-12 -148l122 8l25 -12l-14 -121l-15 -57l-49 -2l-88 10l-12 -108v6l-17 -269h56l53 9l55 -9l-6 -127l-14 -61h-51l-105 16h-4l-4 -47v2l-8 -145l6 -121l-4 -45l-4 -47l-133 -4l-58 4l2 45l13 135l39 94l-23 27l8 111l-33 2l-125 -2l-6 -54l-6 -102l-24 -23l18 -45 l-4 -94l4 -20l-10 -45l-8 -33l-181 8l2 43l5 43l28 139l4 45v37l9 99l-39 -2h-39l-56 -3zM334 575l69 -4l89 -2l6 76l12 92l6 97l21 34l-13 33l4 53l-55 -2h-108l-13 -116v6z" />
<glyph unicode="$" horiz-adv-x="751" d="M8 281l25 51l98 96l92 -96l-12 -39l37 8l86 -86l10 115l4 340l-29 43l-24 28l2 33l-39 12l-82 107l-31 22l-110 134v104l104 115l33 6l-14 22l51 54l121 159h10l-4 80l-10 47l8 17l123 -2l2 -60l-10 -69v-17l12 -2l31 -37l53 -53l55 -37l121 -104l-119 -125l-74 53 l-84 82l-2 -98l2 -86l-6 -262l21 -33l241 -287l31 -39l-2 -121l-86 -114v2l-45 -56l-86 -106l-80 -105l-2 -47l12 -43v-57l-98 -8l-27 10l15 107v34l-176 166zM233 1112l117 -154l2 91l10 192l-2 33l-2 -2l-36 -49l-25 -6zM432 555l2 -283v-36l41 55l74 112l-64 93l-34 34 v-2z" />
<glyph unicode="%" horiz-adv-x="1185" d="M12 1188l133 162l25 39l25 36l-2 -4l40 70l99 2l94 -129v-18l27 -27l98 -121l4 -90l-119 -137v-8l-98 -148l-102 -4l-33 43l-53 86l-127 164l-3 39zM170 1163l66 -94l-3 -6l11 -4l55 -68l29 29l2 12l73 111l-57 84l-67 94l-52 -84l-10 -18zM174 47l39 84l27 29l53 80 l29 26l-9 27l131 305h-2l72 156l21 34l120 254l45 74l80 217l45 109l37 80l150 -52v-47l-27 -43l-33 -10l19 -22l-146 -240l2 6l-75 -178l-99 -209v2l-190 -426h2l-66 -158v2l-37 -110l-20 -39l-51 -21zM637 350l129 189l86 139l96 2l96 -131l-6 -25l43 -30l90 -117l5 -88 l-117 -146v-2l-98 -147l-103 -2l-29 41l-53 84l-131 155l-2 41zM793 338l61 -80l-2 -10l14 -4l60 -74l28 37l-2 -2l80 114l-59 87l-68 100l-59 -90z" />
<glyph unicode="&#x26;" horiz-adv-x="1060" d="M20 500l185 196l8 17l68 80l10 8l-96 110l4 52l-41 4l-107 118l2 84l125 129l70 88l82 119l139 11l72 -80l43 -52l118 -96l-2 -57l-106 -94l-57 59l-54 53l-14 37h-20l-39 41l-91 -98l-30 -10l10 -19l-51 -70l53 -73l27 -31l260 -315l-8 -49h43l96 -113l16 29l76 106 l78 123l55 4l115 -104l-49 -72l-52 -47l-65 -78l-66 -90l93 -117l170 -180l-23 -64l-125 -90l-102 123l-19 43l4 43l-30 -12l-78 104l-4 -2l-78 -100l-60 -72l-55 -100l-106 4l-64 -2l-26 49l-91 109l-2 12l-198 219zM209 459l27 -37l110 -113l66 -82l24 -26l82 84l27 53 l22 18l43 56l-14 10l-203 252l-121 -129l-39 -15l13 -26z" />
<glyph unicode="'" horiz-adv-x="278" d="M45 1454l8 53l172 -2l6 -35l-16 -135l-8 -133l-4 -123l-35 -20l-86 2l-25 26l9 105l-9 156z" />
<glyph unicode="(" horiz-adv-x="473" d="M57 653l2 105l7 153l18 127l72 316l116 295l25 26l68 -8l116 -70l-59 -133l-70 -47l4 -47l-67 -129l-25 -176l-31 -199l-26 -14l18 -55l-4 -37l23 -264l-2 6l86 -352l108 -191l27 -68l-103 -69l-75 -2l-33 71l-23 68l13 37l-43 27l-66 213l-14 67l-29 119l-14 137z" />
<glyph unicode=")" horiz-adv-x="468" d="M-8 1602l106 69l66 8l24 -26l84 -211l-18 -39l41 -17l14 -34l80 -308l14 -126l7 -154l2 -105l-15 -94l-14 -137l-31 -119l-14 -67l-66 -213l-47 -27l19 -31l-23 -90l-33 -71l-79 2l-103 69l27 66l108 209l88 329l31 29l-27 39l15 213l-12 104v-2l-27 203l-35 176l-59 121 l-52 100z" />
<glyph unicode="*" horiz-adv-x="452" d="M16 1348l7 65l2 43l28 2l37 -10l92 -21l-6 78l-8 51l2 21l72 6l55 -8l2 -16l-4 -50l-12 -75l32 8l74 26h37l10 -53v-53l-20 -12l-43 -4l-54 -5l3 -2l49 -67l37 -37l-5 -29l-61 -47l-25 -12l-26 43l-53 90l-23 -35l-22 -47l-31 -51l-15 4l-73 33l-11 26l31 45l43 52l19 26 l-29 4h-84z" />
<glyph unicode="+" horiz-adv-x="778" d="M39 711l6 135h88l43 -8l62 -9h75l6 97l-8 12l-10 156l4 59l148 -2l39 -18l-17 -74l10 -33l-14 -141l-2 -54l66 -12l20 12l72 3l104 12l8 -19v-120l-10 -58l-53 8l-107 9l-75 8h-19l2 -182l10 -39l2 -52l-8 -41l-80 -10h-61l-53 10l8 46l8 63l6 35l2 31l8 63l-8 35v43h-30 h-97l-82 -10l-55 2z" />
<glyph unicode="," horiz-adv-x="372" d="M-10 -147l20 36l39 29l68 84l10 43l-90 74l2 35l78 73l57 76l31 -2l47 -41l22 -39l76 -57l2 -41l-10 -14l-59 -91l-52 -75l-41 -31v-31l-59 -76l-33 -30z" />
<glyph unicode="-" horiz-adv-x="528" d="M33 721l16 117l35 4l29 -2l49 -11l100 -6l144 21l59 6l27 -27l-3 -153l-34 -23l-119 12l-168 -8l-45 -2l-55 -4l-29 8z" />
<glyph unicode="." horiz-adv-x="356" d="M20 129l5 39l79 74l64 73l35 -4l35 -51l22 -45h29l45 -45v-35l-76 -69l-72 -82l-26 4l-27 24l-4 29l-20 6z" />
<glyph unicode="/" horiz-adv-x="694" d="M-18 -39l28 88l13 25l8 16l67 174l27 10l-19 25l105 326v-2l51 165l17 39l86 269l26 75l82 254l23 76l32 88l174 -53l-16 -43l-33 -27l11 -20l-103 -264l-35 -15l25 -28l-47 -144l-78 -219l-76 -252l-69 -200v2l-50 -170l-41 -121l-2 -45l-30 -86l-54 8z" />
<glyph unicode="0" horiz-adv-x="901" d="M37 807l57 119l72 143l33 -2l2 57l92 199l26 59l39 121l117 10l60 -4l157 -368v-35l29 -25l84 -168h-2l69 -131l-6 -84l-65 -118l2 4l-76 -181l-72 -116l-10 -43l-100 -250l-180 -21l-23 62l-18 47l-99 240h2l-86 163l-98 220zM223 774l109 -262l-4 -25l39 -34l88 -222 l14 35l61 119l27 -4l-8 35l43 106v-2l84 180l8 27l-8 16l-78 172l18 33l-30 -2l-140 332l-12 -33l-43 -86v-16l-133 -269l2 -14zM340 774l33 45l18 51l74 37l67 -80l29 -55l2 -59l-35 -39l-8 -19l-18 -37l-76 -36l-61 92l-23 45z" />
<glyph unicode="1" horiz-adv-x="600" d="M18 1217l45 40l48 29l94 80l33 -14l16 59l82 82l26 20l138 -59l-8 -186l-19 -574l21 -510l-25 -18l35 -23l4 -45l-8 -82l-76 -16h-135v113l26 405q-1 28 -5 83t-5 83l-2 68l10 88l35 22l-37 25l-8 65l4 250l-55 -33l-125 -120l-49 67z" />
<glyph unicode="2" horiz-adv-x="788" d="M45 1212l131 123l31 -4l-4 27l86 82l65 76l129 -17l88 -115l58 -86l106 -114l-2 -88l-162 -351l-26 -51l-37 -47l-43 -16l12 -27l-26 -72l-72 -165l-37 -105l-20 -57l100 -8l119 12l26 -27l29 33l80 8l51 -41l-6 -166l-74 -20l-325 27l-132 -9l-63 -2l-33 150l43 106 l238 461q7 18 25.5 65.5t25.5 65.5l92 193l19 63l-76 92v19l-78 61l-35 -26l-47 -45l-25 -29l-71 -107l-109 43z" />
<glyph unicode="3" horiz-adv-x="706" d="M43 115l84 98l41 37l31 26l34 21l150 162v-2l68 98l-41 53h-4l-125 164l2 37l-35 -16l-88 92v116l110 127l31 5l-8 32l18 37l70 101l29 28h-17l-80 2l-168 -16l-90 2l-12 94l20 105l99 -15l35 -2l20 -28l21 32l135 -4l260 -6l14 -147l-241 -301l-17 -52l-20 -32l20 -45 l125 -123l72 -90l78 -66l-11 -143l-110 -117l-178 -197l-105 -164l-78 -53z" />
<glyph unicode="4" horiz-adv-x="821" d="M47 385l62 174h-3l170 535l29 49l2 39l66 278l22 56l72 2l133 -52l-43 -151l-104 -311l-27 -19l-82 -303l-37 -23l17 -53l-35 -147l47 -2l104 2l78 -4v4l2 53l2 121l25 41l-31 20l2 144l199 10l4 -100l-16 -218l6 -176l8 -200l2 -148l-105 -16l-102 14l4 119l27 14 l-21 45l8 103h-126h-136l-168 -13z" />
<glyph unicode="5" horiz-adv-x="712" d="M45 94l88 94l96 82l127 156l39 2l2 41l72 84l-51 43l-139 125l-142 80l-45 98l23 135l35 236l6 57l10 150l41 28h10l207 -12l135 14l76 -2l8 -168l-37 -30l-104 10l-60 29l-10 -23l-94 4l-19 -119l-8 -80l-28 -24l28 -27l-14 -127l33 -32l69 -52l2 -28l29 2l145 -117 l87 -64l6 -182l-154 -149l-143 -166l-105 -172l-80 -35z" />
<glyph unicode="6" horiz-adv-x="864" d="M37 557l39 66l57 102l25 70l41 47l182 395l33 25l-4 38l49 107l61 133l199 -92l-53 -105l-54 -73l-92 -187l-84 -39l41 -22l-192 -397l-17 -52l-35 -69l80 -109l49 -63l72 -76l27 -41l12 18l84 107l64 90l20 43l-33 31l-22 20l-92 94l-78 52l98 151h25l92 -76l65 -69 l2 -8l25 2l111 -84l10 -142l-76 -118l-59 -76l-166 -244l-97 -4l-77 -6l-21 49v-2l-67 98l8 37l-45 -10l-197 231z" />
<glyph unicode="7" horiz-adv-x="768" d="M66 1323l2 150l45 36l141 -10h246l112 4l60 2l41 -125l-58 -139l-159 -481l-31 -53l-2 -52l-70 -264l-41 -18l4 -105l-30 -139l-17 -41v-39l-20 -78l-187 35l-22 64l29 55l36 61l-6 9l68 192l84 283l16 22l-12 15l12 47l68 209l47 61l-16 35l75 258l-98 6l-29 10l-49 -8 l-149 -16z" />
<glyph unicode="8" horiz-adv-x="870" d="M45 358v127l105 117l110 100l57 76l-59 56l-51 86l-14 -7l-136 138l13 114l176 195l53 -23l-18 54l26 49l51 71h140l12 -22l41 -62l168 -186l59 -47l15 -137l-82 -90l-78 -78l-10 -33l-72 -76l63 -71l101 -95l61 -57l49 -45l4 -135l-124 -137l-60 -56l-61 -98l-70 -92 l-152 2l-106 137zM242 440l96 -102l-19 -31l52 -10l65 -76l13 -16l53 49l90 115l51 77l-51 50l2 24l-27 -2l-137 135l-10 -12l-148 -168l-12 -4zM246 1104l20 -31l43 -53l25 -16l98 -121l131 161l35 35l6 25l-57 63l-129 142l-27 -39l-51 -51l-12 -9z" />
<glyph unicode="9" horiz-adv-x="841" d="M29 1061l90 135l57 31l2 35l49 75l115 170l84 -2l66 2l102 -139l221 -250l4 -119l-92 -170l-59 -106l-41 -82l-25 -57l-82 -191l-39 -98l-57 -57l8 -56l-94 -205l-186 95l32 61l113 205l31 88l24 20l-4 19l103 203l57 41l-23 32l68 156l37 68l35 75l-19 19l-51 57l6 33 l-26 -4l-105 125l-18 18l-93 -133l-49 -49l-24 -49l-21 -35l82 -80l4 -16l56 -47l65 -50l-96 -145l-53 18l-84 84l-103 88l-24 27l-37 33z" />
<glyph unicode=":" horiz-adv-x="356" d="M20 117l5 39l79 73l64 74l35 -4l35 -51l22 -45h29l45 -45v-35l-76 -70l-72 -82l-26 4l-27 25l-4 29l-20 6zM20 809l5 39l79 74l64 73l35 -4l35 -51l22 -45h29l45 -45v-35l-76 -70l-72 -81l-26 4l-27 24l-4 29l-20 6z" />
<glyph unicode=";" horiz-adv-x="372" d="M-12 -160l20 37l39 29l68 84l10 43l-90 73l2 35l78 74l57 76l31 -2l47 -41l22 -39l76 -57l2 -41l-10 -15l-59 -90l-52 -76l-41 -30v-31l-59 -76l-33 -31zM27 809l4 39l80 74l63 73l35 -4l35 -51l22 -45h29l45 -45v-35l-76 -70l-71 -81l-27 4l-27 24l-4 29l-20 6z" />
<glyph unicode="&#x3c;" horiz-adv-x="778" d="M39 825l61 27l45 29l45 28l93 52l49 -11l8 37l53 41l88 57q27 15 62 50l84 39l75 -66l15 -111l-125 -49l-74 -28v2l-96 -60l-47 -16l2 2l-125 -86l137 -96l-2 2l57 -23l156 -86q11 -4 33 -8l106 -35l-41 -96l-43 -72l-65 4l-64 47l-22 21h2l-205 117l-74 51h-41l-41 35h2 l-102 63l-4 37z" />
<glyph unicode="=" horiz-adv-x="778" d="M39 496l6 94v8l6 78l88 4l47 -12h166l35 -6l176 12l170 10l6 -170l-67 -27l-201 21l-29 -2l-235 2l-51 -14l-52 -2zM45 807l2 78l-2 22l16 88l91 -14h-2l229 -14l41 -11l112 13h66l51 16h90l-4 -156l-63 -30l-129 14l-35 25l-21 -25l-53 -4l-219 10l-47 -12l-59 -4z" />
<glyph unicode="&#x3e;" horiz-adv-x="778" d="M39 999l41 97l43 71l65 -4l64 -47l22 -20h-2l205 -117l74 -51h41l41 -35h-2l102 -64l4 -36l2 -103l-61 -26l-45 -29l-45 -29l-92 -51l-50 10l-8 -37l-53 -41l-88 -57q-27 -15 -61 -49l-84 -39l-76 66l-15 110l125 49l74 29v-2l96 59l47 17l-2 -2l125 86l-137 96l2 -2 l-57 22l-156 86q-15 6 -33 9z" />
<glyph unicode="?" horiz-adv-x="720" d="M12 1200l119 111l123 131l6 8l41 55l133 -18l82 -135l-8 -29l45 -18l125 -127l-4 -121l-180 -199l-50 -74l-2 -6l13 -176l-11 -12l11 -21l8 -26l-23 -78l-180 8l-4 49l16 39l-16 72l6 78l-8 110l47 49l-4 -4l25 37l36 51l60 56l35 43l20 37l-37 57l19 24l-68 27l-27 43 l-43 33l-22 -19l-21 -18l-41 -63l-65 -123l-59 12l-64 61zM203 129l4 39l80 74l63 73l35 -4l35 -51l22 -45h29l45 -45v-35l-76 -69l-71 -82l-27 4l-27 24l-4 29l-20 6z" />
<glyph unicode="@" horiz-adv-x="1148" d="M-4 684l2 121l84 72l10 22l209 201l29 -2l6 32l78 87l88 100l33 47l157 -4l228 -254l-5 -23l17 11l182 -156l2 -61l-6 -70l-221 -172l-49 14l10 -43l-88 -74l-103 -108l-86 6l-120 141l-2 29l-50 21l-41 41l-34 43l2 65l73 61l25 23l63 61l84 99l82 8l60 -68l-4 -34l26 4 l72 -78l45 -55l76 71l12 15l-41 41l-6 26l-41 19l-100 98v2v-2l-117 123l-23 18l-112 -117l-41 -41l-51 -10l2 -37l-170 -170l-76 -84l20 -28l185 -199l-13 -22l37 -2l230 -226l41 33l102 98l41 11v30l172 152l70 -49l36 -66l-36 -49l-148 -111h-2l-115 -112l-118 -109h-121 l-31 51l-225 240l-29 53l-43 17l-170 180zM498 727l61 -63v-2l66 -70l75 65l43 54l-127 139z" />
<glyph unicode="A" horiz-adv-x="870" d="M51 41l55 250l21 129l23 22l-3 41l41 252l7 39l12 43v37l61 274l37 43l-22 31l14 82l18 86l21 129l168 8l35 -16l-2 -72l6 -16l8 -21l65 -313l-14 -37l25 -18l98 -494v-28l51 -191l21 -129l-13 -16l31 -33l23 -88l-152 -49h-27l-34 18l-27 258l-8 57l16 21l-18 12l-17 68 l-4 16l-28 -4h-2l-41 -29l-138 -32l-18 -9l-41 -16l-23 -145l-18 -23l14 -57l-22 -137l-127 12zM332 545l133 41l57 14l-41 221l-8 107l-8 37l-31 217l-41 -250l-20 -10l10 -33l-27 -199l2 2l-24 -133z" />
<glyph unicode="B" horiz-adv-x="802" d="M129 18l16 279l-8 96v307l13 95l-9 219l-2 235l23 62l-21 20l-6 31l-4 117l172 49l270 -240l140 -110l8 -41l-14 -121l-121 -131l-103 -119l15 -12l30 -27l23 -20l215 -205l2 -43l-2 -94l-80 -82l-84 -60l-59 -73l-72 -58l-143 -121l-86 27zM307 324l21 -21l-2 -125 l104 111l55 47l25 16l78 86l-74 92l-29 27l-49 51l-92 82l-18 12v-362zM313 1004l4 -175l17 13l100 108l31 4l8 52l72 77h2l-64 58l-10 24l-16 2l-140 123l2 -180z" />
<glyph unicode="C" horiz-adv-x="634" d="M16 811l134 225l73 72v49l51 82v8l115 189l2 16l72 84l153 -102l-57 -103l-57 -80l-35 -22l-10 -55l-123 -183l-68 -106l-39 -70l-26 -49l30 -59l21 -39l29 -29l18 -41l76 -117l94 -159l106 -140l48 -76l-107 -88l-70 -45l-69 109l-4 24l-156 242l16 37l-94 88l-73 133 l-48 74z" />
<glyph unicode="D" horiz-adv-x="811" d="M133 1473l88 26l109 33l127 -174l22 -68l72 -71l53 -95l156 -206l-2 4l37 -48l2 -149l-37 -61l-211 -324l-72 -145l-137 -218l-68 19l-133 18l4 138v-2l13 458l-13 80l-2 537l21 39l-21 26l-6 107zM295 868l33 -96l-9 -405l-2 -111l2 4l91 146l36 18l-16 18l86 166 l68 113l37 59l-37 56l-9 49l-40 33l-203 325l-13 14l7 -296z" />
<glyph unicode="E" horiz-adv-x="741" d="M127 84l12 139l-2 23l2 94l25 53l-19 25v47l-2 110l9 17l-17 203l6 75v152l2 160l-2 104l23 35l-23 27l-10 145l96 12h117l29 -16l80 16l202 2l2 -80l-4 -114h-96l-49 16l-6 -2l-33 -6l-113 4h-18v-22l-4 -52v-202l-10 -62l-23 -37l21 -16l4 -80l75 -4l80 4l105 10 l26 -51l-12 -61l-4 -84l-100 4l-129 4h-33l-8 -211l12 -59l-6 -19l2 -4l4 -199l18 -4l17 -4l164 2l51 17l102 -2l-4 -103l-8 -76l-47 -20l-135 2l-117 12h-72l-16 -10l-154 2z" />
<glyph unicode="F" horiz-adv-x="712" d="M129 10l10 242l29 88l-27 37l6 209l5 223v47l4 16l-9 353v12l-12 37l4 100l-6 129l105 2l137 -4l53 -20l23 24l219 2v-104l-19 -92l-80 -2l-120 20l-72 -4l-29 -6h-14l-6 -74l-4 -100l-25 -15l31 -30l4 -254l119 4h28l131 8l13 -86l-6 -51l-17 -68h-69l-33 15l-10 -6 l-160 4v-39l6 -86l-2 -172l6 -90l8 -86l-4 -64l10 -29v-100l-82 -4z" />
<glyph unicode="G" horiz-adv-x="768" d="M31 694l4 152l31 20l10 15l39 73l155 238l21 55l108 131l-4 23l97 133l77 -45l23 -16l53 -50l-47 -80l-72 -61l2 -29l-155 -219l-80 -131l-47 -90l-27 -41l37 -59l121 -199l2 -63l33 4l69 -152l2 12l13 324l-4 16l-9 25l-2 170l178 8l25 -61l-25 -146l7 -12l-11 -508 l-18 -12l18 -29l2 -92l-194 -21l-27 54l-24 49l-72 108l-100 181l-2 2l-48 90l-61 84z" />
<glyph unicode="H" horiz-adv-x="960" d="M123 1485l49 33l176 -23l-8 -147l-10 -125l-25 -39l23 -19l-9 -135l19 -199l4 3l86 30l33 -12l18 22l84 37l39 19l23 10l8 55l-6 187l-4 184l-11 82l31 59l76 -2l117 -4l-7 -102l-12 -117v2l-2 -78l-20 -26l18 -60l-10 -192l6 -92l4 -41l4 -367l4 -262l15 -51l4 -113 l-76 -4h-119l-27 72l15 229l20 18l-30 33l4 316l-6 28l2 37l-119 -26h-2l-160 -68l-10 -356l-2 -7l12 -108l6 -92l-2 -76l-84 -4l-129 12l6 137l33 39l-29 31l-4 129l19 281l-15 231l9 201l-15 127l-6 135l6 41z" />
<glyph unicode="I" horiz-adv-x="495" d="M129 0l29 182l24 41l-24 35v74v383l6 63l6 113l-14 51l-6 410l16 37l-19 10l-10 102l96 6l134 -8l-11 -149l-10 -52l-6 -268l-6 -104l8 -80l4 -51l-18 -43l22 -15v-567l4 -31l4 -39l-2 -75l-90 -29l-43 2z" />
<glyph unicode="J" horiz-adv-x="571" d="M23 51v107l90 37l90 59l30 43l-4 18l9 224v79l-2 29l-3 127l11 113l-13 102l-6 346l27 33l-37 21v114l195 4l26 -71l-24 -181l8 -571l-23 -16l17 -62l24 -352l-32 -57l-66 -58l-55 -8l2 -41l-152 -123z" />
<glyph unicode="K" horiz-adv-x="856" d="M121 1495l149 21l78 -27l-20 -508l4 -98v-62l6 17l31 80l34 55l82 196l35 88l58 58l-9 51l64 150l125 -50l63 -49l-59 -108l-125 -207l-6 -10l6 -7l-148 -280l11 -17l121 -276l71 -158l70 -116l-10 -29l28 -6l60 -133l-148 -82l-51 2l-59 151l-109 244l10 27l-69 112l2 4 l-82 170v-336l8 -98l2 -100l2 -23l8 -39l-2 -104l-108 -4l-109 2l2 213l6 2l-2 8l35 82l-24 29l4 32v13l12 442l-18 111l-11 258l4 164z" />
<glyph unicode="L" horiz-adv-x="679" d="M127 1501h106l68 17l53 -48l-4 -133l-8 -69l-6 -230l-12 -225v-100l-23 -35l25 -27l4 -125l6 -141l-2 -2l8 -143v-60l156 4l45 15l96 4l6 -43l-8 -129l-31 -39l-155 10l-29 -2h-88l-19 12l-90 -16l-92 4l-4 139l27 37l-19 51l15 338l-5 668l27 35l-33 10z" />
<glyph unicode="M" horiz-adv-x="1009" d="M123 74l27 78v-2l-19 49v41v53l12 563l33 35l-33 22l2 185l-6 100l-6 100l17 29l-3 10l-18 27l-2 20l-2 115l88 6l76 11l92 -187l115 -201l2 -2l34 54l66 118l31 11l-17 34l107 179l100 -19l55 -24l-14 -303l-24 -48l20 -28l16 -660l-10 -129l15 -112l4 -66l12 -129 l-170 -8l-49 31l-6 88l14 135v219l25 37l-23 20l-8 95l14 446l-8 76l-18 -33l-35 -45v-21l-27 -49l-29 -73l-73 -15l-56 2l-49 97l-8 16l-14 33l-43 84l-4 -138v-2l2 -2v-282l-15 -35l15 -291l4 -301v-88l-193 -4z" />
<glyph unicode="N" horiz-adv-x="954" d="M127 10l14 164l-6 19v34l12 291l17 60l-19 40l9 426l-9 117l-8 213v107l162 45l184 -254l52 -82l16 -8l67 -111v176l21 64l-21 28v164l119 2l84 -14l-4 -139l-20 -504l-17 -86l23 -68l14 -448v-66l12 -114l-26 -70l-113 -2l-69 4l2 160l-2 194l2 197l6 10l-6 39l-2 213 l-33 55l-29 31l-29 45l-59 72l-84 116l-53 74v-110l-29 -74l2 -4l25 -27l-4 -467l-11 -73l19 -78l-2 -213l6 -29l-4 -131l-121 -4z" />
<glyph unicode="O" horiz-adv-x="851" d="M41 815l16 10l111 269l37 26l-10 23l110 276l8 13l13 61l4 14h76l18 2l92 4l41 -112l105 -256l10 -55h20l56 -123l69 -152l-6 -113l-100 -202l-17 -21l-2 -33l-47 -98l-110 -262l-25 -66l-4 -22l-187 2l-2 68l-71 178l6 35h-23l-61 127l-74 174l-49 104zM229 784l2 -24 l27 -68l18 -59l-20 -25l41 -28l41 -84l90 -236l8 -22l66 215l24 24h-2l-2 37l101 246l-17 51l-24 70l-80 206l18 25l-37 23l-47 125l-12 38l-113 -297l-28 -8l14 -32z" />
<glyph unicode="P" horiz-adv-x="765" d="M125 6l22 293l19 63l-25 27l2 512l4 10v336l-10 84l-4 137l98 43l66 25l184 -190l8 -35l43 -15l213 -225l-4 -141l-63 -78l-66 -64l-127 -139l-137 -155l-18 -21l4 -141l-33 -49l33 -29l12 -254l-102 -6zM309 969l23 -41v-201l59 64l103 120l22 -6l21 51l32 48l-88 98 l-14 28l-18 13l-119 133l-2 -146l2 -98z" />
<glyph unicode="Q" horiz-adv-x="856" d="M39 719l2 106l111 203l51 31l-13 67l164 385l54 -4l116 15l152 -371l61 -127h8l101 -223l-17 -103l-84 -163h-2l-20 -54l-45 -114l-39 -15h2l4 -47l-76 -190l-16 -33l-6 -21l-2 -10l24 -49l95 -188l22 -52l-154 -86l-63 25l-66 188l9 27l-31 35l-29 80l-135 284l4 43h2 l-39 31l-90 205zM242 782l24 -71l53 -150l121 -313l4 -8l207 514l-26 67l-35 84l-10 82l-37 23l-99 284l-106 -245l2 -27l-51 -88z" />
<glyph unicode="R" horiz-adv-x="837" d="M127 6l12 326l31 80l-18 26v80l-9 240l-4 106l17 41l-11 391l-8 177l162 65l326 -283l12 -51q1 -1 9.5 1t17.5 4.5t10 2.5l98 -90l-14 -123l-94 -114l-66 -78l-35 -43l-57 -78q7 -15 26 -45.5t25 -42.5v-35q41 -46 43 -49l82 -139v-27l12 -6l29 -59v2l37 -78l67 -72 l-2 -59l-166 -92l-49 79l-71 164l2 35l-25 12l-76 144l-18 47l-82 166l-12 12l2 -223l6 -205l6 -18l2 -170l-82 -33zM307 1077l8 -37l4 -12l5 -22l8 -183l-4 -75l14 8l102 127q54 66 105 135l22 29l-41 51l-14 10l-188 186l-4 -157v-21z" />
<glyph unicode="S" horiz-adv-x="645" d="M57 1042l101 144l104 121l-4 22l53 72l41 26q2 4 -0.5 13.5t-1.5 11.5l49 82l62 -6l121 -96l-56 -82l-53 -54l-18 -36l-117 -138l-21 -28l-4 -15l-61 -82l39 -47l39 -55l32 -21l191 -178l55 -41l4 -159l-73 -121l-111 -135l-82 -111q-5 -8 -11.5 -23.5t-8.5 -19.5l2 8 l-23 -65l-55 -68l-168 105l31 75l39 35q33 48 53 80q6 10 17.5 29.5t17.5 29.5l57 27l-4 23l133 204l-70 84l-41 19l-157 145l-99 96z" />
<glyph unicode="T" horiz-adv-x="712" d="M25 1343l6 168l198 -10l39 -16q6 0 22 7t25 7q31 -2 86 -2l95 6l188 4l12 -86l-6 -96h-92l-20 6l-62 4h-63l-13 -86l9 -45l-5 -151q0 -70 2 -82q0 -8 1.5 -25t1.5 -24v-35l2 -158l-19 -123l-2 -2l25 -39v-385l16 -145l-59 -33l-58 -10l-108 16v158l30 129l-18 20l10 289 l11 418l-13 96l8 131l-12 84l-45 6l-10 -10q-21 -6 -33 -6l-125 -4z" />
<glyph unicode="U" horiz-adv-x="952" d="M141 1430l27 75l184 -4l-2 -182l-6 -66l-20 -73l2 -37l20 -45l-14 -78l2 -70l2 -76l4 -153l-14 -242l14 -239l2 -31l23 -19l16 -2l68 25l167 72l9 133l6 260l-13 250v170l-8 258l4 145l103 2l94 -2l12 -100l-6 -111l-22 -12l20 -23l-14 -133l-4 -112l-2 -29l-21 -35 l21 -20l10 -60l-4 -454l12 -240l29 -160l-199 -32l-16 110l-4 14l-156 -79l-66 -35l-129 2l-122 106l-3 103l7 96l28 37l-20 22l-2 269l-15 223l2 145l17 43l-10 64z" />
<glyph unicode="V" horiz-adv-x="880" d="M41 1466l92 41l119 9l33 -234l32 -149l-2 -9l11 -16l47 -305l53 -293l23 -221l26 221l-2 -2l31 203l20 61l21 199l35 223l30 20l-2 15l-12 35l31 213l35 39l178 -31l-25 -113q-25 -92 -33 -127l-18 -69q-9 -28 -12 -58l-47 -344l-27 -51l2 -4q0 -1 1 -6.5t1 -7.5v-13 l-68 -311l-28 -29l20 -43l-24 -143l-39 -172l-109 -4l-82 -2l-35 90l-36 225l10 49l-25 13l-61 401v-6l-23 80l8 69l-24 35q-25 84 -33 123l-16 139z" />
<glyph unicode="W" horiz-adv-x="1042" d="M92 1501l103 8l-5 -2l68 13l64 -31l-27 -223l16 -113l6 -180v2l19 -580l106 490l80 12l94 -18l15 -43v-56l12 -22l74 -369l2 14l14 394q2 50 8.5 161.5t8.5 161.5l10 21v76l-12 182l4 114l145 -4l61 -28l-24 -328l-16 -29l16 -18l-39 -588l-23 -33l21 -24l-4 -64 l-21 -258l-2 -6v-133l-106 -4l-94 -2l-11 90q-8 32 -20.5 77.5t-16.5 61.5l11 58l-33 10l-68 284l-82 -278v-31l-63 -209v-63l-84 -2h-12l-105 14v94l-6 64l-14 336l-8 188l8 39l-25 21l-16 466l-12 15z" />
<glyph unicode="X" horiz-adv-x="849" d="M39 39l43 113l39 100l29 10l-7 47l35 90l37 93l51 116l-4 17l70 188l-31 64l-14 32l-11 17l-22 61v-2l-90 201l31 35l-45 2l-99 235l92 49l111 19l59 -205l-2 8l45 -102l17 -84l8 -21l25 -63l30 -88l6 24l52 131l20 68l53 141l19 11l-13 10l37 162l60 4h20l133 -60 l-82 -168l-32 -22l16 -35l-74 -176v2l-90 -205v4l-24 -65l32 -105l56 -155l55 -172l20 -27l70 -172l-27 -21l41 -2l13 -14l14 -98l-180 -56l-47 88v31l-49 131l2 19l-113 338l-57 -203l2 2l-39 -125v2l-60 -205l-32 -67l-74 12z" />
<glyph unicode="Y" horiz-adv-x="819" d="M39 1397l4 65l113 35l67 16l41 -110v-35l17 -49l43 -154l38 -80l17 -73l-6 -17l22 -32l23 -74l8 10l37 129l31 121l30 68l35 139l25 59l18 101l92 -27l43 -14l64 -45l-58 -148l-47 -20l23 -19l-14 -29l-31 -63l-31 -90l-80 -234l-59 -165l2 -60l-6 -22l2 -60l-23 -61 l25 -21l-8 -147l8 -35l-2 -88l14 -133l-59 -41l-156 4l4 117l14 100l25 49l-20 27l-9 264l4 88l-20 98l-43 125l-80 203v-2l-29 70l-34 94l12 65l-39 17z" />
<glyph unicode="Z" horiz-adv-x="739" d="M53 147l86 220v49l88 211l74 213l66 207l47 38l-37 19l57 172l4 45h-73l-109 -6l-74 -8l-78 -4l-34 36l14 166l166 -2l8 -30l45 26l92 -2l180 8l70 2l17 -86l4 -96l-23 -2l-63 -160l2 8l-45 -159l-33 -127l-107 -267l2 5l-47 -177l-41 -47l21 -24l-49 -189l112 2l84 2 l160 19l31 -31v-69l-17 -117l-100 12h-137l-72 2l-18 21l-117 -27h-115z" />
<glyph unicode="[" horiz-adv-x="499" d="M135 1589l19 51l92 2l114 -2l41 2h70l21 -45l-5 -106h-86l-90 8v-33l-2 -313l8 -66l-8 -280l8 -35l-6 -178l-2 -135v-137l-26 -27l26 -16l8 -76l-8 -211h35l55 8l80 4l17 -43l-2 -113l-240 7h-21q-10 -2 -38 -2l-56 16l4 84l7 41l-9 160l11 170q0 14 -1 54t-1 64v357 l-9 237l11 168q0 12 -1 38.5t-1 41.5l32 33l-35 22q-4 149 -6 197z" />
<glyph unicode="\" horiz-adv-x="694" d="M-18 1536l174 53l32 -88l23 -76l82 -254l26 -75l87 -269l16 -39l51 -165v2l105 -326l-19 -25l27 -10l67 -174l9 -16l12 -25l28 -88l-122 -49l-54 -8l-30 86l-2 45l-41 121l-50 170v-2l-69 200l-76 252l-78 219l-47 144l25 28l-35 15l-103 264l11 20l-33 27z" />
<glyph unicode="]" horiz-adv-x="493" d="M-2 -106l6 106h90l90 -8v33l2 313l-8 65l8 281l-8 35l6 178l2 135v137l27 27l-27 16l-8 76l8 211h-34l-56 -8l-76 -4l-16 43l8 112l230 -6h20l39 2l55 -16l-4 -84l-6 -41l8 -160l-10 -170l2 -118v-357l8 -237l-10 -168l2 -80l-33 -33l35 -22l6 -197l6 -53l-18 -52l-92 -2 l-115 2l-41 -2h-76z" />
<glyph unicode="^" d="M80 0v70l16 49l-12 65l10 365l-6 723l14 51l-14 18l-4 142l14 4l-10 29l401 -7l19 2h197l20 -4l98 9l29 -5l4 -69l-12 -47l6 -66l-12 -346l6 -743l-15 -52l23 -18l-2 -137l-2 -35l-90 -4l-398 8l-18 -2h-115l-24 4l-58 -8l-10 4l-33 -4zM135 360l25 -12v-162l2 7l-6 -125 l569 4h35l8 149l2 244l12 248v102l-2 27l-2 178v10l-6 109l25 10l-25 35l2 123l2 135l-602 -2l-2 -113l-2 -14l-8 -246l-12 -248v-102l2 -27l2 -178v-10l6 -109z" />
<glyph unicode="_" horiz-adv-x="1024" d="M27 -129l12 113l35 4l28 -2l54 -6l503 -5l48 -22l61 20l143 11l60 6l26 -27l-2 -143l-34 -23l-119 13l-406 -7l-65 23l-9 -23l-200 -2l-45 -2l-56 -4l-28 8z" />
<glyph unicode="`" horiz-adv-x="393" d="M41 1739l39 30l110 43l31 -28l80 -117l51 -63l-43 -31l-80 -23l-18 13l-31 43l-80 73z" />
<glyph unicode="a" horiz-adv-x="870" d="M51 41l55 250l21 129l23 22l-3 41l41 252l7 39l12 43v37l61 274l37 43l-22 31l14 82l18 86l21 129l168 8l35 -16l-2 -72l6 -16l8 -21l65 -313l-14 -37l25 -18l98 -494v-28l51 -191l21 -129l-13 -16l31 -33l23 -88l-152 -49h-27l-34 18l-27 258l-8 57l16 21l-18 12l-17 68 l-4 16l-28 -4h-2l-41 -29l-138 -32l-18 -9l-41 -16l-23 -145l-18 -23l14 -57l-22 -137l-127 12zM332 545l133 41l57 14l-41 221l-8 107l-8 37l-31 217l-41 -250l-20 -10l10 -33l-27 -199l2 2l-24 -133z" />
<glyph unicode="b" horiz-adv-x="802" d="M129 18l16 279l-8 96v307l13 95l-9 219l-2 235l23 62l-21 20l-6 31l-4 117l172 49l270 -240l140 -110l8 -41l-14 -121l-121 -131l-103 -119l15 -12l30 -27l23 -20l215 -205l2 -43l-2 -94l-80 -82l-84 -60l-59 -73l-72 -58l-143 -121l-86 27zM307 324l21 -21l-2 -125 l104 111l55 47l25 16l78 86l-74 92l-29 27l-49 51l-92 82l-18 12v-362zM313 1004l4 -175l17 13l100 108l31 4l8 52l72 77h2l-64 58l-10 24l-16 2l-140 123l2 -180z" />
<glyph unicode="c" horiz-adv-x="634" d="M16 811l134 225l73 72v49l51 82v8l115 189l2 16l72 84l153 -102l-57 -103l-57 -80l-35 -22l-10 -55l-123 -183l-68 -106l-39 -70l-26 -49l30 -59l21 -39l29 -29l18 -41l76 -117l94 -159l106 -140l48 -76l-107 -88l-70 -45l-69 109l-4 24l-156 242l16 37l-94 88l-73 133 l-48 74z" />
<glyph unicode="d" horiz-adv-x="811" d="M133 1473l88 26l109 33l127 -174l22 -68l72 -71l53 -95l156 -206l-2 4l37 -48l2 -149l-37 -61l-211 -324l-72 -145l-137 -218l-68 19l-133 18l4 138v-2l13 458l-13 80l-2 537l21 39l-21 26l-6 107zM295 868l33 -96l-9 -405l-2 -111l2 4l91 146l36 18l-16 18l86 166 l68 113l37 59l-37 56l-9 49l-40 33l-203 325l-13 14l7 -296z" />
<glyph unicode="e" horiz-adv-x="741" d="M127 84l12 139l-2 23l2 94l25 53l-19 25v47l-2 110l9 17l-17 203l6 75v152l2 160l-2 104l23 35l-23 27l-10 145l96 12h117l29 -16l80 16l202 2l2 -80l-4 -114h-96l-49 16l-6 -2l-33 -6l-113 4h-18v-22l-4 -52v-202l-10 -62l-23 -37l21 -16l4 -80l75 -4l80 4l105 10 l26 -51l-12 -61l-4 -84l-100 4l-129 4h-33l-8 -211l12 -59l-6 -19l2 -4l4 -199l18 -4l17 -4l164 2l51 17l102 -2l-4 -103l-8 -76l-47 -20l-135 2l-117 12h-72l-16 -10l-154 2z" />
<glyph unicode="f" horiz-adv-x="712" d="M129 10l10 242l29 88l-27 37l6 209l5 223v47l4 16l-9 353v12l-12 37l4 100l-6 129l105 2l137 -4l53 -20l23 24l219 2v-104l-19 -92l-80 -2l-120 20l-72 -4l-29 -6h-14l-6 -74l-4 -100l-25 -15l31 -30l4 -254l119 4h28l131 8l13 -86l-6 -51l-17 -68h-69l-33 15l-10 -6 l-160 4v-39l6 -86l-2 -172l6 -90l8 -86l-4 -64l10 -29v-100l-82 -4z" />
<glyph unicode="g" horiz-adv-x="768" d="M31 694l4 152l31 20l10 15l39 73l155 238l21 55l108 131l-4 23l97 133l77 -45l23 -16l53 -50l-47 -80l-72 -61l2 -29l-155 -219l-80 -131l-47 -90l-27 -41l37 -59l121 -199l2 -63l33 4l69 -152l2 12l13 324l-4 16l-9 25l-2 170l178 8l25 -61l-25 -146l7 -12l-11 -508 l-18 -12l18 -29l2 -92l-194 -21l-27 54l-24 49l-72 108l-100 181l-2 2l-48 90l-61 84z" />
<glyph unicode="h" horiz-adv-x="960" d="M123 1485l49 33l176 -23l-8 -147l-10 -125l-25 -39l23 -19l-9 -135l19 -199l4 3l86 30l33 -12l18 22l84 37l39 19l23 10l8 55l-6 187l-4 184l-11 82l31 59l76 -2l117 -4l-7 -102l-12 -117v2l-2 -78l-20 -26l18 -60l-10 -192l6 -92l4 -41l4 -367l4 -262l15 -51l4 -113 l-76 -4h-119l-27 72l15 229l20 18l-30 33l4 316l-6 28l2 37l-119 -26h-2l-160 -68l-10 -356l-2 -7l12 -108l6 -92l-2 -76l-84 -4l-129 12l6 137l33 39l-29 31l-4 129l19 281l-15 231l9 201l-15 127l-6 135l6 41z" />
<glyph unicode="i" horiz-adv-x="495" d="M129 0l29 182l24 41l-24 35v74v383l6 63l6 113l-14 51l-6 410l16 37l-19 10l-10 102l96 6l134 -8l-11 -149l-10 -52l-6 -268l-6 -104l8 -80l4 -51l-18 -43l22 -15v-567l4 -31l4 -39l-2 -75l-90 -29l-43 2z" />
<glyph unicode="j" horiz-adv-x="571" d="M23 51v107l90 37l90 59l30 43l-4 18l9 224v79l-2 29l-3 127l11 113l-13 102l-6 346l27 33l-37 21v114l195 4l26 -71l-24 -181l8 -571l-23 -16l17 -62l24 -352l-32 -57l-66 -58l-55 -8l2 -41l-152 -123z" />
<glyph unicode="k" horiz-adv-x="856" d="M121 1495l149 21l78 -27l-20 -508l4 -98v-62l6 17l31 80l34 55l82 196l35 88l58 58l-9 51l64 150l125 -50l63 -49l-59 -108l-125 -207l-6 -10l6 -7l-148 -280l11 -17l121 -276l71 -158l70 -116l-10 -29l28 -6l60 -133l-148 -82l-51 2l-59 151l-109 244l10 27l-69 112l2 4 l-82 170v-336l8 -98l2 -100l2 -23l8 -39l-2 -104l-108 -4l-109 2l2 213l6 2l-2 8l35 82l-24 29l4 32v13l12 442l-18 111l-11 258l4 164z" />
<glyph unicode="l" horiz-adv-x="679" d="M127 1501h106l68 17l53 -48l-4 -133l-8 -69l-6 -230l-12 -225v-100l-23 -35l25 -27l4 -125l6 -141l-2 -2l8 -143v-60l156 4l45 15l96 4l6 -43l-8 -129l-31 -39l-155 10l-29 -2h-88l-19 12l-90 -16l-92 4l-4 139l27 37l-19 51l15 338l-5 668l27 35l-33 10z" />
<glyph unicode="m" horiz-adv-x="1009" d="M123 74l27 78v-2l-19 49v41v53l12 563l33 35l-33 22l2 185l-6 100l-6 100l17 29l-3 10l-18 27l-2 20l-2 115l88 6l76 11l92 -187l115 -201l2 -2l34 54l66 118l31 11l-17 34l107 179l100 -19l55 -24l-14 -303l-24 -48l20 -28l16 -660l-10 -129l15 -112l4 -66l12 -129 l-170 -8l-49 31l-6 88l14 135v219l25 37l-23 20l-8 95l14 446l-8 76l-18 -33l-35 -45v-21l-27 -49l-29 -73l-73 -15l-56 2l-49 97l-8 16l-14 33l-43 84l-4 -138v-2l2 -2v-282l-15 -35l15 -291l4 -301v-88l-193 -4z" />
<glyph unicode="n" horiz-adv-x="954" d="M127 10l14 164l-6 19v34l12 291l17 60l-19 40l9 426l-9 117l-8 213v107l162 45l184 -254l52 -82l16 -8l67 -111v176l21 64l-21 28v164l119 2l84 -14l-4 -139l-20 -504l-17 -86l23 -68l14 -448v-66l12 -114l-26 -70l-113 -2l-69 4l2 160l-2 194l2 197l6 10l-6 39l-2 213 l-33 55l-29 31l-29 45l-59 72l-84 116l-53 74v-110l-29 -74l2 -4l25 -27l-4 -467l-11 -73l19 -78l-2 -213l6 -29l-4 -131l-121 -4z" />
<glyph unicode="o" horiz-adv-x="851" d="M41 815l16 10l111 269l37 26l-10 23l110 276l8 13l13 61l4 14h76l18 2l92 4l41 -112l105 -256l10 -55h20l56 -123l69 -152l-6 -113l-100 -202l-17 -21l-2 -33l-47 -98l-110 -262l-25 -66l-4 -22l-187 2l-2 68l-71 178l6 35h-23l-61 127l-74 174l-49 104zM229 784l2 -24 l27 -68l18 -59l-20 -25l41 -28l41 -84l90 -236l8 -22l66 215l24 24h-2l-2 37l101 246l-17 51l-24 70l-80 206l18 25l-37 23l-47 125l-12 38l-113 -297l-28 -8l14 -32z" />
<glyph unicode="p" horiz-adv-x="765" d="M125 6l22 293l19 63l-25 27l2 512l4 10v336l-10 84l-4 137l98 43l66 25l184 -190l8 -35l43 -15l213 -225l-4 -141l-63 -78l-66 -64l-127 -139l-137 -155l-18 -21l4 -141l-33 -49l33 -29l12 -254l-102 -6zM309 969l23 -41v-201l59 64l103 120l22 -6l21 51l32 48l-88 98 l-14 28l-18 13l-119 133l-2 -146l2 -98z" />
<glyph unicode="q" horiz-adv-x="856" d="M39 719l2 106l111 203l51 31l-13 67l164 385l54 -4l116 15l152 -371l61 -127h8l101 -223l-17 -103l-84 -163h-2l-20 -54l-45 -114l-39 -15h2l4 -47l-76 -190l-16 -33l-6 -21l-2 -10l24 -49l95 -188l22 -52l-154 -86l-63 25l-66 188l9 27l-31 35l-29 80l-135 284l4 43h2 l-39 31l-90 205zM242 782l24 -71l53 -150l121 -313l4 -8l207 514l-26 67l-35 84l-10 82l-37 23l-99 284l-106 -245l2 -27l-51 -88z" />
<glyph unicode="r" horiz-adv-x="837" d="M127 6l12 326l31 80l-18 26v80l-9 240l-4 106l17 41l-11 391l-8 177l162 65l326 -283l12 -51q1 -1 9.5 1t17.5 4.5t10 2.5l98 -90l-14 -123l-94 -114l-66 -78l-35 -43l-57 -78q7 -15 26 -45.5t25 -42.5v-35q41 -46 43 -49l82 -139v-27l12 -6l29 -59v2l37 -78l67 -72 l-2 -59l-166 -92l-49 79l-71 164l2 35l-25 12l-76 144l-18 47l-82 166l-12 12l2 -223l6 -205l6 -18l2 -170l-82 -33zM307 1077l8 -37l4 -12l5 -22l8 -183l-4 -75l14 8l102 127q54 66 105 135l22 29l-41 51l-14 10l-188 186l-4 -157v-21z" />
<glyph unicode="s" horiz-adv-x="645" d="M57 1042l101 144l104 121l-4 22l53 72l41 26q2 4 -0.5 13.5t-1.5 11.5l49 82l62 -6l121 -96l-56 -82l-53 -54l-18 -36l-117 -138l-21 -28l-4 -15l-61 -82l39 -47l39 -55l32 -21l191 -178l55 -41l4 -159l-73 -121l-111 -135l-82 -111q-5 -8 -11.5 -23.5t-8.5 -19.5l2 8 l-23 -65l-55 -68l-168 105l31 75l39 35q33 48 53 80q6 10 17.5 29.5t17.5 29.5l57 27l-4 23l133 204l-70 84l-41 19l-157 145l-99 96z" />
<glyph unicode="t" horiz-adv-x="712" d="M25 1343l6 168l198 -10l39 -16q6 0 22 7t25 7q31 -2 86 -2l95 6l188 4l12 -86l-6 -96h-92l-20 6l-62 4h-63l-13 -86l9 -45l-5 -151q0 -70 2 -82q0 -8 1.5 -25t1.5 -24v-35l2 -158l-19 -123l-2 -2l25 -39v-385l16 -145l-59 -33l-58 -10l-108 16v158l30 129l-18 20l10 289 l11 418l-13 96l8 131l-12 84l-45 6l-10 -10q-21 -6 -33 -6l-125 -4z" />
<glyph unicode="u" horiz-adv-x="952" d="M141 1430l27 75l184 -4l-2 -182l-6 -66l-20 -73l2 -37l20 -45l-14 -78l2 -70l2 -76l4 -153l-14 -242l14 -239l2 -31l23 -19l16 -2l68 25l167 72l9 133l6 260l-13 250v170l-8 258l4 145l103 2l94 -2l12 -100l-6 -111l-22 -12l20 -23l-14 -133l-4 -112l-2 -29l-21 -35 l21 -20l10 -60l-4 -454l12 -240l29 -160l-199 -32l-16 110l-4 14l-156 -79l-66 -35l-129 2l-122 106l-3 103l7 96l28 37l-20 22l-2 269l-15 223l2 145l17 43l-10 64z" />
<glyph unicode="v" horiz-adv-x="880" d="M41 1466l92 41l119 9l33 -234l32 -149l-2 -9l11 -16l47 -305l53 -293l23 -221l26 221l-2 -2l31 203l20 61l21 199l35 223l30 20l-2 15l-12 35l31 213l35 39l178 -31l-25 -113q-25 -92 -33 -127l-18 -69q-9 -28 -12 -58l-47 -344l-27 -51l2 -4q0 -1 1 -6.5t1 -7.5v-13 l-68 -311l-28 -29l20 -43l-24 -143l-39 -172l-109 -4l-82 -2l-35 90l-36 225l10 49l-25 13l-61 401v-6l-23 80l8 69l-24 35q-25 84 -33 123l-16 139z" />
<glyph unicode="w" horiz-adv-x="1042" d="M92 1501l103 8l-5 -2l68 13l64 -31l-27 -223l16 -113l6 -180v2l19 -580l106 490l80 12l94 -18l15 -43v-56l12 -22l74 -369l2 14l14 394q2 50 8.5 161.5t8.5 161.5l10 21v76l-12 182l4 114l145 -4l61 -28l-24 -328l-16 -29l16 -18l-39 -588l-23 -33l21 -24l-4 -64 l-21 -258q-2 -4 -2 -6v-133l-106 -4l-94 -2l-11 90q-8 32 -20.5 77.5t-16.5 61.5l11 58l-33 10l-68 284l-82 -278v-31l-63 -209v-63l-84 -2h-12l-105 14v94l-6 64l-14 336l-8 188l8 39l-25 21l-16 466l-12 15z" />
<glyph unicode="x" horiz-adv-x="849" d="M39 39l43 113l39 100l29 10l-7 47l35 90l37 93l51 116l-4 17l70 188l-31 64l-14 32l-11 17l-22 61v-2l-90 201l31 35l-45 2l-99 235l92 49l111 19l59 -205l-2 8l45 -102l17 -84l8 -21l25 -63l30 -88l6 24l52 131l20 68l53 141l19 11l-13 10l37 162l60 4h20l133 -60 l-82 -168l-32 -22l16 -35l-74 -176v2l-90 -205v4l-24 -65l32 -105l56 -155l55 -172l20 -27l70 -172l-27 -21l41 -2l13 -14l14 -98l-180 -56l-47 88v31l-49 131l2 19l-113 338l-57 -203l2 2l-39 -125v2l-60 -205l-32 -67l-74 12z" />
<glyph unicode="y" horiz-adv-x="819" d="M39 1397l4 65l113 35l67 16l41 -110v-35l17 -49l43 -154l38 -80l17 -73l-6 -17l22 -32l23 -74l8 10l37 129l31 121l30 68l35 139l25 59l18 101l92 -27l43 -14l64 -45l-58 -148l-47 -20l23 -19l-14 -29l-31 -63l-31 -90l-80 -234l-59 -165l2 -60l-6 -22l2 -60l-23 -61 l25 -21l-8 -147l8 -35l-2 -88l14 -133l-59 -41l-156 4l4 117l14 100l25 49l-20 27l-9 264l4 88l-20 98l-43 125l-80 203v-2l-29 70l-34 94l12 65l-39 17z" />
<glyph unicode="z" horiz-adv-x="739" d="M53 147l86 220v49l88 211l74 213l66 207l47 38l-37 19l57 172l4 45h-73l-109 -6l-74 -8l-78 -4l-34 36l14 166l166 -2l8 -30l45 26l92 -2l180 8l70 2l17 -86l4 -96l-23 -2l-63 -160l2 8l-45 -159l-33 -127l-107 -267l2 5l-47 -177l-41 -47l21 -24l-49 -189l112 2l84 2 l160 19l31 -31v-69l-17 -117l-100 12h-137l-72 2l-18 21l-117 -27h-115z" />
<glyph unicode="{" horiz-adv-x="505" d="M18 696l2 135l95 46l80 53l-45 295l28 35l-33 4l-30 172l30 63l185 94l86 64l49 -17l49 -129l-149 -75l-60 -35v-37l51 -365l9 -26l8 -47l8 -60l-172 -104q14 -8 47.5 -30t48.5 -30l88 -57l-61 -291l-41 -47l28 -33l-16 -161v-17l199 -110l22 -43l-75 -127l-224 155 l-94 35l-20 57l10 50l10 53l70 422l-60 37z" />
<glyph unicode="|" horiz-adv-x="475" d="M135 1612l127 8l78 -16l-4 -127l-35 -29l33 -59l-8 -459l-17 -64l8 -108l7 -64v-739l16 -166l-78 -2h6l-63 -6l-64 29l-4 63l8 35q0 5 2.5 18.5t2.5 18.5l2 143l30 14l-32 17v600l32 18l-28 27l2 55l8 90l-6 199l-4 266l-11 51z" />
<glyph unicode="}" horiz-adv-x="509" d="M-10 -45l137 57l72 49v15l2 26l-47 392l-21 84l-8 71l172 103l-98 59l-86 57l61 295l39 39l-25 62l17 145l-2 12l-185 88l-18 41l68 127l215 -131l94 -43l14 -61l-8 -41l-8 -51l-70 -420l57 -41l125 -72l-2 -129l-102 -53l-76 -49l45 -340l-20 -23l24 -4l29 -190l-31 -60 l-170 -96l-100 -76l-66 41z" />
<glyph unicode="~" d="M80 0v70l16 49l-12 65l10 365l-6 723l14 51l-14 18l-4 142l14 4l-10 29l401 -7l19 2h197l20 -4l98 9l29 -5l4 -69l-12 -47l6 -66l-12 -346l6 -743l-15 -52l23 -18l-2 -137l-2 -35l-90 -4l-398 8l-18 -2h-115l-24 4l-58 -8l-10 4l-33 -4zM135 360l25 -12v-162l2 7l-6 -125 l569 4h35l8 149l2 244l12 248v102l-2 27l-2 178v10l-6 109l25 10l-25 35l2 123l2 135l-602 -2l-2 -113l-2 -14l-8 -246l-12 -248v-102l2 -27l2 -178v-10l6 -109z" />
<glyph unicode="&#xa1;" horiz-adv-x="487" d="M86 1311v35l76 69l71 82l27 -4l27 -25l4 -28l20 -6l88 -82l-4 -39l-80 -74l-63 -74l-35 4l-35 52l-22 45h-29zM100 -4l11 98l26 15l-18 41l6 282l39 72l-29 37l10 209l9 215l67 24h88l13 -35l-3 -92l-2 -272l19 -96l12 -330l-20 -25l24 -30l2 -60l11 -49l-66 -12z" />
<glyph unicode="&#xa2;" horiz-adv-x="718" d="M14 686l2 133l97 86l202 234v14l-6 180l21 25l-29 26l-8 125l133 4l76 -14l-8 -119l-7 -217l78 -76l129 -86l-26 -53l-60 -63l-37 -25l-133 125l-22 19h-10l-70 -80l-64 -78l-41 -33l-24 -63l86 -99l-10 -37l45 -8l65 -84l35 -26l41 20l96 98l37 -41l70 -79l-41 -58 l-96 -65l-31 -35v-203l18 -141h-73l-64 -8l-72 18v64l33 32l-24 25v117v92l-97 123z" />
<glyph unicode="&#xa3;" horiz-adv-x="733" d="M8 137l68 60l82 45l43 -6v4l4 325q0 27 -1 64.5t-1 66.5h-19l-63 -6h-74l2 72l4 92h60h20l49 -4h21q0 62 2 191.5t2 193.5l43 80l49 59h41l-10 33l96 98l115 4l129 -10l8 -131l-39 -70l-84 29l-80 -6l-90 -123l-6 -141l-8 -207q66 4 94 4l104 8l29 -51l-12 -119l-66 -12 l-147 12l-2 -164v-8l6 -104l-31 -27l31 -8l10 -133v-49l131 -29l37 6l107 74l26 -66l35 -94l-45 -39l-111 -53h-65l-8 22l-29 -18l-182 59h-72l-102 -86l-68 97z" />
<glyph unicode="&#xa4;" d="M80 0v70l16 49l-12 65l10 365l-6 723l14 51l-14 18l-4 142l14 4l-10 29l401 -7l19 2h197l20 -4l98 9l29 -5l4 -69l-12 -47l6 -66l-12 -346l6 -743l-15 -52l23 -18l-2 -137l-2 -35l-90 -4l-398 8l-18 -2h-115l-24 4l-58 -8l-10 4l-33 -4zM135 360l25 -12v-162l2 7l-6 -125 l569 4h35l8 149l2 244l12 248v102l-2 27l-2 178v10l-6 109l25 10l-25 35l2 123l2 135l-602 -2l-2 -113l-2 -14l-8 -246l-12 -248v-102l2 -27l2 -178v-10l6 -109z" />
<glyph unicode="&#xa5;" horiz-adv-x="823" d="M41 1397l4 65l113 35l67 16l41 -110v-35l17 -49l43 -154l39 -80l16 -73l-6 -17l22 -32l23 -74l8 10l37 129l31 121l30 68l35 139l25 59l18 101l92 -27l43 -14l64 -45l-58 -148l-47 -20l23 -19l-14 -29l-31 -63l-31 -90l-80 -234l-35 -98l17 2h61l49 14h86l-8 -131 l-57 -26l-125 12l-31 21l-14 -15v-4l-6 -22l2 -60l-17 -45l86 6l160 8l6 -143l-61 -22l-178 16l-2 -49l8 -35l-2 -88l14 -133l-59 -41l-156 4l4 117l15 100l24 49l-20 27l-2 49l-84 2l-47 -12l-46 -2l-65 2l10 80v8l6 65l80 2l43 -10h98l-2 80l2 45l-67 4l-47 -10l-55 -4 l-58 4l2 65l-2 21l14 74l84 -13h-2l113 -6v6l-43 125l-80 203v-2l-28 70l-35 94l12 65l-39 17z" />
<glyph unicode="&#xa6;" horiz-adv-x="475" d="M133 -190l4 63l8 35l5 37l2 143l6 14l-8 7l10 358l-6 94l-4 98l112 11l68 -21l-11 -88l-6 -12l4 -6l-6 -115l-28 -22l30 -27l11 -430l12 -158l-72 -4h6l-65 -2zM135 1612l127 8l78 -14l-6 -150l-15 -352l-6 -125l6 -59l-4 -62l-94 -16l-67 28l8 91l4 147l-12 291v-2 l20 28l-31 27z" />
<glyph unicode="&#xa7;" d="M80 0v70l16 49l-12 65l10 365l-6 723l14 51l-14 18l-4 142l14 4l-10 29l401 -7l19 2h197l20 -4l98 9l29 -5l4 -69l-12 -47l6 -66l-12 -346l6 -743l-15 -52l23 -18l-2 -137l-2 -35l-90 -4l-398 8l-18 -2h-115l-24 4l-58 -8l-10 4l-33 -4zM135 360l25 -12v-162l2 7l-6 -125 l569 4h35l8 149l2 244l12 248v102l-2 27l-2 178v10l-6 109l25 10l-25 35l2 123l2 135l-602 -2l-2 -113l-2 -14l-8 -246l-12 -248v-102l2 -27l2 -178v-10l6 -109z" />
<glyph unicode="&#xa8;" horiz-adv-x="544" d="M41 1651l2 37l86 90l39 -2l72 -68l22 -41l-61 -57l-41 -47l-27 8l-12 18l-37 27zM283 1673l59 56v-5l47 56l37 -11l33 -34l45 -43l-4 -41l-88 -82l-47 4l-66 72z" />
<glyph unicode="&#xa9;" d="M80 0v70l16 49l-12 65l10 365l-6 723l14 51l-14 18l-4 142l14 4l-10 29l401 -7l19 2h197l20 -4l98 9l29 -5l4 -69l-12 -47l6 -66l-12 -346l6 -743l-15 -52l23 -18l-2 -137l-2 -35l-90 -4l-398 8l-18 -2h-115l-24 4l-58 -8l-10 4l-33 -4zM135 360l25 -12v-162l2 7l-6 -125 l569 4h35l8 149l2 244l12 248v102l-2 27l-2 178v10l-6 109l25 10l-25 35l2 123l2 135l-602 -2l-2 -113l-2 -14l-8 -246l-12 -248v-102l2 -27l2 -178v-10l6 -109z" />
<glyph unicode="&#xaa;" d="M80 0v70l16 49l-12 65l10 365l-6 723l14 51l-14 18l-4 142l14 4l-10 29l401 -7l19 2h197l20 -4l98 9l29 -5l4 -69l-12 -47l6 -66l-12 -346l6 -743l-15 -52l23 -18l-2 -137l-2 -35l-90 -4l-398 8l-18 -2h-115l-24 4l-58 -8l-10 4l-33 -4zM135 360l25 -12v-162l2 7l-6 -125 l569 4h35l8 149l2 244l12 248v102l-2 27l-2 178v10l-6 109l25 10l-25 35l2 123l2 135l-602 -2l-2 -113l-2 -14l-8 -246l-12 -248v-102l2 -27l2 -178v-10l6 -109z" />
<glyph unicode="&#xab;" horiz-adv-x="862" d="M14 653l2 125l76 62l37 6l-2 24l41 48l80 92l80 94l86 -60l32 -57l-96 -94l-31 -25l-51 -53l-86 -94l88 -103l19 -14l94 -92l-2 -8l72 -45l-37 -80l-78 -55l-72 75l-16 58l-51 24l-45 60h-13l-110 102zM381 653l2 125l76 62l37 6l-2 24l41 48l79 92l80 94l86 -60l33 -57 l-96 -94l-31 -25l-51 -53l-86 -94l88 -103l18 -14l95 -92l-2 -8l71 -45l-37 -80l-77 -55l-72 75l-17 58l-51 24l-45 60h-12l-111 102z" />
<glyph unicode="&#xac;" horiz-adv-x="778" d="M18 721l13 113l35 4l28 -2l53 -7l136 -4l47 -22l61 20l178 8l131 7l35 -25l-2 -174l4 -170v-55l-47 -17l-129 4v88l29 52l-27 37l8 75l-106 6l-311 -8l-45 -2l-56 -4l-28 8z" />
<glyph unicode="&#xad;" horiz-adv-x="528" d="M33 721l16 117l35 4l29 -2l49 -11l100 -6l144 21l59 6l27 -27l-3 -153l-34 -23l-119 12l-168 -8l-45 -2l-55 -4l-29 8z" />
<glyph unicode="&#xae;" d="M80 0v70l16 49l-12 65l10 365l-6 723l14 51l-14 18l-4 142l14 4l-10 29l401 -7l19 2h197l20 -4l98 9l29 -5l4 -69l-12 -47l6 -66l-12 -346l6 -743l-15 -52l23 -18l-2 -137l-2 -35l-90 -4l-398 8l-18 -2h-115l-24 4l-58 -8l-10 4l-33 -4zM135 360l25 -12v-162l2 7l-6 -125 l569 4h35l8 149l2 244l12 248v102l-2 27l-2 178v10l-6 109l25 10l-25 35l2 123l2 135l-602 -2l-2 -113l-2 -14l-8 -246l-12 -248v-102l2 -27l2 -178v-10l6 -109z" />
<glyph unicode="&#xaf;" horiz-adv-x="567" d="M41 1626l20 45l19 96l33 -2l24 -6l43 -6l99 -6l157 10l66 12l24 -22l-22 -123l-35 -22l-121 10l-153 -6l-41 18l-27 -25l-61 -4z" />
<glyph unicode="&#xb0;" horiz-adv-x="434" d="M8 1362l103 104l24 27l21 18l30 41h54l79 -75l3 -17l20 -16l82 -78l2 -47l-76 -84l-33 -10l11 -15l-88 -90h-45l-35 37l-43 49l-107 103v24zM123 1337l43 -43l-4 -22l18 8l39 -35l35 39l51 51v6l-35 37l-53 58l-49 -54l-12 -14z" />
<glyph unicode="&#xb1;" horiz-adv-x="778" d="M25 711l6 135h88l43 -8l61 -9h76l6 97l-8 12l-10 156l4 59l147 -2l39 -18l-16 -74l10 -33l-14 -141l-2 -54l65 -12l21 12l71 3l105 12l8 -19v-120l-10 -58l-53 8l-107 9l-76 8h-18l2 -182l10 -39l2 -52l-8 -41l-80 -10h-61l-54 10l9 46l8 63l6 35l2 31l8 63l-8 35v43h-31 h-96l-82 -10l-55 2zM35 78l12 112l35 5l29 -2l53 -7l135 -4l47 -22l57 20l254 10l60 7l26 -27l-2 -143l-34 -23l-234 12l-303 -8l-45 -2l-55 -4l-29 8z" />
<glyph unicode="&#xb2;" d="M80 0v70l16 49l-12 65l10 365l-6 723l14 51l-14 18l-4 142l14 4l-10 29l401 -7l19 2h197l20 -4l98 9l29 -5l4 -69l-12 -47l6 -66l-12 -346l6 -743l-15 -52l23 -18l-2 -137l-2 -35l-90 -4l-398 8l-18 -2h-115l-24 4l-58 -8l-10 4l-33 -4zM135 360l25 -12v-162l2 7l-6 -125 l569 4h35l8 149l2 244l12 248v102l-2 27l-2 178v10l-6 109l25 10l-25 35l2 123l2 135l-602 -2l-2 -113l-2 -14l-8 -246l-12 -248v-102l2 -27l2 -178v-10l6 -109z" />
<glyph unicode="&#xb3;" d="M80 0v70l16 49l-12 65l10 365l-6 723l14 51l-14 18l-4 142l14 4l-10 29l401 -7l19 2h197l20 -4l98 9l29 -5l4 -69l-12 -47l6 -66l-12 -346l6 -743l-15 -52l23 -18l-2 -137l-2 -35l-90 -4l-398 8l-18 -2h-115l-24 4l-58 -8l-10 4l-33 -4zM135 360l25 -12v-162l2 7l-6 -125 l569 4h35l8 149l2 244l12 248v102l-2 27l-2 178v10l-6 109l25 10l-25 35l2 123l2 135l-602 -2l-2 -113l-2 -14l-8 -246l-12 -248v-102l2 -27l2 -178v-10l6 -109z" />
<glyph unicode="&#xb4;" horiz-adv-x="409" d="M41 1591l57 76l74 105l31 40l131 -43l35 -30l-84 -84l-74 -37v-37l-37 -39l-96 25z" />
<glyph unicode="&#xb5;" d="M80 0v70l16 49l-12 65l10 365l-6 723l14 51l-14 18l-4 142l14 4l-10 29l401 -7l19 2h197l20 -4l98 9l29 -5l4 -69l-12 -47l6 -66l-12 -346l6 -743l-15 -52l23 -18l-2 -137l-2 -35l-90 -4l-398 8l-18 -2h-115l-24 4l-58 -8l-10 4l-33 -4zM135 360l25 -12v-162l2 7l-6 -125 l569 4h35l8 149l2 244l12 248v102l-2 27l-2 178v10l-6 109l25 10l-25 35l2 123l2 135l-602 -2l-2 -113l-2 -14l-8 -246l-12 -248v-102l2 -27l2 -178v-10l6 -109z" />
<glyph unicode="&#xb6;" d="M80 0v70l16 49l-12 65l10 365l-6 723l14 51l-14 18l-4 142l14 4l-10 29l401 -7l19 2h197l20 -4l98 9l29 -5l4 -69l-12 -47l6 -66l-12 -346l6 -743l-15 -52l23 -18l-2 -137l-2 -35l-90 -4l-398 8l-18 -2h-115l-24 4l-58 -8l-10 4l-33 -4zM135 360l25 -12v-162l2 7l-6 -125 l569 4h35l8 149l2 244l12 248v102l-2 27l-2 178v10l-6 109l25 10l-25 35l2 123l2 135l-602 -2l-2 -113l-2 -14l-8 -246l-12 -248v-102l2 -27l2 -178v-10l6 -109z" />
<glyph unicode="&#xb7;" horiz-adv-x="356" d="M20 731l5 39l79 74l64 74l35 -5l35 -51l22 -45h29l45 -45v-35l-76 -69l-72 -82l-26 4l-27 24l-4 29l-20 6z" />
<glyph unicode="&#xb8;" horiz-adv-x="325" d="M41 -246l63 41l41 35h2l-38 35l-58 45l8 72l123 106l70 -55l-53 -60l-25 -24l62 -55l49 -46l-17 -59l-55 -47l-20 -23l-56 -55h-43l-26 29z" />
<glyph unicode="&#xb9;" d="M80 0v70l16 49l-12 65l10 365l-6 723l14 51l-14 18l-4 142l14 4l-10 29l401 -7l19 2h197l20 -4l98 9l29 -5l4 -69l-12 -47l6 -66l-12 -346l6 -743l-15 -52l23 -18l-2 -137l-2 -35l-90 -4l-398 8l-18 -2h-115l-24 4l-58 -8l-10 4l-33 -4zM135 360l25 -12v-162l2 7l-6 -125 l569 4h35l8 149l2 244l12 248v102l-2 27l-2 178v10l-6 109l25 10l-25 35l2 123l2 135l-602 -2l-2 -113l-2 -14l-8 -246l-12 -248v-102l2 -27l2 -178v-10l6 -109z" />
<glyph unicode="&#xba;" d="M80 0v70l16 49l-12 65l10 365l-6 723l14 51l-14 18l-4 142l14 4l-10 29l401 -7l19 2h197l20 -4l98 9l29 -5l4 -69l-12 -47l6 -66l-12 -346l6 -743l-15 -52l23 -18l-2 -137l-2 -35l-90 -4l-398 8l-18 -2h-115l-24 4l-58 -8l-10 4l-33 -4zM135 360l25 -12v-162l2 7l-6 -125 l569 4h35l8 149l2 244l12 248v102l-2 27l-2 178v10l-6 109l25 10l-25 35l2 123l2 135l-602 -2l-2 -113l-2 -14l-8 -246l-12 -248v-102l2 -27l2 -178v-10l6 -109z" />
<glyph unicode="&#xbb;" horiz-adv-x="862" d="M31 479l71 45l-2 8l95 93l18 14l88 102l-86 95l-51 53l-31 24l-96 95l33 57l86 59l80 -94l79 -92l41 -47l-2 -25l37 -6l76 -61l2 -125l-16 -10l-111 -103h-12l-45 -59l-52 -25l-16 -57l-72 -76l-77 55zM397 479l72 45l-2 8l94 93l19 14l88 102l-86 95l-52 53l-30 24 l-97 95l33 57l86 59l80 -94l80 -92l41 -47l-2 -25l37 -6l76 -61l2 -125l-17 -10l-110 -103h-13l-45 -59l-51 -25l-16 -57l-72 -76l-78 55z" />
<glyph unicode="&#xbc;" d="M80 0v70l16 49l-12 65l10 365l-6 723l14 51l-14 18l-4 142l14 4l-10 29l401 -7l19 2h197l20 -4l98 9l29 -5l4 -69l-12 -47l6 -66l-12 -346l6 -743l-15 -52l23 -18l-2 -137l-2 -35l-90 -4l-398 8l-18 -2h-115l-24 4l-58 -8l-10 4l-33 -4zM135 360l25 -12v-162l2 7l-6 -125 l569 4h35l8 149l2 244l12 248v102l-2 27l-2 178v10l-6 109l25 10l-25 35l2 123l2 135l-602 -2l-2 -113l-2 -14l-8 -246l-12 -248v-102l2 -27l2 -178v-10l6 -109z" />
<glyph unicode="&#xbd;" d="M80 0v70l16 49l-12 65l10 365l-6 723l14 51l-14 18l-4 142l14 4l-10 29l401 -7l19 2h197l20 -4l98 9l29 -5l4 -69l-12 -47l6 -66l-12 -346l6 -743l-15 -52l23 -18l-2 -137l-2 -35l-90 -4l-398 8l-18 -2h-115l-24 4l-58 -8l-10 4l-33 -4zM135 360l25 -12v-162l2 7l-6 -125 l569 4h35l8 149l2 244l12 248v102l-2 27l-2 178v10l-6 109l25 10l-25 35l2 123l2 135l-602 -2l-2 -113l-2 -14l-8 -246l-12 -248v-102l2 -27l2 -178v-10l6 -109z" />
<glyph unicode="&#xbe;" d="M80 0v70l16 49l-12 65l10 365l-6 723l14 51l-14 18l-4 142l14 4l-10 29l401 -7l19 2h197l20 -4l98 9l29 -5l4 -69l-12 -47l6 -66l-12 -346l6 -743l-15 -52l23 -18l-2 -137l-2 -35l-90 -4l-398 8l-18 -2h-115l-24 4l-58 -8l-10 4l-33 -4zM135 360l25 -12v-162l2 7l-6 -125 l569 4h35l8 149l2 244l12 248v102l-2 27l-2 178v10l-6 109l25 10l-25 35l2 123l2 135l-602 -2l-2 -113l-2 -14l-8 -246l-12 -248v-102l2 -27l2 -178v-10l6 -109z" />
<glyph unicode="&#xbf;" horiz-adv-x="720" d="M43 311l4 121l180 199l49 74l3 6l-13 176l10 12l-10 21l-8 26l23 78l180 -8l4 -49l-16 -39l16 -72l-6 -78l8 -110l-47 -50l4 5l-25 -37l-37 -51l-59 -56l-35 -43l-20 -37l37 -57l-19 -25l68 -26l26 -43l43 -33l23 18l20 19l41 63l66 123l59 -12l64 -61l33 -76l-119 -111 l-123 -131l-6 -8l-41 -55l-133 18l-82 135l8 29l-45 18zM205 1319v35l76 69l71 82l27 -4l27 -24l4 -29l20 -6l88 -82l-4 -39l-80 -74l-63 -73l-35 4l-35 51l-22 45h-29z" />
<glyph unicode="&#xc0;" horiz-adv-x="870" d="M51 41l55 250l21 129l23 22l-3 41l41 252l7 39l12 43v37l61 274l37 43l-22 31l14 82l18 86l21 129l168 8l35 -16l-2 -72l6 -16l8 -21l65 -313l-14 -37l25 -18l98 -494v-28l51 -191l21 -129l-13 -16l31 -33l23 -88l-152 -49h-27l-34 18l-27 258l-8 57l16 21l-18 12l-17 68 l-4 16l-28 -4h-2l-41 -29l-138 -32l-18 -9l-41 -16l-23 -145l-18 -23l14 -57l-22 -137l-127 12zM238 1739l38 30l111 43l31 -28l80 -117l51 -63l-43 -31l-80 -23l-18 13l-31 43l-80 73zM332 545l133 41l57 14l-41 221l-8 107l-8 37l-31 217l-41 -250l-20 -10l10 -33 l-27 -199l2 2l-24 -133z" />
<glyph unicode="&#xc1;" horiz-adv-x="870" d="M51 41l55 250l21 129l23 22l-3 41l41 252l7 39l12 43v37l61 274l37 43l-22 31l14 82l18 86l21 129l168 8l35 -16l-2 -72l6 -16l8 -21l65 -313l-14 -37l25 -18l98 -494v-28l51 -191l21 -129l-13 -16l31 -33l23 -88l-152 -49h-27l-34 18l-27 258l-8 57l16 21l-18 12l-17 68 l-4 16l-28 -4h-2l-41 -29l-138 -32l-18 -9l-41 -16l-23 -145l-18 -23l14 -57l-22 -137l-127 12zM332 545l133 41l57 14l-41 221l-8 107l-8 37l-31 217l-41 -250l-20 -10l10 -33l-27 -199l2 2l-24 -133zM336 1591l57 76l74 105l31 40l131 -43l35 -30l-84 -84l-74 -37v-37 l-37 -39l-96 25z" />
<glyph unicode="&#xc2;" horiz-adv-x="870" d="M51 41l55 250l21 129l23 22l-3 41l41 252l7 39l12 43v37l61 274l37 43l-22 31l14 82l18 86l21 129l168 8l35 -16l-2 -72l6 -16l8 -21l65 -313l-14 -37l25 -18l98 -494v-28l51 -191l21 -129l-13 -16l31 -33l23 -88l-152 -49h-27l-34 18l-27 258l-8 57l16 21l-18 12l-17 68 l-4 16l-28 -4h-2l-41 -29l-138 -32l-18 -9l-41 -16l-23 -145l-18 -23l14 -57l-22 -137l-127 12zM213 1624l154 145l49 48l67 -7l49 -55l62 -53l65 -45l5 -39l-33 -37l-76 -37l-49 58l2 8l-16 8l-66 61l-4 2l-12 -10l-39 -51h2l-25 -59h-108zM332 545l133 41l57 14l-41 221 l-8 107l-8 37l-31 217l-41 -250l-20 -10l10 -33l-27 -199l2 2l-24 -133z" />
<glyph unicode="&#xc3;" horiz-adv-x="870" d="M51 41l55 250l21 129l23 22l-3 41l41 252l7 39l12 43v37l61 274l37 43l-22 31l14 82l18 86l21 129l168 8l35 -16l-2 -72l6 -16l8 -21l65 -313l-14 -37l25 -18l98 -494v-28l51 -191l21 -129l-13 -16l31 -33l23 -88l-152 -49h-27l-34 18l-27 258l-8 57l16 21l-18 12l-17 68 l-4 16l-28 -4h-2l-41 -29l-138 -32l-18 -9l-41 -16l-23 -145l-18 -23l14 -57l-22 -137l-127 12zM184 1645l95 110l36 39h82l127 -88q5 0 17 4l30 37l13 37h86l20 -39l-112 -162l-84 -8l-142 96q-16 0 -24 4l-25 -24l-6 -56h-92zM332 545l133 41l57 14l-41 221l-8 107l-8 37 l-31 217l-41 -250l-20 -10l10 -33l-27 -199l2 2l-24 -133z" />
<glyph unicode="&#xc4;" horiz-adv-x="870" d="M51 41l55 250l21 129l23 22l-3 41l41 252l7 39l12 43v37l61 274l37 43l-22 31l14 82l18 86l21 129l168 8l35 -16l-2 -72l6 -16l8 -21l65 -313l-14 -37l25 -18l98 -494v-28l51 -191l21 -129l-13 -16l31 -33l23 -88l-152 -49h-27l-34 18l-27 258l-8 57l16 21l-18 12l-17 68 l-4 16l-28 -4h-2l-41 -29l-138 -32l-18 -9l-41 -16l-23 -145l-18 -23l14 -57l-22 -137l-127 12zM205 1651l2 37l86 90l39 -2l71 -68l23 -41l-61 -57l-41 -47l-27 8l-12 18l-37 27zM332 545l133 41l57 14l-41 221l-8 107l-8 37l-31 217l-41 -250l-20 -10l10 -33l-27 -199l2 2 l-24 -133zM446 1673l60 56v-5l47 56l37 -11l33 -34l45 -43l-4 -41l-89 -82l-47 4l-65 72z" />
<glyph unicode="&#xc5;" horiz-adv-x="870" d="M51 41l55 250l21 129l23 22l-3 41l41 252l7 39l12 43v37l61 274l37 43l-22 31l14 82l18 86l17 100l-2 3v-3l-99 99l-2 28l-2 35l99 82v-2l12 21l22 26l33 49h66l73 -84l3 -8l16 -12l78 -76l2 -57l-92 -80l-9 -8l7 -64l6 -16l8 -21l65 -313l-14 -37l25 -18l98 -494v-28 l51 -191l21 -129l-13 -16l31 -33l23 -88l-152 -49h-27l-34 18l-27 258l-8 57l16 21l-18 12l-17 68l-4 16l-28 -4h-2l-41 -29l-138 -32l-18 -9l-41 -16l-23 -145l-18 -23l14 -57l-22 -137l-127 12zM332 545l133 41l57 14l-41 221l-8 107l-8 37l-31 217l-41 -250l-20 -10 l10 -33l-27 -199l2 2l-24 -133zM346 1610l47 -58l45 -45l72 82l-37 45l-51 58l-19 -15l-18 -18l-6 -14z" />
<glyph unicode="&#xc6;" horiz-adv-x="1116" d="M-2 47l102 252l35 119l41 28l-14 21l2 14l84 254l22 37l2 55l21 43l86 265l43 41l-21 6l29 94l29 86l41 139l80 -2l67 6h121l29 -6l73 6l181 2l2 -77l-11 -111h-88l-55 27l-31 -15l-100 4h-20l-9 2v-41l-2 -53l4 -184l-16 -25h2l2 -51v-41l6 -102l39 -2h41l154 10l43 -8 v-95l-13 -77l-102 4l-154 6l-12 -211l17 -49l-27 -41h14l8 -8l5 -189h-7l29 -6h23l145 2l57 14l78 -2l-6 -157l-33 -37l-137 2l-96 12h-78v-2l-21 -8l-151 2l-14 74l8 80l12 39l-8 40l4 93l8 41v8l-2 12l-135 -20l-64 -11l-53 -8l-8 -2h8l-53 -158l-10 -30l-8 -76l-39 -105 l-125 23zM352 506l205 39v24l6 13l-14 215l6 77v287l-57 -229l-25 -29h2l2 -10v-8l-76 -205l-39 -131l-8 -35z" />
<glyph unicode="&#xc7;" horiz-adv-x="634" d="M16 811l134 225l73 72v49l51 82v8l115 189l2 16l72 84l153 -102l-57 -103l-57 -80l-35 -22l-10 -55l-123 -183l-68 -106l-39 -70l-26 -49l30 -59l21 -39l29 -29l18 -41l76 -117l94 -159l106 -140l48 -76l-107 -88l-70 -45l-24 -24l61 -55l49 -46l-16 -59l-55 -47l-21 -23 l-55 -55h-43l-27 29l-26 61l63 41l41 35h2l-39 35l-57 45l8 72l86 73l-16 27l-4 24l-156 242l16 37l-94 88l-73 133l-48 74z" />
<glyph unicode="&#xc8;" horiz-adv-x="741" d="M127 84l12 139l-2 23l2 94l25 53l-19 25v47l-2 110l9 17l-17 203l6 75v152l2 160l-2 104l23 35l-23 27l-10 145l96 12h117l29 -16l80 16l202 2l2 -80l-4 -114h-96l-49 16l-6 -2l-33 -6l-113 4h-18v-22l-4 -52v-202l-10 -62l-23 -37l21 -16l4 -80l75 -4l80 4l105 10 l26 -51l-12 -61l-4 -84l-100 4l-129 4h-33l-8 -211l12 -59l-6 -19l2 -4l4 -199l18 -4l17 -4l164 2l51 17l102 -2l-4 -103l-8 -76l-47 -20l-135 2l-117 12h-72l-16 -10l-154 2zM221 1739l39 30l111 43l30 -28l80 -117l51 -63l-43 -31l-79 -23l-19 13l-31 43l-79 73z" />
<glyph unicode="&#xc9;" horiz-adv-x="741" d="M127 84l12 139l-2 23l2 94l25 53l-19 25v47l-2 110l9 17l-17 203l6 75v152l2 160l-2 104l23 35l-23 27l-10 145l96 12h117l29 -16l80 16l202 2l2 -80l-4 -114h-96l-49 16l-6 -2l-33 -6l-113 4h-18v-22l-4 -52v-202l-10 -62l-23 -37l21 -16l4 -80l75 -4l80 4l105 10 l26 -51l-12 -61l-4 -84l-100 4l-129 4h-33l-8 -211l12 -59l-6 -19l2 -4l4 -199l18 -4l17 -4l164 2l51 17l102 -2l-4 -103l-8 -76l-47 -20l-135 2l-117 12h-72l-16 -10l-154 2zM319 1591l58 76l74 105l30 40l131 -43l35 -30l-84 -84l-74 -37v-37l-36 -39l-97 25z" />
<glyph unicode="&#xca;" horiz-adv-x="741" d="M127 84l12 139l-2 23l2 94l25 53l-19 25v47l-2 110l9 17l-17 203l6 75v152l2 160l-2 104l23 35l-23 27l-10 145l96 12h117l29 -16l80 16l202 2l2 -80l-4 -114h-96l-49 16l-6 -2l-33 -6l-113 4h-18v-22l-4 -52v-202l-10 -62l-23 -37l21 -16l4 -80l75 -4l80 4l105 10 l26 -51l-12 -61l-4 -84l-100 4l-129 4h-33l-8 -211l12 -59l-6 -19l2 -4l4 -199l18 -4l17 -4l164 2l51 17l102 -2l-4 -103l-8 -76l-47 -20l-135 2l-117 12h-72l-16 -10l-154 2zM197 1624l153 145l49 48l68 -7l49 -55l62 -53l65 -45l4 -39l-33 -37l-75 -37l-50 58l3 8l-17 8 l-65 61l-4 2l-13 -10l-39 -51h2l-24 -59h-109z" />
<glyph unicode="&#xcb;" horiz-adv-x="741" d="M127 84l12 139l-2 23l2 94l25 53l-19 25v47l-2 110l9 17l-17 203l6 75v152l2 160l-2 104l23 35l-23 27l-10 145l96 12h117l29 -16l80 16l202 2l2 -80l-4 -114h-96l-49 16l-6 -2l-33 -6l-113 4h-18v-22l-4 -52v-202l-10 -62l-23 -37l21 -16l4 -80l75 -4l80 4l105 10 l26 -51l-12 -61l-4 -84l-100 4l-129 4h-33l-8 -211l12 -59l-6 -19l2 -4l4 -199l18 -4l17 -4l164 2l51 17l102 -2l-4 -103l-8 -76l-47 -20l-135 2l-117 12h-72l-16 -10l-154 2zM188 1651l2 37l86 90l39 -2l72 -68l23 -41l-62 -57l-41 -47l-26 8l-13 18l-37 27zM430 1673 l59 56v-5l48 56l36 -11l33 -34l45 -43l-4 -41l-88 -82l-47 4l-66 72z" />
<glyph unicode="&#xcc;" horiz-adv-x="495" d="M61 1739l39 30l111 43l31 -28l80 -117l51 -63l-43 -31l-80 -23l-19 13l-30 43l-80 73zM129 0l29 182l24 41l-24 35v74v383l6 63l6 113l-14 51l-6 410l16 37l-19 10l-10 102l96 6l134 -8l-11 -149l-10 -52l-6 -268l-6 -104l8 -80l4 -51l-18 -43l22 -15v-567l4 -31l4 -39 l-2 -75l-90 -29l-43 2z" />
<glyph unicode="&#xcd;" horiz-adv-x="495" d="M129 0l29 182l24 41l-24 35v74v383l6 63l6 113l-14 51l-6 410l16 37l-19 10l-10 102l96 6l134 -8l-11 -149l-10 -52l-6 -268l-6 -104l8 -80l4 -51l-18 -43l22 -15v-567l4 -31l4 -39l-2 -75l-90 -29l-43 2zM160 1591l57 76l74 105l31 40l131 -43l34 -30l-84 -84l-73 -37 v-37l-37 -39l-96 25z" />
<glyph unicode="&#xce;" horiz-adv-x="495" d="M37 1624l153 145l50 48l67 -7l49 -55l62 -53l65 -45l4 -39l-32 -37l-76 -37l-49 58l2 8l-17 8l-65 61l-4 2l-13 -10l-38 -51h2l-25 -59h-109zM129 0l29 182l24 41l-24 35v74v383l6 63l6 113l-14 51l-6 410l16 37l-19 10l-10 102l96 6l134 -8l-11 -149l-10 -52l-6 -268 l-6 -104l8 -80l4 -51l-18 -43l22 -15v-567l4 -31l4 -39l-2 -75l-90 -29l-43 2z" />
<glyph unicode="&#xcf;" horiz-adv-x="495" d="M29 1651l2 37l86 90l39 -2l71 -68l23 -41l-62 -57l-41 -47l-26 8l-12 18l-37 27zM129 0l29 182l24 41l-24 35v74v383l6 63l6 113l-14 51l-6 410l16 37l-19 10l-10 102l96 6l134 -8l-11 -149l-10 -52l-6 -268l-6 -104l8 -80l4 -51l-18 -43l22 -15v-567l4 -31l4 -39l-2 -75 l-90 -29l-43 2zM270 1673l60 56v-5l47 56l37 -11l32 -34l46 -43l-5 -41l-88 -82l-47 4l-65 72z" />
<glyph unicode="&#xd0;" horiz-adv-x="811" d="M18 733l17 105h35l28 -2l43 2v391l21 39l-21 26l-6 107l-2 76l88 26l109 33l127 -174l22 -68l72 -71l53 -99l156 -206l-2 4l37 -48l2 -149l-37 -61l-211 -324l-72 -145l-137 -218l-68 19l-133 18l4 138v-2l13 458l-9 56h-47l-51 -5l-29 9zM295 868l10 -30l84 2l60 4 l26 -27l-2 -131l-35 -22l-112 6l-7 -303l-2 -111l2 4l91 146l36 18l-16 18l86 166l68 113l37 59l-37 56l-9 49l-40 33l-203 329l-13 15l7 -301z" />
<glyph unicode="&#xd1;" horiz-adv-x="954" d="M127 10l14 164l-6 19v34l12 291l17 60l-19 40l9 426l-9 117l-8 213v107l162 45l184 -254l52 -82l16 -8l67 -111v176l21 64l-21 28v164l119 2l84 -14l-4 -139l-20 -504l-17 -86l23 -68l14 -448v-66l12 -114l-26 -70l-113 -2l-69 4l2 160l-2 194l2 197l6 10l-6 39l-2 213 l-33 55l-29 31l-29 45l-59 72l-84 116l-53 74v-110l-29 -74l2 -4l25 -27l-4 -467l-11 -73l19 -78l-2 -213l6 -29l-4 -131l-121 -4zM238 1645l94 110l37 39h82l127 -88q4 0 16 4l31 37l12 37h86l20 -39l-112 -162l-84 -8l-141 96q-17 0 -25 4l-25 -24l-6 -56h-92z" />
<glyph unicode="&#xd2;" horiz-adv-x="851" d="M41 815l16 10l111 269l37 26l-10 23l110 276l8 13l13 61l4 14h76l18 2l92 4l41 -112l105 -256l10 -55h20l56 -123l69 -152l-6 -113l-100 -202l-17 -21l-2 -33l-47 -98l-110 -262l-25 -66l-4 -22l-187 2l-2 68l-71 178l6 35h-23l-61 127l-74 174l-49 104zM229 784l2 -24 l27 -68l18 -59l-20 -25l41 -28l41 -84l90 -236l8 -22l66 215l24 24h-2l-2 37l101 246l-17 51l-24 70l-80 206l18 25l-37 23l-47 125l-12 38l-113 -297l-28 -8l14 -32zM231 1739l39 30l111 43l31 -28l80 -117l51 -63l-43 -31l-80 -23l-19 13l-30 43l-80 73z" />
<glyph unicode="&#xd3;" horiz-adv-x="851" d="M41 815l16 10l111 269l37 26l-10 23l110 276l8 13l13 61l4 14h76l18 2l92 4l41 -112l105 -256l10 -55h20l56 -123l69 -152l-6 -113l-100 -202l-17 -21l-2 -33l-47 -98l-110 -262l-25 -66l-4 -22l-187 2l-2 68l-71 178l6 35h-23l-61 127l-74 174l-49 104zM229 784l2 -24 l27 -68l18 -59l-20 -25l41 -28l41 -84l90 -236l8 -22l66 215l24 24h-2l-2 37l101 246l-17 51l-24 70l-80 206l18 25l-37 23l-47 125l-12 38l-113 -297l-28 -8l14 -32zM330 1591l57 76l74 105l31 40l131 -43l34 -30l-84 -84l-73 -37v-37l-37 -39l-96 25z" />
<glyph unicode="&#xd4;" horiz-adv-x="851" d="M41 815l16 10l111 269l37 26l-10 23l110 276l8 13l13 61l4 14h76l18 2l92 4l41 -112l105 -256l10 -55h20l56 -123l69 -152l-6 -113l-100 -202l-17 -21l-2 -33l-47 -98l-110 -262l-25 -66l-4 -22l-187 2l-2 68l-71 178l6 35h-23l-61 127l-74 174l-49 104zM207 1624 l153 145l50 48l67 -7l49 -55l62 -53l65 -45l4 -39l-32 -37l-76 -37l-49 58l2 8l-17 8l-65 61l-4 2l-13 -10l-38 -51h2l-25 -59h-109zM229 784l2 -24l27 -68l18 -59l-20 -25l41 -28l41 -84l90 -236l8 -22l66 215l24 24h-2l-2 37l101 246l-17 51l-24 70l-80 206l18 25l-37 23 l-47 125l-12 38l-113 -297l-28 -8l14 -32z" />
<glyph unicode="&#xd5;" horiz-adv-x="851" d="M41 815l16 10l111 269l37 26l-10 23l110 276l8 13l13 61l4 14h76l18 2l92 4l41 -112l105 -256l10 -55h20l56 -123l69 -152l-6 -113l-100 -202l-17 -21l-2 -33l-47 -98l-110 -262l-25 -66l-4 -22l-187 2l-2 68l-71 178l6 35h-23l-61 127l-74 174l-49 104zM178 1645l94 110 l37 39h82l127 -88q5 0 17 4l30 37l13 37h86l20 -39l-113 -162l-84 -8l-141 96q-16 0 -24 4l-25 -24l-6 -56h-92zM229 784l2 -24l27 -68l18 -59l-20 -25l41 -28l41 -84l90 -236l8 -22l66 215l24 24h-2l-2 37l101 246l-17 51l-24 70l-80 206l18 25l-37 23l-47 125l-12 38 l-113 -297l-28 -8l14 -32z" />
<glyph unicode="&#xd6;" horiz-adv-x="851" d="M41 815l16 10l111 269l37 26l-10 23l110 276l8 13l13 61l4 14h76l18 2l92 4l41 -112l105 -256l10 -55h20l56 -123l69 -152l-6 -113l-100 -202l-17 -21l-2 -33l-47 -98l-110 -262l-25 -66l-4 -22l-187 2l-2 68l-71 178l6 35h-23l-61 127l-74 174l-49 104zM199 1651l2 37 l86 90l39 -2l71 -68l23 -41l-62 -57l-41 -47l-26 8l-12 18l-37 27zM229 784l2 -24l27 -68l18 -59l-20 -25l41 -28l41 -84l90 -236l8 -22l66 215l24 24h-2l-2 37l101 246l-17 51l-24 70l-80 206l18 25l-37 23l-47 125l-12 38l-113 -297l-28 -8l14 -32zM440 1673l60 56v-5 l47 56l37 -11l32 -34l46 -43l-5 -41l-88 -82l-47 4l-65 72z" />
<glyph unicode="&#xd7;" horiz-adv-x="778" d="M27 502l77 55l29 25l49 41l54 55l59 67l-53 64l-47 41l-64 59l-90 70l20 53l101 86l100 -102l33 -43l-4 -25l31 -6l71 -88l96 113l-2 -2l43 49l60 98l51 -8l84 -84l-4 -62l-105 -84l-73 -79l-54 -50l154 -151v-31l43 -2l64 -53l-19 -45l-41 -45l-57 -47l-55 39l-33 61 l-19 21l-139 143l-127 -146l-20 -45l-21 -30l-63 -49l-62 51l2 -2l-41 28z" />
<glyph unicode="&#xd8;" horiz-adv-x="851" d="M41 817l16 10l111 269l37 26l-10 23l110 276l8 13l13 61l4 14h76l18 2l92 5l41 -113l51 -127l8 18l25 54l35 73l92 -63l-10 -27l-23 -16l6 -12l-82 -154l3 -2l10 -55h20l56 -123l69 -152l-6 -112l-100 -203l-17 -21l-2 -32l-47 -99l-110 -262l-25 -65l-4 -23l-187 2 l-2 68l-71 178l6 35h-16l-27 -45l-6 -31l-37 -78l-29 6l-65 53l26 60l13 16l6 12l61 113l-10 21l-74 174l-49 104zM229 786l2 -24l27 -68l18 -59l-20 -25l25 -18l12 22l55 105l14 24l76 168l27 50l47 102l-76 199l-12 38l-113 -296l-28 -9l14 -32zM338 496l90 -234l8 -22 l66 215l24 24h-2l-2 37l101 246l-17 51l-24 70l-25 59l-2 -8l-45 -96l-72 -133l-76 -160z" />
<glyph unicode="&#xd9;" horiz-adv-x="952" d="M141 1430l27 75l184 -4l-2 -182l-6 -66l-20 -73l2 -37l20 -45l-14 -78l2 -70l2 -76l4 -153l-14 -242l14 -239l2 -31l23 -19l16 -2l68 25l167 72l9 133l6 260l-13 250v170l-8 258l4 145l103 2l94 -2l12 -100l-6 -111l-22 -12l20 -23l-14 -133l-4 -112l-2 -29l-21 -35 l21 -20l10 -60l-4 -454l12 -240l29 -160l-199 -32l-16 110l-4 14l-156 -79l-66 -35l-129 2l-122 106l-3 103l7 96l28 37l-20 22l-2 269l-15 223l2 145l17 43l-10 64zM285 1739l39 30l110 43l31 -28l80 -117l51 -63l-43 -31l-80 -23l-18 13l-31 43l-80 73z" />
<glyph unicode="&#xda;" horiz-adv-x="952" d="M141 1430l27 75l184 -4l-2 -182l-6 -66l-20 -73l2 -37l20 -45l-14 -78l2 -70l2 -76l4 -153l-14 -242l14 -239l2 -31l23 -19l16 -2l68 25l167 72l9 133l6 260l-13 250v170l-8 258l4 145l103 2l94 -2l12 -100l-6 -111l-22 -12l20 -23l-14 -133l-4 -112l-2 -29l-21 -35 l21 -20l10 -60l-4 -454l12 -240l29 -160l-199 -32l-16 110l-4 14l-156 -79l-66 -35l-129 2l-122 106l-3 103l7 96l28 37l-20 22l-2 269l-15 223l2 145l17 43l-10 64zM383 1591l57 76l74 105l31 40l131 -43l35 -30l-84 -84l-74 -37v-37l-37 -39l-96 25z" />
<glyph unicode="&#xdb;" horiz-adv-x="952" d="M141 1430l27 75l184 -4l-2 -182l-6 -66l-20 -73l2 -37l20 -45l-14 -78l2 -70l2 -76l4 -153l-14 -242l14 -239l2 -31l23 -19l16 -2l68 25l167 72l9 133l6 260l-13 250v170l-8 258l4 145l103 2l94 -2l12 -100l-6 -111l-22 -12l20 -23l-14 -133l-4 -112l-2 -29l-21 -35 l21 -20l10 -60l-4 -454l12 -240l29 -160l-199 -32l-16 110l-4 14l-156 -79l-66 -35l-129 2l-122 106l-3 103l7 96l28 37l-20 22l-2 269l-15 223l2 145l17 43l-10 64zM260 1624l154 145l49 48l67 -7l50 -55l61 -53l66 -45l4 -39l-33 -37l-76 -37l-49 58l2 8l-16 8l-66 61 l-4 2l-12 -10l-39 -51h2l-25 -59h-108z" />
<glyph unicode="&#xdc;" horiz-adv-x="952" d="M141 1430l27 75l184 -4l-2 -182l-6 -66l-20 -73l2 -37l20 -45l-14 -78l2 -70l2 -76l4 -153l-14 -242l14 -239l2 -31l23 -19l16 -2l68 25l167 72l9 133l6 260l-13 250v170l-8 258l4 145l103 2l94 -2l12 -100l-6 -111l-22 -12l20 -23l-14 -133l-4 -112l-2 -29l-21 -35 l21 -20l10 -60l-4 -454l12 -240l29 -160l-199 -32l-16 110l-4 14l-156 -79l-66 -35l-129 2l-122 106l-3 103l7 96l28 37l-20 22l-2 269l-15 223l2 145l17 43l-10 64zM252 1651l2 37l86 90l39 -2l72 -68l22 -41l-61 -57l-41 -47l-27 8l-12 18l-37 27zM494 1673l59 56v-5 l47 56l37 -11l33 -34l45 -43l-4 -41l-88 -82l-48 4l-65 72z" />
<glyph unicode="&#xdd;" horiz-adv-x="819" d="M39 1397l4 65l113 35l67 16l41 -110v-35l17 -49l43 -154l38 -80l17 -73l-6 -17l22 -32l23 -74l8 10l37 129l31 121l30 68l35 139l25 59l18 101l92 -27l43 -14l64 -45l-58 -148l-47 -20l23 -19l-14 -29l-31 -63l-31 -90l-80 -234l-59 -165l2 -60l-6 -22l2 -60l-23 -61 l25 -21l-8 -147l8 -35l-2 -88l14 -133l-59 -41l-156 4l4 117l14 100l25 49l-20 27l-9 264l4 88l-20 98l-43 125l-80 203v-2l-29 70l-34 94l12 65l-39 17zM317 1591l58 76l74 105l30 40l131 -43l35 -30l-84 -84l-74 -37v-37l-36 -39l-97 25z" />
<glyph unicode="&#xde;" horiz-adv-x="743" d="M94 0l35 217l-4 197l2 252l31 4l-29 53l-8 299l-8 332l24 24l-26 31l-9 88l95 8l116 -10l-6 -139l-10 -51v-93l65 -61l111 -100l2 -27l55 -20l58 -43l151 -117l-2 -133l-49 -35l-65 -64l-76 -59l-139 -137l-103 -103l-12 -61l6 -55l2 -62l8 -141l-92 -4zM293 834l6 -287 v-8l27 16l57 55h25v25l61 61l70 68l-41 33l-37 43l-162 133z" />
<glyph unicode="&#xdf;" horiz-adv-x="864" d="M111 14l28 265l-4 49l-4 55l4 424l15 27l-19 34l6 101l-16 202l63 78l148 166v-2l2 4l57 92l133 -12l82 -117l49 -63l154 -148v-88l-162 -198h2l-78 -113l52 -53l36 -41l-4 4l117 -100l94 -82l-2 -95l-65 -98l-115 -160l-45 7l14 -50l-92 -139l-166 109l39 57l21 29 l102 104l105 158l8 16l-23 19l-190 192l-64 53l4 93l103 137l26 -8l-16 51l102 135l-77 86l-41 49l-39 55l-4 -4l-39 -55l-109 -121l-2 -6l4 -27l6 -36l-10 -205l6 -113l4 -108l8 -271l-20 -6l29 -55l-2 -133l6 -135l-37 -23h-102zM332 1415l2 2l2 2z" />
<glyph unicode="&#xe0;" horiz-adv-x="870" d="M51 41l55 250l21 129l23 22l-3 41l41 252l7 39l12 43v37l61 274l37 43l-22 31l14 82l18 86l21 129l168 8l35 -16l-2 -72l6 -16l8 -21l65 -313l-14 -37l25 -18l98 -494v-28l51 -191l21 -129l-13 -16l31 -33l23 -88l-152 -49h-27l-34 18l-27 258l-8 57l16 21l-18 12l-17 68 l-4 16l-28 -4h-2l-41 -29l-138 -32l-18 -9l-41 -16l-23 -145l-18 -23l14 -57l-22 -137l-127 12zM238 1739l38 30l111 43l31 -28l80 -117l51 -63l-43 -31l-80 -23l-18 13l-31 43l-80 73zM332 545l133 41l57 14l-41 221l-8 107l-8 37l-31 217l-41 -250l-20 -10l10 -33 l-27 -199l2 2l-24 -133z" />
<glyph unicode="&#xe1;" horiz-adv-x="870" d="M51 41l55 250l21 129l23 22l-3 41l41 252l7 39l12 43v37l61 274l37 43l-22 31l14 82l18 86l21 129l168 8l35 -16l-2 -72l6 -16l8 -21l65 -313l-14 -37l25 -18l98 -494v-28l51 -191l21 -129l-13 -16l31 -33l23 -88l-152 -49h-27l-34 18l-27 258l-8 57l16 21l-18 12l-17 68 l-4 16l-28 -4h-2l-41 -29l-138 -32l-18 -9l-41 -16l-23 -145l-18 -23l14 -57l-22 -137l-127 12zM332 545l133 41l57 14l-41 221l-8 107l-8 37l-31 217l-41 -250l-20 -10l10 -33l-27 -199l2 2l-24 -133zM336 1591l57 76l74 105l31 40l131 -43l35 -30l-84 -84l-74 -37v-37 l-37 -39l-96 25z" />
<glyph unicode="&#xe2;" horiz-adv-x="870" d="M51 41l55 250l21 129l23 22l-3 41l41 252l7 39l12 43v37l61 274l37 43l-22 31l14 82l18 86l21 129l168 8l35 -16l-2 -72l6 -16l8 -21l65 -313l-14 -37l25 -18l98 -494v-28l51 -191l21 -129l-13 -16l31 -33l23 -88l-152 -49h-27l-34 18l-27 258l-8 57l16 21l-18 12l-17 68 l-4 16l-28 -4h-2l-41 -29l-138 -32l-18 -9l-41 -16l-23 -145l-18 -23l14 -57l-22 -137l-127 12zM213 1624l154 145l49 48l67 -7l49 -55l62 -53l65 -45l5 -39l-33 -37l-76 -37l-49 58l2 8l-16 8l-66 61l-4 2l-12 -10l-39 -51h2l-25 -59h-108zM332 545l133 41l57 14l-41 221 l-8 107l-8 37l-31 217l-41 -250l-20 -10l10 -33l-27 -199l2 2l-24 -133z" />
<glyph unicode="&#xe3;" horiz-adv-x="870" d="M51 41l55 250l21 129l23 22l-3 41l41 252l7 39l12 43v37l61 274l37 43l-22 31l14 82l18 86l21 129l168 8l35 -16l-2 -72l6 -16l8 -21l65 -313l-14 -37l25 -18l98 -494v-28l51 -191l21 -129l-13 -16l31 -33l23 -88l-152 -49h-27l-34 18l-27 258l-8 57l16 21l-18 12l-17 68 l-4 16l-28 -4h-2l-41 -29l-138 -32l-18 -9l-41 -16l-23 -145l-18 -23l14 -57l-22 -137l-127 12zM184 1645l95 110l36 39h82l127 -88q5 0 17 4l30 37l13 37h86l20 -39l-112 -162l-84 -8l-142 96q-16 0 -24 4l-25 -24l-6 -56h-92zM332 545l133 41l57 14l-41 221l-8 107l-8 37 l-31 217l-41 -250l-20 -10l10 -33l-27 -199l2 2l-24 -133z" />
<glyph unicode="&#xe4;" horiz-adv-x="870" d="M51 41l55 250l21 129l23 22l-3 41l41 252l7 39l12 43v37l61 274l37 43l-22 31l14 82l18 86l21 129l168 8l35 -16l-2 -72l6 -16l8 -21l65 -313l-14 -37l25 -18l98 -494v-28l51 -191l21 -129l-13 -16l31 -33l23 -88l-152 -49h-27l-34 18l-27 258l-8 57l16 21l-18 12l-17 68 l-4 16l-28 -4h-2l-41 -29l-138 -32l-18 -9l-41 -16l-23 -145l-18 -23l14 -57l-22 -137l-127 12zM205 1651l2 37l86 90l39 -2l71 -68l23 -41l-61 -57l-41 -47l-27 8l-12 18l-37 27zM332 545l133 41l57 14l-41 221l-8 107l-8 37l-31 217l-41 -250l-20 -10l10 -33l-27 -199l2 2 l-24 -133zM446 1673l60 56v-5l47 56l37 -11l33 -34l45 -43l-4 -41l-89 -82l-47 4l-65 72z" />
<glyph unicode="&#xe5;" horiz-adv-x="870" d="M51 41l55 250l21 129l23 22l-3 41l41 252l7 39l12 43v37l61 274l37 43l-22 31l14 82l18 86l17 100l-2 3v-3l-99 99l-2 28l-2 35l99 82v-2l12 21l22 26l33 49h66l73 -84l3 -8l16 -12l78 -76l2 -57l-92 -80l-9 -8l7 -64l6 -16l8 -21l65 -313l-14 -37l25 -18l98 -494v-28 l51 -191l21 -129l-13 -16l31 -33l23 -88l-152 -49h-27l-34 18l-27 258l-8 57l16 21l-18 12l-17 68l-4 16l-28 -4h-2l-41 -29l-138 -32l-18 -9l-41 -16l-23 -145l-18 -23l14 -57l-22 -137l-127 12zM332 545l133 41l57 14l-41 221l-8 107l-8 37l-31 217l-41 -250l-20 -10 l10 -33l-27 -199l2 2l-24 -133zM346 1610l47 -58l45 -45l72 82l-37 45l-51 58l-19 -15l-18 -18l-6 -14z" />
<glyph unicode="&#xe6;" horiz-adv-x="1116" d="M-2 47l102 252l35 119l41 28l-14 21l2 14l84 254l22 37l2 55l21 43l86 265l43 41l-21 6l29 94l29 86l41 139l80 -2l67 6h121l29 -6l73 6l181 2l2 -77l-11 -111h-88l-55 27l-31 -15l-100 4h-20l-9 2v-41l-2 -53l4 -184l-16 -25h2l2 -51v-41l6 -102l39 -2h41l154 10l43 -8 v-95l-13 -77l-102 4l-154 6l-12 -211l17 -49l-27 -41h14l8 -8l5 -189h-7l29 -6h23l145 2l57 14l78 -2l-6 -157l-33 -37l-137 2l-96 12h-78v-2l-21 -8l-151 2l-14 74l8 80l12 39l-8 40l4 93l8 41v8l-2 12l-135 -20l-64 -11l-53 -8l-8 -2h8l-53 -158l-10 -30l-8 -76l-39 -105 l-125 23zM352 506l205 39v24l6 13l-14 215l6 77v287l-57 -229l-25 -29h2l2 -10v-8l-76 -205l-39 -131l-8 -35z" />
<glyph unicode="&#xe7;" horiz-adv-x="634" d="M16 811l134 225l73 72v49l51 82v8l115 189l2 16l72 84l153 -102l-57 -103l-57 -80l-35 -22l-10 -55l-123 -183l-68 -106l-39 -70l-26 -49l30 -59l21 -39l29 -29l18 -41l76 -117l94 -159l106 -140l48 -76l-107 -88l-70 -45l-24 -24l61 -55l49 -46l-16 -59l-55 -47l-21 -23 l-55 -55h-43l-27 29l-26 61l63 41l41 35h2l-39 35l-57 45l8 72l86 73l-16 27l-4 24l-156 242l16 37l-94 88l-73 133l-48 74z" />
<glyph unicode="&#xe8;" horiz-adv-x="741" d="M127 84l12 139l-2 23l2 94l25 53l-19 25v47l-2 110l9 17l-17 203l6 75v152l2 160l-2 104l23 35l-23 27l-10 145l96 12h117l29 -16l80 16l202 2l2 -80l-4 -114h-96l-49 16l-6 -2l-33 -6l-113 4h-18v-22l-4 -52v-202l-10 -62l-23 -37l21 -16l4 -80l75 -4l80 4l105 10 l26 -51l-12 -61l-4 -84l-100 4l-129 4h-33l-8 -211l12 -59l-6 -19l2 -4l4 -199l18 -4l17 -4l164 2l51 17l102 -2l-4 -103l-8 -76l-47 -20l-135 2l-117 12h-72l-16 -10l-154 2zM221 1739l39 30l111 43l30 -28l80 -117l51 -63l-43 -31l-79 -23l-19 13l-31 43l-79 73z" />
<glyph unicode="&#xe9;" horiz-adv-x="741" d="M127 84l12 139l-2 23l2 94l25 53l-19 25v47l-2 110l9 17l-17 203l6 75v152l2 160l-2 104l23 35l-23 27l-10 145l96 12h117l29 -16l80 16l202 2l2 -80l-4 -114h-96l-49 16l-6 -2l-33 -6l-113 4h-18v-22l-4 -52v-202l-10 -62l-23 -37l21 -16l4 -80l75 -4l80 4l105 10 l26 -51l-12 -61l-4 -84l-100 4l-129 4h-33l-8 -211l12 -59l-6 -19l2 -4l4 -199l18 -4l17 -4l164 2l51 17l102 -2l-4 -103l-8 -76l-47 -20l-135 2l-117 12h-72l-16 -10l-154 2zM319 1591l58 76l74 105l30 40l131 -43l35 -30l-84 -84l-74 -37v-37l-36 -39l-97 25z" />
<glyph unicode="&#xea;" horiz-adv-x="741" d="M127 84l12 139l-2 23l2 94l25 53l-19 25v47l-2 110l9 17l-17 203l6 75v152l2 160l-2 104l23 35l-23 27l-10 145l96 12h117l29 -16l80 16l202 2l2 -80l-4 -114h-96l-49 16l-6 -2l-33 -6l-113 4h-18v-22l-4 -52v-202l-10 -62l-23 -37l21 -16l4 -80l75 -4l80 4l105 10 l26 -51l-12 -61l-4 -84l-100 4l-129 4h-33l-8 -211l12 -59l-6 -19l2 -4l4 -199l18 -4l17 -4l164 2l51 17l102 -2l-4 -103l-8 -76l-47 -20l-135 2l-117 12h-72l-16 -10l-154 2zM197 1624l153 145l49 48l68 -7l49 -55l62 -53l65 -45l4 -39l-33 -37l-75 -37l-50 58l3 8l-17 8 l-65 61l-4 2l-13 -10l-39 -51h2l-24 -59h-109z" />
<glyph unicode="&#xeb;" horiz-adv-x="741" d="M127 84l12 139l-2 23l2 94l25 53l-19 25v47l-2 110l9 17l-17 203l6 75v152l2 160l-2 104l23 35l-23 27l-10 145l96 12h117l29 -16l80 16l202 2l2 -80l-4 -114h-96l-49 16l-6 -2l-33 -6l-113 4h-18v-22l-4 -52v-202l-10 -62l-23 -37l21 -16l4 -80l75 -4l80 4l105 10 l26 -51l-12 -61l-4 -84l-100 4l-129 4h-33l-8 -211l12 -59l-6 -19l2 -4l4 -199l18 -4l17 -4l164 2l51 17l102 -2l-4 -103l-8 -76l-47 -20l-135 2l-117 12h-72l-16 -10l-154 2zM188 1651l2 37l86 90l39 -2l72 -68l23 -41l-62 -57l-41 -47l-26 8l-13 18l-37 27zM430 1673 l59 56v-5l48 56l36 -11l33 -34l45 -43l-4 -41l-88 -82l-47 4l-66 72z" />
<glyph unicode="&#xec;" horiz-adv-x="495" d="M92 1739l39 30l111 43l30 -28l80 -117l51 -63l-43 -31l-79 -23l-19 13l-31 43l-79 73zM129 0l29 182l24 41l-24 35v74v383l6 63l6 113l-14 51l-6 410l16 37l-19 10l-10 102l96 6l134 -8l-11 -149l-10 -52l-6 -268l-6 -104l8 -80l4 -51l-18 -43l22 -15v-567l4 -31l4 -39 l-2 -75l-90 -29l-43 2z" />
<glyph unicode="&#xed;" horiz-adv-x="495" d="M84 1591l57 76l74 105l31 40l131 -43l35 -30l-84 -84l-74 -37v-37l-37 -39l-96 25zM129 0l29 182l24 41l-24 35v74v383l6 63l6 113l-14 51l-6 410l16 37l-19 10l-10 102l96 6l134 -8l-11 -149l-10 -52l-6 -268l-6 -104l8 -80l4 -51l-18 -43l22 -15v-567l4 -31l4 -39 l-2 -75l-90 -29l-43 2z" />
<glyph unicode="&#xee;" horiz-adv-x="495" d="M23 1624l153 145l49 48l68 -7l49 -55l61 -53l66 -45l4 -39l-33 -37l-75 -37l-50 58l2 8l-16 8l-65 61l-5 2l-12 -10l-39 -51h2l-24 -59h-109zM129 0l29 182l24 41l-24 35v74v383l6 63l6 113l-14 51l-6 410l16 37l-19 10l-10 102l96 6l134 -8l-11 -149l-10 -52l-6 -268 l-6 -104l8 -80l4 -51l-18 -43l22 -15v-567l4 -31l4 -39l-2 -75l-90 -29l-43 2z" />
<glyph unicode="&#xef;" horiz-adv-x="495" d="M16 1651l2 37l86 90l39 -2l72 -68l23 -41l-62 -57l-41 -47l-26 8l-13 18l-37 27zM129 0l29 182l24 41l-24 35v74v383l6 63l6 113l-14 51l-6 410l16 37l-19 10l-10 102l96 6l134 -8l-11 -149l-10 -52l-6 -268l-6 -104l8 -80l4 -51l-18 -43l22 -15v-567l4 -31l4 -39l-2 -75 l-90 -29l-43 2zM258 1673l59 56v-5l48 56l36 -11l33 -34l45 -43l-4 -41l-88 -82l-47 4l-66 72z" />
<glyph unicode="&#xf0;" horiz-adv-x="811" d="M18 733l17 105h35l28 -2l43 2v391l21 39l-21 26l-6 107l-2 76l88 26l109 33l127 -174l22 -68l72 -71l53 -99l156 -206l-2 4l37 -48l2 -149l-37 -61l-211 -324l-72 -145l-137 -218l-68 19l-133 18l4 138v-2l13 458l-9 56h-47l-51 -5l-29 9zM295 868l10 -30l84 2l60 4 l26 -27l-2 -131l-35 -22l-112 6l-7 -303l-2 -111l2 4l91 146l36 18l-16 18l86 166l68 113l37 59l-37 56l-9 49l-40 33l-203 329l-13 15l7 -301z" />
<glyph unicode="&#xf1;" horiz-adv-x="954" d="M127 10l14 164l-6 19v34l12 291l17 60l-19 40l9 426l-9 117l-8 213v107l162 45l184 -254l52 -82l16 -8l67 -111v176l21 64l-21 28v164l119 2l84 -14l-4 -139l-20 -504l-17 -86l23 -68l14 -448v-66l12 -114l-26 -70l-113 -2l-69 4l2 160l-2 194l2 197l6 10l-6 39l-2 213 l-33 55l-29 31l-29 45l-59 72l-84 116l-53 74v-110l-29 -74l2 -4l25 -27l-4 -467l-11 -73l19 -78l-2 -213l6 -29l-4 -131l-121 -4zM238 1645l94 110l37 39h82l127 -88q4 0 16 4l31 37l12 37h86l20 -39l-112 -162l-84 -8l-141 96q-17 0 -25 4l-25 -24l-6 -56h-92z" />
<glyph unicode="&#xf2;" horiz-adv-x="851" d="M41 815l16 10l111 269l37 26l-10 23l110 276l8 13l13 61l4 14h76l18 2l92 4l41 -112l105 -256l10 -55h20l56 -123l69 -152l-6 -113l-100 -202l-17 -21l-2 -33l-47 -98l-110 -262l-25 -66l-4 -22l-187 2l-2 68l-71 178l6 35h-23l-61 127l-74 174l-49 104zM229 784l2 -24 l27 -68l18 -59l-20 -25l41 -28l41 -84l90 -236l8 -22l66 215l24 24h-2l-2 37l101 246l-17 51l-24 70l-80 206l18 25l-37 23l-47 125l-12 38l-113 -297l-28 -8l14 -32zM231 1739l39 30l111 43l31 -28l80 -117l51 -63l-43 -31l-80 -23l-19 13l-30 43l-80 73z" />
<glyph unicode="&#xf3;" horiz-adv-x="851" d="M41 815l16 10l111 269l37 26l-10 23l110 276l8 13l13 61l4 14h76l18 2l92 4l41 -112l105 -256l10 -55h20l56 -123l69 -152l-6 -113l-100 -202l-17 -21l-2 -33l-47 -98l-110 -262l-25 -66l-4 -22l-187 2l-2 68l-71 178l6 35h-23l-61 127l-74 174l-49 104zM229 784l2 -24 l27 -68l18 -59l-20 -25l41 -28l41 -84l90 -236l8 -22l66 215l24 24h-2l-2 37l101 246l-17 51l-24 70l-80 206l18 25l-37 23l-47 125l-12 38l-113 -297l-28 -8l14 -32zM330 1591l57 76l74 105l31 40l131 -43l34 -30l-84 -84l-73 -37v-37l-37 -39l-96 25z" />
<glyph unicode="&#xf4;" horiz-adv-x="851" d="M41 815l16 10l111 269l37 26l-10 23l110 276l8 13l13 61l4 14h76l18 2l92 4l41 -112l105 -256l10 -55h20l56 -123l69 -152l-6 -113l-100 -202l-17 -21l-2 -33l-47 -98l-110 -262l-25 -66l-4 -22l-187 2l-2 68l-71 178l6 35h-23l-61 127l-74 174l-49 104zM207 1624 l153 145l50 48l67 -7l49 -55l62 -53l65 -45l4 -39l-32 -37l-76 -37l-49 58l2 8l-17 8l-65 61l-4 2l-13 -10l-38 -51h2l-25 -59h-109zM229 784l2 -24l27 -68l18 -59l-20 -25l41 -28l41 -84l90 -236l8 -22l66 215l24 24h-2l-2 37l101 246l-17 51l-24 70l-80 206l18 25l-37 23 l-47 125l-12 38l-113 -297l-28 -8l14 -32z" />
<glyph unicode="&#xf5;" horiz-adv-x="851" d="M41 815l16 10l111 269l37 26l-10 23l110 276l8 13l13 61l4 14h76l18 2l92 4l41 -112l105 -256l10 -55h20l56 -123l69 -152l-6 -113l-100 -202l-17 -21l-2 -33l-47 -98l-110 -262l-25 -66l-4 -22l-187 2l-2 68l-71 178l6 35h-23l-61 127l-74 174l-49 104zM178 1645l94 110 l37 39h82l127 -88q5 0 17 4l30 37l13 37h86l20 -39l-113 -162l-84 -8l-141 96q-16 0 -24 4l-25 -24l-6 -56h-92zM229 784l2 -24l27 -68l18 -59l-20 -25l41 -28l41 -84l90 -236l8 -22l66 215l24 24h-2l-2 37l101 246l-17 51l-24 70l-80 206l18 25l-37 23l-47 125l-12 38 l-113 -297l-28 -8l14 -32z" />
<glyph unicode="&#xf6;" horiz-adv-x="851" d="M41 815l16 10l111 269l37 26l-10 23l110 276l8 13l13 61l4 14h76l18 2l92 4l41 -112l105 -256l10 -55h20l56 -123l69 -152l-6 -113l-100 -202l-17 -21l-2 -33l-47 -98l-110 -262l-25 -66l-4 -22l-187 2l-2 68l-71 178l6 35h-23l-61 127l-74 174l-49 104zM199 1651l2 37 l86 90l39 -2l71 -68l23 -41l-62 -57l-41 -47l-26 8l-12 18l-37 27zM229 784l2 -24l27 -68l18 -59l-20 -25l41 -28l41 -84l90 -236l8 -22l66 215l24 24h-2l-2 37l101 246l-17 51l-24 70l-80 206l18 25l-37 23l-47 125l-12 38l-113 -297l-28 -8l14 -32zM440 1673l60 56v-5 l47 56l37 -11l32 -34l46 -43l-5 -41l-88 -82l-47 4l-65 72z" />
<glyph unicode="&#xf7;" horiz-adv-x="778" d="M35 721l12 113l35 4l29 -2l53 -7l135 -4l47 -22l57 20l254 11l60 6l26 -27l-2 -143l-34 -23l-234 12l-303 -8l-45 -2l-55 -4l-29 8zM270 414l4 47l103 104l57 -4l78 -82l18 -53l-112 -117l-53 6l-48 64zM272 1034l4 51l103 103l45 2l94 -96l14 -37l-53 -68l-16 -22l-27 2 l-22 -43l-54 18z" />
<glyph unicode="&#xf8;" horiz-adv-x="851" d="M41 817l16 10l111 269l37 26l-10 23l110 276l8 13l13 61l4 14h76l18 2l92 5l41 -113l51 -127l8 18l25 54l35 73l92 -63l-10 -27l-23 -16l6 -12l-82 -154l3 -2l10 -55h20l56 -123l69 -152l-6 -112l-100 -203l-17 -21l-2 -32l-47 -99l-110 -262l-25 -65l-4 -23l-187 2 l-2 68l-71 178l6 35h-16l-27 -45l-6 -31l-37 -78l-29 6l-65 53l26 60l13 16l6 12l61 113l-10 21l-74 174l-49 104zM229 786l2 -24l27 -68l18 -59l-20 -25l25 -18l12 22l55 105l14 24l76 168l27 50l47 102l-76 199l-12 38l-113 -296l-28 -9l14 -32zM338 496l90 -234l8 -22 l66 215l24 24h-2l-2 37l101 246l-17 51l-24 70l-25 59l-2 -8l-45 -96l-72 -133l-76 -160z" />
<glyph unicode="&#xf9;" horiz-adv-x="952" d="M141 1430l27 75l184 -4l-2 -182l-6 -66l-20 -73l2 -37l20 -45l-14 -78l2 -70l2 -76l4 -153l-14 -242l14 -239l2 -31l23 -19l16 -2l68 25l167 72l9 133l6 260l-13 250v170l-8 258l4 145l103 2l94 -2l12 -100l-6 -111l-22 -12l20 -23l-14 -133l-4 -112l-2 -29l-21 -35 l21 -20l10 -60l-4 -454l12 -240l29 -160l-199 -32l-16 110l-4 14l-156 -79l-66 -35l-129 2l-122 106l-3 103l7 96l28 37l-20 22l-2 269l-15 223l2 145l17 43l-10 64zM285 1739l39 30l110 43l31 -28l80 -117l51 -63l-43 -31l-80 -23l-18 13l-31 43l-80 73z" />
<glyph unicode="&#xfa;" horiz-adv-x="952" d="M141 1430l27 75l184 -4l-2 -182l-6 -66l-20 -73l2 -37l20 -45l-14 -78l2 -70l2 -76l4 -153l-14 -242l14 -239l2 -31l23 -19l16 -2l68 25l167 72l9 133l6 260l-13 250v170l-8 258l4 145l103 2l94 -2l12 -100l-6 -111l-22 -12l20 -23l-14 -133l-4 -112l-2 -29l-21 -35 l21 -20l10 -60l-4 -454l12 -240l29 -160l-199 -32l-16 110l-4 14l-156 -79l-66 -35l-129 2l-122 106l-3 103l7 96l28 37l-20 22l-2 269l-15 223l2 145l17 43l-10 64zM383 1591l57 76l74 105l31 40l131 -43l35 -30l-84 -84l-74 -37v-37l-37 -39l-96 25z" />
<glyph unicode="&#xfb;" horiz-adv-x="952" d="M141 1430l27 75l184 -4l-2 -182l-6 -66l-20 -73l2 -37l20 -45l-14 -78l2 -70l2 -76l4 -153l-14 -242l14 -239l2 -31l23 -19l16 -2l68 25l167 72l9 133l6 260l-13 250v170l-8 258l4 145l103 2l94 -2l12 -100l-6 -111l-22 -12l20 -23l-14 -133l-4 -112l-2 -29l-21 -35 l21 -20l10 -60l-4 -454l12 -240l29 -160l-199 -32l-16 110l-4 14l-156 -79l-66 -35l-129 2l-122 106l-3 103l7 96l28 37l-20 22l-2 269l-15 223l2 145l17 43l-10 64zM260 1624l154 145l49 48l67 -7l50 -55l61 -53l66 -45l4 -39l-33 -37l-76 -37l-49 58l2 8l-16 8l-66 61 l-4 2l-12 -10l-39 -51h2l-25 -59h-108z" />
<glyph unicode="&#xfc;" horiz-adv-x="952" d="M141 1430l27 75l184 -4l-2 -182l-6 -66l-20 -73l2 -37l20 -45l-14 -78l2 -70l2 -76l4 -153l-14 -242l14 -239l2 -31l23 -19l16 -2l68 25l167 72l9 133l6 260l-13 250v170l-8 258l4 145l103 2l94 -2l12 -100l-6 -111l-22 -12l20 -23l-14 -133l-4 -112l-2 -29l-21 -35 l21 -20l10 -60l-4 -454l12 -240l29 -160l-199 -32l-16 110l-4 14l-156 -79l-66 -35l-129 2l-122 106l-3 103l7 96l28 37l-20 22l-2 269l-15 223l2 145l17 43l-10 64zM252 1651l2 37l86 90l39 -2l72 -68l22 -41l-61 -57l-41 -47l-27 8l-12 18l-37 27zM494 1673l59 56v-5 l47 56l37 -11l33 -34l45 -43l-4 -41l-88 -82l-48 4l-65 72z" />
<glyph unicode="&#xfd;" horiz-adv-x="819" d="M39 1397l4 65l113 35l67 16l41 -110v-35l17 -49l43 -154l38 -80l17 -73l-6 -17l22 -32l23 -74l8 10l37 129l31 121l30 68l35 139l25 59l18 101l92 -27l43 -14l64 -45l-58 -148l-47 -20l23 -19l-14 -29l-31 -63l-31 -90l-80 -234l-59 -165l2 -60l-6 -22l2 -60l-23 -61 l25 -21l-8 -147l8 -35l-2 -88l14 -133l-59 -41l-156 4l4 117l14 100l25 49l-20 27l-9 264l4 88l-20 98l-43 125l-80 203v-2l-29 70l-34 94l12 65l-39 17zM317 1591l58 76l74 105l30 40l131 -43l35 -30l-84 -84l-74 -37v-37l-36 -39l-97 25z" />
<glyph unicode="&#xfe;" horiz-adv-x="743" d="M94 0l35 217l-4 197l2 252l31 4l-29 53l-8 299l-8 332l24 24l-26 31l-9 88l95 8l116 -10l-6 -139l-10 -51v-93l65 -61l111 -100l2 -27l55 -20l58 -43l151 -117l-2 -133l-49 -35l-65 -64l-76 -59l-139 -137l-103 -103l-12 -61l6 -55l2 -62l8 -141l-92 -4zM293 834l6 -287 v-8l27 16l57 55h25v25l61 61l70 68l-41 33l-37 43l-162 133z" />
<glyph unicode="&#xff;" horiz-adv-x="819" d="M39 1397l4 65l113 35l67 16l41 -110v-35l17 -49l43 -154l38 -80l17 -73l-6 -17l22 -32l23 -74l8 10l37 129l31 121l30 68l35 139l25 59l18 101l92 -27l43 -14l64 -45l-58 -148l-47 -20l23 -19l-14 -29l-31 -63l-31 -90l-80 -234l-59 -165l2 -60l-6 -22l2 -60l-23 -61 l25 -21l-8 -147l8 -35l-2 -88l14 -133l-59 -41l-156 4l4 117l14 100l25 49l-20 27l-9 264l4 88l-20 98l-43 125l-80 203v-2l-29 70l-34 94l12 65l-39 17zM186 1651l2 37l86 90l39 -2l72 -68l23 -41l-62 -57l-41 -47l-26 8l-13 18l-37 27zM428 1673l59 56v-5l48 56l36 -11 l33 -34l45 -43l-4 -41l-88 -82l-47 4l-66 72z" />
<glyph unicode="&#x152;" horiz-adv-x="1060" d="M23 684l2 68l2 61l141 238l37 12l-6 29l12 43l22 16l195 354l59 2l166 -6l21 4l31 -2l129 4h75l76 4l16 -63l3 -80l-15 -49l-121 16l-30 -8l-140 4l-8 -2v-74l-4 -122l8 -48l-6 -237h37l31 -4l88 12l82 2l10 -39l-2 -63l-8 -74l-45 -8l-170 8h-29v-35l-2 -49v-244l8 -90 l-4 -90l18 6h187l45 10l72 3l12 -89l-4 -36l-25 -72l-258 6l-72 4l-14 -10l-227 2l-23 49l2 -2l-39 68l-41 94l21 41l-70 26l-55 91l-96 184l-49 61l-25 52v-3zM229 756l21 -35l96 -193l49 -92l99 -198v2v342l26 30l-22 27l-2 180l8 62l-4 311v76v4l-21 -37l-69 -113 l-88 -166h2l-58 -118l-22 -56z" />
<glyph unicode="&#x153;" horiz-adv-x="1060" d="M23 684l2 68l2 61l141 238l37 12l-6 29l12 43l22 16l195 354l59 2l166 -6l21 4l31 -2l129 4h75l76 4l16 -63l3 -80l-15 -49l-121 16l-30 -8l-140 4l-8 -2v-74l-4 -122l8 -48l-6 -237h37l31 -4l88 12l82 2l10 -39l-2 -63l-8 -74l-45 -8l-170 8h-29v-35l-2 -49v-244l8 -90 l-4 -90l18 6h187l45 10l72 3l12 -89l-4 -36l-25 -72l-258 6l-72 4l-14 -10l-227 2l-23 49l2 -2l-39 68l-41 94l21 41l-70 26l-55 91l-96 184l-49 61l-25 52v-3zM229 756l21 -35l96 -193l49 -92l99 -198v2v342l26 30l-22 27l-2 180l8 62l-4 311v76v4l-21 -37l-69 -113 l-88 -166h2l-58 -118l-22 -56z" />
<glyph unicode="&#x178;" horiz-adv-x="819" d="M39 1397l4 65l113 35l67 16l41 -110v-35l17 -49l43 -154l38 -80l17 -73l-6 -17l22 -32l23 -74l8 10l37 129l31 121l30 68l35 139l25 59l18 101l92 -27l43 -14l64 -45l-58 -148l-47 -20l23 -19l-14 -29l-31 -63l-31 -90l-80 -234l-59 -165l2 -60l-6 -22l2 -60l-23 -61 l25 -21l-8 -147l8 -35l-2 -88l14 -133l-59 -41l-156 4l4 117l14 100l25 49l-20 27l-9 264l4 88l-20 98l-43 125l-80 203v-2l-29 70l-34 94l12 65l-39 17zM186 1651l2 37l86 90l39 -2l72 -68l23 -41l-62 -57l-41 -47l-26 8l-13 18l-37 27zM428 1673l59 56v-5l48 56l36 -11 l33 -34l45 -43l-4 -41l-88 -82l-47 4l-66 72z" />
<glyph unicode="&#x2c6;" horiz-adv-x="532" d="M41 1624l154 145l49 48l67 -7l49 -55l62 -53l65 -45l5 -39l-33 -37l-76 -37l-49 58l2 8l-17 8l-65 61l-4 2l-12 -10l-39 -51h2l-25 -59h-108z" />
<glyph unicode="&#x2dc;" horiz-adv-x="587" d="M41 1645l94 110l37 39h82l127 -88q4 0 16 4l31 37l12 37h86l21 -39l-113 -162l-84 -8l-141 96q-17 0 -25 4l-24 -24l-6 -56h-93z" />
<glyph unicode="&#x2000;" horiz-adv-x="908" />
<glyph unicode="&#x2001;" horiz-adv-x="1817" />
<glyph unicode="&#x2002;" horiz-adv-x="908" />
<glyph unicode="&#x2003;" horiz-adv-x="1817" />
<glyph unicode="&#x2004;" horiz-adv-x="605" />
<glyph unicode="&#x2005;" horiz-adv-x="454" />
<glyph unicode="&#x2006;" horiz-adv-x="302" />
<glyph unicode="&#x2007;" horiz-adv-x="302" />
<glyph unicode="&#x2008;" horiz-adv-x="227" />
<glyph unicode="&#x2009;" horiz-adv-x="363" />
<glyph unicode="&#x200a;" horiz-adv-x="100" />
<glyph unicode="&#x2010;" horiz-adv-x="528" d="M33 721l16 117l35 4l29 -2l49 -11l100 -6l144 21l59 6l27 -27l-3 -153l-34 -23l-119 12l-168 -8l-45 -2l-55 -4l-29 8z" />
<glyph unicode="&#x2011;" horiz-adv-x="528" d="M33 721l16 117l35 4l29 -2l49 -11l100 -6l144 21l59 6l27 -27l-3 -153l-34 -23l-119 12l-168 -8l-45 -2l-55 -4l-29 8z" />
<glyph unicode="&#x2012;" horiz-adv-x="528" d="M33 721l16 117l35 4l29 -2l49 -11l100 -6l144 21l59 6l27 -27l-3 -153l-34 -23l-119 12l-168 -8l-45 -2l-55 -4l-29 8z" />
<glyph unicode="&#x2013;" horiz-adv-x="1024" d="M27 721l12 113l35 4l28 -2l54 -7l503 -4l48 -22l61 20l143 11l60 6l26 -27l-2 -143l-34 -23l-119 12l-406 -6l-65 23l-9 -23l-200 -2l-45 -2l-56 -4l-28 8z" />
<glyph unicode="&#x2014;" horiz-adv-x="2048" d="M29 721l12 113l35 4l28 -2l54 -7l884 -2l23 -20l70 20l481 -2l47 -22l61 20l185 11l80 6l26 -27l-2 -143l-35 -23l-180 12l-973 -6l-430 2l-59 35l-19 -37l-153 -2l-45 -2l-56 -4l-28 8z" />
<glyph unicode="&#x2018;" horiz-adv-x="372" d="M20 1174l11 14l59 90l51 76l41 30v31l60 76l32 31l109 -78l-21 -37l-38 -29l-68 -84l-10 -43l90 -73l-2 -35l-78 -74l-57 -76l-31 2l-47 41l-23 39l-75 58z" />
<glyph unicode="&#x2019;" horiz-adv-x="372" d="M-10 1069l20 37l39 29l68 84l10 43l-90 73l2 35l78 74l57 76l31 -2l47 -41l22 -39l76 -58l2 -41l-10 -14l-59 -90l-52 -76l-41 -31v-30l-59 -76l-33 -31z" />
<glyph unicode="&#x201a;" horiz-adv-x="372" d="M-10 -147l20 36l39 29l68 84l10 43l-90 74l2 35l78 73l57 76l31 -2l47 -41l22 -39l76 -57l2 -41l-10 -14l-59 -91l-52 -75l-41 -31v-31l-59 -76l-33 -30z" />
<glyph unicode="&#x201c;" horiz-adv-x="727" d="M20 1169l11 15l57 88l51 74l41 30v31l58 74l32 30l107 -75l-21 -37l-39 -29l-65 -82l-10 -43l88 -71l-2 -35l-76 -74l-57 -74l-29 2l-47 41l-23 37l-73 57zM375 1174l10 14l59 90l52 76l41 30v31l59 76l33 31l108 -78l-20 -37l-39 -29l-68 -84l-10 -43l90 -73l-2 -35 l-78 -74l-57 -76l-31 2l-47 41l-22 39l-76 58z" />
<glyph unicode="&#x201d;" horiz-adv-x="727" d="M-10 1069l20 37l39 29l68 84l10 43l-90 73l2 35l78 74l57 76l31 -2l47 -41l22 -39l76 -58l2 -41l-10 -14l-59 -90l-52 -76l-41 -31v-30l-59 -76l-33 -31zM350 1077l21 37l39 29l65 82l10 43l-88 71l2 35l76 74l57 74l29 -2l47 -41l23 -37l74 -58l2 -41l-11 -14l-57 -88 l-51 -74l-41 -30v-31l-58 -74l-32 -31z" />
<glyph unicode="&#x201e;" horiz-adv-x="727" d="M-10 -147l20 36l39 29l68 84l10 43l-90 74l2 35l78 73l57 76l31 -2l47 -41l22 -39l76 -57l2 -41l-10 -14l-59 -91l-52 -75l-41 -31v-31l-59 -76l-33 -30zM350 -139l21 37l39 28l65 82l10 43l-88 72l2 35l76 73l57 74l29 -2l47 -41l23 -37l74 -57l2 -41l-11 -14l-57 -88 l-51 -74l-41 -31v-31l-58 -73l-32 -31z" />
<glyph unicode="&#x2022;" horiz-adv-x="675" d="M39 748l2 26l106 105l41 14l11 37l28 43l37 26l51 68h54l108 -123l2 -18l35 -27l121 -111v-61l-133 -137l-23 6l-4 -47l-106 -107l-54 -10l-47 51l-61 82l4 25l-166 127z" />
<glyph unicode="&#x2026;" horiz-adv-x="1073" d="M14 129l4 39l80 74l64 73l35 -4l34 -51l23 -45h29l45 -45v-35l-76 -69l-72 -82l-26 4l-27 24l-4 29l-21 6zM379 129l4 39l80 74l63 73l35 -4l35 -51l22 -45h29l45 -45v-35l-76 -69l-71 -82l-27 4l-26 24l-5 29l-20 6zM743 129l5 39l79 74l64 73l35 -4l35 -51l22 -45h29 l45 -45v-35l-76 -69l-72 -82l-26 4l-27 24l-4 29l-21 6z" />
<glyph unicode="&#x202f;" horiz-adv-x="363" />
<glyph unicode="&#x2039;" horiz-adv-x="505" d="M20 653l3 125l75 62l37 6l-2 24l41 48l80 92l80 94l86 -60l33 -57l-97 -94l-30 -25l-52 -53l-86 -94l88 -103l19 -14l94 -92l-2 -8l72 -45l-37 -80l-78 -55l-72 75l-16 58l-51 24l-45 60h-13l-110 102z" />
<glyph unicode="&#x203a;" horiz-adv-x="505" d="M45 459l72 45l-2 8l94 92l18 14l88 103l-86 94l-51 53l-31 25l-96 94l33 57l86 60l80 -94l80 -92l41 -48l-2 -24l37 -6l75 -62l2 -125l-16 -10l-111 -102h-12l-45 -60l-51 -24l-17 -58l-71 -75l-78 55z" />
<glyph unicode="&#x205f;" horiz-adv-x="454" />
<glyph unicode="&#x20ac;" horiz-adv-x="753" d="M-8 702l65 11l76 -8q0 6 2 16.5t2 15.5q0 4 -1 28.5t-1 27.5v18h-10l-31 -8q-5 -1 -13 -4t-14.5 -4.5t-13.5 -1.5l-53 6l4 67l-4 19q0 1 -1 3t-1 3v6l4 61q50 0 82 -4q16 -2 43 -2l37 -2q4 4 15.5 16.5t17.5 20.5l-4 -4l153 240q0 2 1 4.5t1 3.5l117 211v10l41 68 l143 -31l41 -70l-76 -104l-53 -17l12 -28l-110 -178l2 2l-96 -142l112 4l135 13l-22 -140l-62 -24l-210 4v-61l2 -46q10 0 26.5 -1t28.5 -1h76q4 0 9 1t12.5 2t12.5 2l54 4l65 -19l-6 -57l4 -8l-16 -43q-3 -5 -4.5 -20.5t-3.5 -18.5q-79 0 -107 12q-12 4 -16 4l-84 2l4 -14 q18 -37 39 -55l45 -62l104 -156l135 -157l27 -64l-117 -78l-65 2l-41 72l-31 62l-147 217l6 32l-31 13l-72 88l-59 96q-12 0 -32.5 -1t-30.5 -1l-107 -6z" />
<glyph unicode="&#x2122;" horiz-adv-x="1021" d="M18 1391l15 125l123 -9l20 -16l29 14h53l55 2h13l53 2h55l4 -61l-2 -72l-51 -2l-20 4l-46 11h-24l-2 -13l-2 -33l-4 -112l2 -105v2l6 -127l2 -73l-33 -19l-35 -4l-65 4v76l6 90l-2 21l10 112l-8 58l4 80l-6 40h-4l-31 -6l-63 -8zM483 942l6 43l13 10l-15 21v59l9 49v133 l-9 121l7 19l-5 6l-6 31v65l68 10l49 13l62 -109l-3 2l70 -125l4 10l51 89l13 22l30 59l29 56l66 -15l39 -38l-11 -170l-22 -19l20 -20l10 -252l9 -94l-33 -11l-100 2v47l6 84l2 99l2 53v45l-6 53l-39 -63l-29 -66l-37 -12l-59 12l-25 56l2 -7l-37 66l4 -240l7 -94l-4 -33 l-134 -4z" />
<glyph unicode="&#x25fc;" horiz-adv-x="1525" d="M0 0v1526h1526v-1526h-1526z" />
</font>
</defs>
</svg>
